<svg xmlns="http://www.w3.org/2000/svg" xmlns:xlink="http://www.w3.org/1999/xlink" contentStyleType="text/css" height="1763.3px" preserveAspectRatio="none" style="width:1467px;height:1763px;background:#FFFFFF;" version="1.1" viewBox="0 0 1467 1763" width="1467.9px" zoomAndPan="magnify"><defs/><g><!--cluster Operators--><g id="cluster_Operators"><path d="M484.869,4.6214 L535.2867,4.6214 A2.625,2.625 0 0 1 537.0367,6.3714 L541.9367,22.1689 L1461.719,22.1689 A1.75,1.75 0 0 1 1463.469,23.9189 L1463.469,1030.4714 A1.75,1.75 0 0 1 1461.719,1032.2214 L484.869,1032.2214 A1.75,1.75 0 0 1 483.119,1030.4714 L483.119,6.3714 A1.75,1.75 0 0 1 484.869,4.6214 " fill="none" style="stroke:#000000;stroke-width:1.0499999999999998;"/><line style="stroke:#000000;stroke-width:1.0499999999999998;" x1="483.119" x2="541.9367" y1="22.1689" y2="22.1689"/><text fill="#000000" font-family="sans-serif" font-size="9.8" font-weight="bold" lengthAdjust="spacing" textLength="49.7177" x="485.919" y="16.4975">Operators</text></g><!--class Operator--><g id="elem_Operator"><rect codeLine="5" fill="#F1F1F1" height="60.2951" id="Operator" rx="1.75" ry="1.75" style="stroke:#181818;stroke-width:0.3499999999999999;" width="239.2773" x="513.919" y="532.3724"/><ellipse cx="610.6985" cy="543.5724" fill="#A9DCDF" rx="7.7" ry="7.7" style="stroke:#181818;stroke-width:0.6999999999999998;"/><path d="M613.0392,547.2474 L612.011,544.6224 L608.9048,544.6224 L607.8985,547.2474 L606.411,547.2474 L609.8782,538.3443 L611.1032,538.3443 L614.5485,547.2474 L613.0392,547.2474 Z M610.6985,540.9802 Q610.6657,540.8708 610.5782,540.6193 Q610.4907,540.3677 610.4142,540.1052 Q610.3376,539.8318 610.4798,539.788 Q610.5892,539.9193 610.5235,540.1708 Q610.4579,540.4114 610.3923,540.6193 Q610.3267,540.8161 610.272,540.9802 L609.4079,543.2989 L611.5626,543.2989 L610.6985,540.9802 Z " fill="#000000"/><text fill="#000000" font-family="sans-serif" font-size="9.8" font-style="italic" lengthAdjust="spacing" textLength="39.7682" x="625.0485" y="547.3748">Operator</text><line style="stroke:#181818;stroke-width:0.3499999999999999;" x1="514.619" x2="752.4963" y1="554.7724" y2="554.7724"/><line style="stroke:#181818;stroke-width:0.3499999999999999;" x1="514.619" x2="752.4963" y1="560.3724" y2="560.3724"/><text fill="#000000" font-family="sans-serif" font-size="9.8" font-style="italic" lengthAdjust="spacing" textLength="59.2996" x="518.119" y="573.6485">void execute()</text><text fill="#000000" font-family="sans-serif" font-size="9.8" font-style="italic" lengthAdjust="spacing" textLength="230.8773" x="518.119" y="586.9961">double compute(double operand1, double operand2)</text></g><polygon fill="none" points="753.1963,552.5512,766.7411,546.5056,767.5549,556.2718" style="stroke:#181818;stroke-width:0.6999999999999998;"/><line style="stroke:#181818;stroke-width:0.6999999999999998;" x1="767.148" x2="767.956" y1="551.3887" y2="551.3214"/><line style="stroke:#181818;stroke-width:0.6999999999999998;" x1="529.576" x2="495.5507" y1="592.6675" y2="602.5325"/><!--class BackSpace--><g id="elem_BackSpace"><rect codeLine="10" fill="#F1F1F1" height="46.9475" id="BackSpace" rx="1.75" ry="1.75" style="stroke:#181818;stroke-width:0.3499999999999999;" width="82.1545" x="954.373" y="962.5504"/><ellipse cx="969.7391" cy="973.7504" fill="#ADD1B2" rx="7.7" ry="7.7" style="stroke:#181818;stroke-width:0.6999999999999998;"/><path d="M969.8157,970.6223 Q969.1703,970.6223 968.6563,970.841 Q968.1532,971.0598 967.8032,971.4754 Q967.4532,971.8801 967.2563,972.4926 Q967.0703,973.1051 967.0703,973.8707 Q967.0703,974.8769 967.3766,975.6098 Q967.6938,976.3426 968.2844,976.7254 Q968.886,977.1082 969.8047,977.1082 Q970.3516,977.1082 970.8328,977.0207 Q971.325,976.9223 972.025,976.7035 L972.025,978.016 Q971.4235,978.2457 970.8875,978.3332 Q970.3625,978.4207 969.6516,978.4207 Q968.3063,978.4207 967.3875,977.8629 Q966.4797,977.2941 966.0203,976.266 Q965.561,975.2269 965.561,973.8488 Q965.561,972.8535 965.8344,972.0332 Q966.1188,971.2019 966.6657,970.5894 Q967.2125,969.9769 968.011,969.6488 Q968.8094,969.3098 969.8375,969.3098 Q970.5047,969.3098 971.1282,969.4519 Q971.7625,969.5832 972.4188,969.9113 L971.8391,971.1582 Q971.2922,970.8957 970.8328,970.7644 Q970.3735,970.6223 969.8157,970.6223 Z " fill="#000000"/><text fill="#000000" font-family="sans-serif" font-size="9.8" lengthAdjust="spacing" textLength="48.941" x="980.6204" y="977.5528">BackSpace</text><line style="stroke:#181818;stroke-width:0.3499999999999999;" x1="955.073" x2="1035.8275" y1="984.9504" y2="984.9504"/><line style="stroke:#181818;stroke-width:0.3499999999999999;" x1="955.073" x2="1035.8275" y1="990.5504" y2="990.5504"/><ellipse cx="962.073" cy="1001.0742" fill="#84BE84" rx="2.1" ry="2.1" style="stroke:#038048;stroke-width:0.6999999999999998;"/><text fill="#000000" font-family="sans-serif" font-size="9.8" lengthAdjust="spacing" textLength="63.9545" x="968.373" y="1003.8265">void execute()</text></g><!--class ClearError--><g id="elem_ClearError"><rect codeLine="14" fill="#F1F1F1" height="46.9475" id="ClearError" rx="1.75" ry="1.75" style="stroke:#181818;stroke-width:0.3499999999999999;" width="82.1545" x="954.373" y="891.1504"/><ellipse cx="970.4711" cy="902.3504" fill="#ADD1B2" rx="7.7" ry="7.7" style="stroke:#181818;stroke-width:0.6999999999999998;"/><path d="M970.5477,899.2223 Q969.9024,899.2223 969.3883,899.441 Q968.8852,899.6598 968.5352,900.0754 Q968.1852,900.4801 967.9883,901.0926 Q967.8024,901.7051 967.8024,902.4707 Q967.8024,903.4769 968.1086,904.2098 Q968.4258,904.9426 969.0165,905.3254 Q969.618,905.7082 970.5368,905.7082 Q971.0836,905.7082 971.5649,905.6207 Q972.0571,905.5223 972.7571,905.3035 L972.7571,906.616 Q972.1555,906.8457 971.6196,906.9332 Q971.0946,907.0207 970.3836,907.0207 Q969.0383,907.0207 968.1196,906.4629 Q967.2118,905.8941 966.7524,904.866 Q966.293,903.8269 966.293,902.4488 Q966.293,901.4535 966.5665,900.6332 Q966.8508,899.8019 967.3977,899.1894 Q967.9446,898.5769 968.743,898.2488 Q969.5415,897.9098 970.5696,897.9098 Q971.2368,897.9098 971.8602,898.0519 Q972.4946,898.1832 973.1508,898.5113 L972.5711,899.7582 Q972.0243,899.4957 971.5649,899.3644 Q971.1055,899.2223 970.5477,899.2223 Z " fill="#000000"/><text fill="#000000" font-family="sans-serif" font-size="9.8" lengthAdjust="spacing" textLength="47.3142" x="981.5152" y="906.1528">ClearError</text><line style="stroke:#181818;stroke-width:0.3499999999999999;" x1="955.073" x2="1035.8275" y1="913.5504" y2="913.5504"/><line style="stroke:#181818;stroke-width:0.3499999999999999;" x1="955.073" x2="1035.8275" y1="919.1504" y2="919.1504"/><ellipse cx="962.073" cy="929.6742" fill="#84BE84" rx="2.1" ry="2.1" style="stroke:#038048;stroke-width:0.6999999999999998;"/><text fill="#000000" font-family="sans-serif" font-size="9.8" lengthAdjust="spacing" textLength="63.9545" x="968.373" y="932.4265">void execute()</text></g><!--class Clear--><g id="elem_Clear"><rect codeLine="18" fill="#F1F1F1" height="46.9475" id="Clear" rx="1.75" ry="1.75" style="stroke:#181818;stroke-width:0.3499999999999999;" width="82.1545" x="954.373" y="819.7504"/><ellipse cx="981.0551" cy="830.9504" fill="#ADD1B2" rx="7.7" ry="7.7" style="stroke:#181818;stroke-width:0.6999999999999998;"/><path d="M981.1317,827.8223 Q980.4864,827.8223 979.9723,828.041 Q979.4692,828.2598 979.1192,828.6754 Q978.7692,829.0801 978.5723,829.6926 Q978.3864,830.3051 978.3864,831.0707 Q978.3864,832.0769 978.6926,832.8098 Q979.0098,833.5426 979.6004,833.9254 Q980.202,834.3082 981.1207,834.3082 Q981.6676,834.3082 982.1489,834.2207 Q982.641,834.1223 983.341,833.9035 L983.341,835.216 Q982.7395,835.4457 982.2035,835.5332 Q981.6785,835.6207 980.9676,835.6207 Q979.6223,835.6207 978.7035,835.0629 Q977.7957,834.4941 977.3364,833.466 Q976.877,832.4269 976.877,831.0488 Q976.877,830.0535 977.1504,829.2332 Q977.4348,828.4019 977.9817,827.7894 Q978.5285,827.1769 979.327,826.8488 Q980.1254,826.5098 981.1535,826.5098 Q981.8207,826.5098 982.4442,826.6519 Q983.0785,826.7832 983.7348,827.1113 L983.1551,828.3582 Q982.6082,828.0957 982.1489,827.9644 Q981.6895,827.8223 981.1317,827.8223 Z " fill="#000000"/><text fill="#000000" font-family="sans-serif" font-size="9.8" lengthAdjust="spacing" textLength="23.7943" x="994.4511" y="834.7528">Clear</text><line style="stroke:#181818;stroke-width:0.3499999999999999;" x1="955.073" x2="1035.8275" y1="842.1504" y2="842.1504"/><line style="stroke:#181818;stroke-width:0.3499999999999999;" x1="955.073" x2="1035.8275" y1="847.7504" y2="847.7504"/><ellipse cx="962.073" cy="858.2742" fill="#84BE84" rx="2.1" ry="2.1" style="stroke:#038048;stroke-width:0.6999999999999998;"/><text fill="#000000" font-family="sans-serif" font-size="9.8" lengthAdjust="spacing" textLength="63.9545" x="968.373" y="861.0265">void execute()</text></g><!--class MemoryRecall--><g id="elem_MemoryRecall"><rect codeLine="22" fill="#F1F1F1" height="46.9475" id="MemoryRecall" rx="1.75" ry="1.75" style="stroke:#181818;stroke-width:0.3499999999999999;" width="87.8343" x="951.531" y="748.3504"/><ellipse cx="962.031" cy="759.5504" fill="#ADD1B2" rx="7.7" ry="7.7" style="stroke:#181818;stroke-width:0.6999999999999998;"/><path d="M962.1076,756.4223 Q961.4622,756.4223 960.9482,756.641 Q960.4451,756.8598 960.0951,757.2754 Q959.7451,757.6801 959.5482,758.2926 Q959.3622,758.9051 959.3622,759.6707 Q959.3622,760.6769 959.6685,761.4098 Q959.9857,762.1426 960.5763,762.5254 Q961.1779,762.9082 962.0966,762.9082 Q962.6435,762.9082 963.1247,762.8207 Q963.6169,762.7223 964.3169,762.5035 L964.3169,763.816 Q963.7154,764.0457 963.1794,764.1332 Q962.6544,764.2207 961.9435,764.2207 Q960.5982,764.2207 959.6794,763.6629 Q958.7716,763.0941 958.3122,762.066 Q957.8529,761.0269 957.8529,759.6488 Q957.8529,758.6535 958.1263,757.8332 Q958.4107,757.0019 958.9576,756.3894 Q959.5044,755.7769 960.3029,755.4488 Q961.1013,755.1098 962.1294,755.1098 Q962.7966,755.1098 963.4201,755.2519 Q964.0544,755.3832 964.7107,755.7113 L964.131,756.9582 Q963.5841,756.6957 963.1247,756.5644 Q962.6654,756.4223 962.1076,756.4223 Z " fill="#000000"/><text fill="#000000" font-family="sans-serif" font-size="9.8" lengthAdjust="spacing" textLength="65.4343" x="971.831" y="763.3528">MemoryRecall</text><line style="stroke:#181818;stroke-width:0.3499999999999999;" x1="952.231" x2="1038.6653" y1="770.7504" y2="770.7504"/><line style="stroke:#181818;stroke-width:0.3499999999999999;" x1="952.231" x2="1038.6653" y1="776.3504" y2="776.3504"/><ellipse cx="959.231" cy="786.8742" fill="#84BE84" rx="2.1" ry="2.1" style="stroke:#038048;stroke-width:0.6999999999999998;"/><text fill="#000000" font-family="sans-serif" font-size="9.8" lengthAdjust="spacing" textLength="63.9545" x="965.531" y="789.6265">void execute()</text></g><!--class MemoryStore--><g id="elem_MemoryStore"><rect codeLine="26" fill="#F1F1F1" height="46.9475" id="MemoryStore" rx="1.75" ry="1.75" style="stroke:#181818;stroke-width:0.3499999999999999;" width="85.3746" x="952.763" y="676.9504"/><ellipse cx="963.263" cy="688.1504" fill="#ADD1B2" rx="7.7" ry="7.7" style="stroke:#181818;stroke-width:0.6999999999999998;"/><path d="M963.3396,685.0223 Q962.6942,685.0223 962.1802,685.241 Q961.6771,685.4598 961.3271,685.8754 Q960.9771,686.2801 960.7802,686.8926 Q960.5942,687.5051 960.5942,688.2707 Q960.5942,689.2769 960.9005,690.0098 Q961.2177,690.7426 961.8083,691.1254 Q962.4099,691.5082 963.3286,691.5082 Q963.8755,691.5082 964.3567,691.4207 Q964.8489,691.3223 965.5489,691.1035 L965.5489,692.416 Q964.9474,692.6457 964.4114,692.7332 Q963.8864,692.8207 963.1755,692.8207 Q961.8302,692.8207 960.9114,692.2629 Q960.0036,691.6941 959.5442,690.666 Q959.0849,689.6269 959.0849,688.2488 Q959.0849,687.2535 959.3583,686.4332 Q959.6427,685.6019 960.1896,684.9894 Q960.7364,684.3769 961.5349,684.0488 Q962.3333,683.7098 963.3614,683.7098 Q964.0286,683.7098 964.6521,683.8519 Q965.2864,683.9832 965.9427,684.3113 L965.363,685.5582 Q964.8161,685.2957 964.3567,685.1644 Q963.8974,685.0223 963.3396,685.0223 Z " fill="#000000"/><text fill="#000000" font-family="sans-serif" font-size="9.8" lengthAdjust="spacing" textLength="62.9746" x="973.063" y="691.9528">MemoryStore</text><line style="stroke:#181818;stroke-width:0.3499999999999999;" x1="953.463" x2="1037.4376" y1="699.3504" y2="699.3504"/><line style="stroke:#181818;stroke-width:0.3499999999999999;" x1="953.463" x2="1037.4376" y1="704.9504" y2="704.9504"/><ellipse cx="960.463" cy="715.4742" fill="#84BE84" rx="2.1" ry="2.1" style="stroke:#038048;stroke-width:0.6999999999999998;"/><text fill="#000000" font-family="sans-serif" font-size="9.8" lengthAdjust="spacing" textLength="63.9545" x="966.763" y="718.2265">void execute()</text></g><!--class Digit--><g id="elem_Digit"><rect codeLine="30" fill="#F1F1F1" height="73.6426" id="Digit" rx="1.75" ry="1.75" style="stroke:#181818;stroke-width:0.3499999999999999;" width="82.1545" x="954.373" y="578.9014"/><ellipse cx="981.9636" cy="590.1014" fill="#ADD1B2" rx="7.7" ry="7.7" style="stroke:#181818;stroke-width:0.6999999999999998;"/><path d="M982.0401,586.9733 Q981.3948,586.9733 980.8807,587.192 Q980.3776,587.4108 980.0276,587.8264 Q979.6776,588.2311 979.4807,588.8436 Q979.2948,589.4561 979.2948,590.2217 Q979.2948,591.2279 979.6011,591.9608 Q979.9182,592.6936 980.5089,593.0764 Q981.1104,593.4592 982.0292,593.4592 Q982.5761,593.4592 983.0573,593.3717 Q983.5495,593.2733 984.2495,593.0545 L984.2495,594.367 Q983.6479,594.5967 983.112,594.6842 Q982.587,594.7717 981.8761,594.7717 Q980.5307,594.7717 979.612,594.2139 Q978.7042,593.6451 978.2448,592.617 Q977.7854,591.5779 977.7854,590.1998 Q977.7854,589.2045 978.0589,588.3842 Q978.3432,587.5529 978.8901,586.9404 Q979.437,586.3279 980.2354,585.9998 Q981.0339,585.6608 982.062,585.6608 Q982.7292,585.6608 983.3526,585.8029 Q983.987,585.9342 984.6432,586.2623 L984.0636,587.5092 Q983.5167,587.2467 983.0573,587.1154 Q982.5979,586.9733 982.0401,586.9733 Z " fill="#000000"/><text fill="#000000" font-family="sans-serif" font-size="9.8" lengthAdjust="spacing" textLength="21.7755" x="995.5615" y="593.9038">Digit</text><line style="stroke:#181818;stroke-width:0.3499999999999999;" x1="955.073" x2="1035.8275" y1="601.3014" y2="601.3014"/><rect fill="none" height="4.2" style="stroke:#C82930;stroke-width:0.6999999999999998;" width="4.2" x="959.973" y="609.7252"/><text fill="#000000" font-family="sans-serif" font-size="9.8" lengthAdjust="spacing" textLength="35.3191" x="968.373" y="614.5775">int digit</text><line style="stroke:#181818;stroke-width:0.3499999999999999;" x1="955.073" x2="1035.8275" y1="620.2489" y2="620.2489"/><ellipse cx="962.073" cy="630.7727" fill="#84BE84" rx="2.1" ry="2.1" style="stroke:#038048;stroke-width:0.6999999999999998;"/><text fill="#000000" font-family="sans-serif" font-size="9.8" lengthAdjust="spacing" textLength="62.9746" x="968.373" y="633.5251">Digit(int digit)</text><ellipse cx="962.073" cy="644.1202" fill="#84BE84" rx="2.1" ry="2.1" style="stroke:#038048;stroke-width:0.6999999999999998;"/><text fill="#000000" font-family="sans-serif" font-size="9.8" lengthAdjust="spacing" textLength="63.9545" x="968.373" y="646.8726">void execute()</text></g><!--class BinaryOperation--><g id="elem_BinaryOperation"><rect codeLine="36" fill="#F1F1F1" height="60.2951" id="BinaryOperation" rx="1.75" ry="1.75" style="stroke:#181818;stroke-width:0.3499999999999999;" width="249.0773" x="870.912" y="479.8724"/><ellipse cx="956.3775" cy="491.0724" fill="#A9DCDF" rx="7.7" ry="7.7" style="stroke:#181818;stroke-width:0.6999999999999998;"/><path d="M958.7181,494.7474 L957.69,492.1224 L954.5838,492.1224 L953.5775,494.7474 L952.09,494.7474 L955.5572,485.8443 L956.7822,485.8443 L960.2275,494.7474 L958.7181,494.7474 Z M956.3775,488.4802 Q956.3447,488.3708 956.2572,488.1193 Q956.1697,487.8677 956.0931,487.6052 Q956.0166,487.3318 956.1588,487.288 Q956.2681,487.4193 956.2025,487.6708 Q956.1369,487.9114 956.0713,488.1193 Q956.0056,488.3161 955.9509,488.4802 L955.0869,490.7989 L957.2416,490.7989 L956.3775,488.4802 Z " fill="#000000"/><text fill="#000000" font-family="sans-serif" font-size="9.8" font-style="italic" lengthAdjust="spacing" textLength="72.1963" x="970.7275" y="494.8748">BinaryOperation</text><line style="stroke:#181818;stroke-width:0.3499999999999999;" x1="871.612" x2="1119.2893" y1="502.2724" y2="502.2724"/><line style="stroke:#181818;stroke-width:0.3499999999999999;" x1="871.612" x2="1119.2893" y1="507.8724" y2="507.8724"/><ellipse cx="878.612" cy="518.3962" fill="#84BE84" rx="2.1" ry="2.1" style="stroke:#038048;stroke-width:0.6999999999999998;"/><text fill="#000000" font-family="sans-serif" font-size="9.8" lengthAdjust="spacing" textLength="63.9545" x="884.912" y="521.1485">void execute()</text><text fill="#000000" font-family="sans-serif" font-size="9.8" font-style="italic" lengthAdjust="spacing" textLength="230.8773" x="884.912" y="534.4961">double compute(double operand1, double operand2)</text></g><polygon fill="none" points="1119.9893,506.8921,1133.8619,501.6421,1134.108,511.439" style="stroke:#181818;stroke-width:0.6999999999999998;"/><line style="stroke:#181818;stroke-width:0.6999999999999998;" x1="1133.9849" x2="1134.749" y1="506.5406" y2="506.5214"/><line style="stroke:#181818;stroke-width:0.6999999999999998;" x1="870.912" x2="856.611" y1="532.5879" y2="535.1794"/><!--class ChangeSign--><g id="elem_ChangeSign"><rect codeLine="41" fill="#F1F1F1" height="46.9475" id="ChangeSign" rx="1.75" ry="1.75" style="stroke:#181818;stroke-width:0.3499999999999999;" width="82.1545" x="954.373" y="394.1504"/><ellipse cx="966.855" cy="405.3504" fill="#ADD1B2" rx="7.7" ry="7.7" style="stroke:#181818;stroke-width:0.6999999999999998;"/><path d="M966.9315,402.2223 Q966.2862,402.2223 965.7722,402.441 Q965.269,402.6598 964.919,403.0754 Q964.569,403.4801 964.3722,404.0926 Q964.1862,404.7051 964.1862,405.4707 Q964.1862,406.4769 964.4925,407.2098 Q964.8097,407.9426 965.4003,408.3254 Q966.0018,408.7082 966.9206,408.7082 Q967.4675,408.7082 967.9487,408.6207 Q968.4409,408.5223 969.1409,408.3035 L969.1409,409.616 Q968.5393,409.8457 968.0034,409.9332 Q967.4784,410.0207 966.7675,410.0207 Q965.4222,410.0207 964.5034,409.4629 Q963.5956,408.8941 963.1362,407.866 Q962.6768,406.8269 962.6768,405.4488 Q962.6768,404.4535 962.9503,403.6332 Q963.2347,402.8019 963.7815,402.1894 Q964.3284,401.5769 965.1268,401.2488 Q965.9253,400.9098 966.9534,400.9098 Q967.6206,400.9098 968.244,401.0519 Q968.8784,401.1832 969.5347,401.5113 L968.955,402.7582 Q968.4081,402.4957 967.9487,402.3644 Q967.4893,402.2223 966.9315,402.2223 Z " fill="#000000"/><text fill="#000000" font-family="sans-serif" font-size="9.8" lengthAdjust="spacing" textLength="55.3502" x="977.0954" y="409.1528">ChangeSign</text><line style="stroke:#181818;stroke-width:0.3499999999999999;" x1="955.073" x2="1035.8275" y1="416.5504" y2="416.5504"/><line style="stroke:#181818;stroke-width:0.3499999999999999;" x1="955.073" x2="1035.8275" y1="422.1504" y2="422.1504"/><ellipse cx="962.073" cy="432.6742" fill="#84BE84" rx="2.1" ry="2.1" style="stroke:#038048;stroke-width:0.6999999999999998;"/><text fill="#000000" font-family="sans-serif" font-size="9.8" lengthAdjust="spacing" textLength="63.9545" x="968.373" y="435.4265">void execute()</text></g><!--class AppendDot--><g id="elem_AppendDot"><rect codeLine="45" fill="#F1F1F1" height="46.9475" id="AppendDot" rx="1.75" ry="1.75" style="stroke:#181818;stroke-width:0.3499999999999999;" width="82.1545" x="954.373" y="322.7504"/><ellipse cx="968.1162" cy="333.9504" fill="#ADD1B2" rx="7.7" ry="7.7" style="stroke:#181818;stroke-width:0.6999999999999998;"/><path d="M968.1928,330.8223 Q967.5475,330.8223 967.0334,331.041 Q966.5303,331.2598 966.1803,331.6754 Q965.8303,332.0801 965.6334,332.6926 Q965.4475,333.3051 965.4475,334.0707 Q965.4475,335.0769 965.7537,335.8098 Q966.0709,336.5426 966.6615,336.9254 Q967.2631,337.3082 968.1818,337.3082 Q968.7287,337.3082 969.21,337.2207 Q969.7022,337.1223 970.4022,336.9035 L970.4022,338.216 Q969.8006,338.4457 969.2647,338.5332 Q968.7397,338.6207 968.0287,338.6207 Q966.6834,338.6207 965.7647,338.0629 Q964.8568,337.4941 964.3975,336.466 Q963.9381,335.4269 963.9381,334.0488 Q963.9381,333.0535 964.2115,332.2332 Q964.4959,331.4019 965.0428,330.7894 Q965.5897,330.1769 966.3881,329.8488 Q967.1865,329.5098 968.2147,329.5098 Q968.8818,329.5098 969.5053,329.6519 Q970.1397,329.7832 970.7959,330.1113 L970.2162,331.3582 Q969.6693,331.0957 969.21,330.9644 Q968.7506,330.8223 968.1928,330.8223 Z " fill="#000000"/><text fill="#000000" font-family="sans-serif" font-size="9.8" lengthAdjust="spacing" textLength="52.5474" x="978.6369" y="337.7528">AppendDot</text><line style="stroke:#181818;stroke-width:0.3499999999999999;" x1="955.073" x2="1035.8275" y1="345.1504" y2="345.1504"/><line style="stroke:#181818;stroke-width:0.3499999999999999;" x1="955.073" x2="1035.8275" y1="350.7504" y2="350.7504"/><ellipse cx="962.073" cy="361.2742" fill="#84BE84" rx="2.1" ry="2.1" style="stroke:#038048;stroke-width:0.6999999999999998;"/><text fill="#000000" font-family="sans-serif" font-size="9.8" lengthAdjust="spacing" textLength="63.9545" x="968.373" y="364.0265">void execute()</text></g><!--class Reciprocal--><g id="elem_Reciprocal"><rect codeLine="49" fill="#F1F1F1" height="46.9475" id="Reciprocal" rx="1.75" ry="1.75" style="stroke:#181818;stroke-width:0.3499999999999999;" width="82.1545" x="954.373" y="251.3504"/><ellipse cx="970.3477" cy="262.5504" fill="#ADD1B2" rx="7.7" ry="7.7" style="stroke:#181818;stroke-width:0.6999999999999998;"/><path d="M970.4242,259.4223 Q969.7789,259.4223 969.2649,259.641 Q968.7617,259.8598 968.4117,260.2754 Q968.0617,260.6801 967.8649,261.2926 Q967.6789,261.9051 967.6789,262.6707 Q967.6789,263.6769 967.9852,264.4098 Q968.3024,265.1426 968.893,265.5254 Q969.4945,265.9082 970.4133,265.9082 Q970.9602,265.9082 971.4414,265.8207 Q971.9336,265.7223 972.6336,265.5035 L972.6336,266.816 Q972.032,267.0457 971.4961,267.1332 Q970.9711,267.2207 970.2602,267.2207 Q968.9149,267.2207 967.9961,266.6629 Q967.0883,266.0941 966.6289,265.066 Q966.1695,264.0269 966.1695,262.6488 Q966.1695,261.6535 966.443,260.8332 Q966.7274,260.0019 967.2742,259.3894 Q967.8211,258.7769 968.6195,258.4488 Q969.418,258.1098 970.4461,258.1098 Q971.1133,258.1098 971.7367,258.2519 Q972.3711,258.3832 973.0274,258.7113 L972.4477,259.9582 Q971.9008,259.6957 971.4414,259.5644 Q970.982,259.4223 970.4242,259.4223 Z " fill="#000000"/><text fill="#000000" font-family="sans-serif" font-size="9.8" lengthAdjust="spacing" textLength="47.5886" x="981.3643" y="266.3528">Reciprocal</text><line style="stroke:#181818;stroke-width:0.3499999999999999;" x1="955.073" x2="1035.8275" y1="273.7504" y2="273.7504"/><line style="stroke:#181818;stroke-width:0.3499999999999999;" x1="955.073" x2="1035.8275" y1="279.3504" y2="279.3504"/><ellipse cx="962.073" cy="289.8742" fill="#84BE84" rx="2.1" ry="2.1" style="stroke:#038048;stroke-width:0.6999999999999998;"/><text fill="#000000" font-family="sans-serif" font-size="9.8" lengthAdjust="spacing" textLength="63.9545" x="968.373" y="292.6265">void execute()</text></g><!--class Square--><g id="elem_Square"><rect codeLine="53" fill="#F1F1F1" height="46.9475" id="Square" rx="1.75" ry="1.75" style="stroke:#181818;stroke-width:0.3499999999999999;" width="82.1545" x="954.373" y="179.9504"/><ellipse cx="977.1214" cy="191.1504" fill="#ADD1B2" rx="7.7" ry="7.7" style="stroke:#181818;stroke-width:0.6999999999999998;"/><path d="M977.198,188.0223 Q976.5526,188.0223 976.0386,188.241 Q975.5355,188.4598 975.1855,188.8754 Q974.8355,189.2801 974.6386,189.8926 Q974.4526,190.5051 974.4526,191.2707 Q974.4526,192.2769 974.7589,193.0098 Q975.0761,193.7426 975.6667,194.1254 Q976.2683,194.5082 977.187,194.5082 Q977.7339,194.5082 978.2151,194.4207 Q978.7073,194.3223 979.4073,194.1035 L979.4073,195.416 Q978.8058,195.6457 978.2698,195.7332 Q977.7448,195.8207 977.0339,195.8207 Q975.6886,195.8207 974.7698,195.2629 Q973.862,194.6941 973.4026,193.666 Q972.9433,192.6269 972.9433,191.2488 Q972.9433,190.2535 973.2167,189.4332 Q973.5011,188.6019 974.048,187.9894 Q974.5948,187.3769 975.3933,187.0488 Q976.1917,186.7098 977.2198,186.7098 Q977.887,186.7098 978.5105,186.8519 Q979.1448,186.9832 979.8011,187.3113 L979.2214,188.5582 Q978.6745,188.2957 978.2151,188.1644 Q977.7558,188.0223 977.198,188.0223 Z " fill="#000000"/><text fill="#000000" font-family="sans-serif" font-size="9.8" lengthAdjust="spacing" textLength="32.5359" x="989.6433" y="194.9528">Square</text><line style="stroke:#181818;stroke-width:0.3499999999999999;" x1="955.073" x2="1035.8275" y1="202.3504" y2="202.3504"/><line style="stroke:#181818;stroke-width:0.3499999999999999;" x1="955.073" x2="1035.8275" y1="207.9504" y2="207.9504"/><ellipse cx="962.073" cy="218.4742" fill="#84BE84" rx="2.1" ry="2.1" style="stroke:#038048;stroke-width:0.6999999999999998;"/><text fill="#000000" font-family="sans-serif" font-size="9.8" lengthAdjust="spacing" textLength="63.9545" x="968.373" y="221.2265">void execute()</text></g><!--class SquareRoot--><g id="elem_SquareRoot"><rect codeLine="57" fill="#F1F1F1" height="46.9475" id="SquareRoot" rx="1.75" ry="1.75" style="stroke:#181818;stroke-width:0.3499999999999999;" width="82.1545" x="954.373" y="108.5504"/><ellipse cx="967.4503" cy="119.7504" fill="#ADD1B2" rx="7.7" ry="7.7" style="stroke:#181818;stroke-width:0.6999999999999998;"/><path d="M967.5269,116.6223 Q966.8816,116.6223 966.3675,116.841 Q965.8644,117.0598 965.5144,117.4754 Q965.1644,117.8801 964.9675,118.4926 Q964.7816,119.1051 964.7816,119.8707 Q964.7816,120.8769 965.0878,121.6098 Q965.405,122.3426 965.9956,122.7254 Q966.5972,123.1082 967.5159,123.1082 Q968.0628,123.1082 968.5441,123.0207 Q969.0362,122.9223 969.7362,122.7035 L969.7362,124.016 Q969.1347,124.2457 968.5987,124.3332 Q968.0737,124.4207 967.3628,124.4207 Q966.0175,124.4207 965.0987,123.8629 Q964.1909,123.2941 963.7316,122.266 Q963.2722,121.2269 963.2722,119.8488 Q963.2722,118.8535 963.5456,118.0332 Q963.83,117.2019 964.3769,116.5894 Q964.9237,115.9769 965.7222,115.6488 Q966.5206,115.3098 967.5487,115.3098 Q968.2159,115.3098 968.8394,115.4519 Q969.4737,115.5832 970.13,115.9113 L969.5503,117.1582 Q969.0034,116.8957 968.5441,116.7644 Q968.0847,116.6223 967.5269,116.6223 Z " fill="#000000"/><text fill="#000000" font-family="sans-serif" font-size="9.8" lengthAdjust="spacing" textLength="54.0272" x="977.823" y="123.5528">SquareRoot</text><line style="stroke:#181818;stroke-width:0.3499999999999999;" x1="955.073" x2="1035.8275" y1="130.9504" y2="130.9504"/><line style="stroke:#181818;stroke-width:0.3499999999999999;" x1="955.073" x2="1035.8275" y1="136.5504" y2="136.5504"/><ellipse cx="962.073" cy="147.0742" fill="#84BE84" rx="2.1" ry="2.1" style="stroke:#038048;stroke-width:0.6999999999999998;"/><text fill="#000000" font-family="sans-serif" font-size="9.8" lengthAdjust="spacing" textLength="63.9545" x="968.373" y="149.8265">void execute()</text></g><!--class Addition--><g id="elem_Addition"><rect codeLine="61" fill="#F1F1F1" height="46.9475" id="Addition" rx="1.75" ry="1.75" style="stroke:#181818;stroke-width:0.3499999999999999;" width="263.5617" x="1183.105" y="585.9504"/><ellipse cx="1292.4628" cy="597.1504" fill="#ADD1B2" rx="7.7" ry="7.7" style="stroke:#181818;stroke-width:0.6999999999999998;"/><path d="M1292.5394,594.0223 Q1291.8941,594.0223 1291.38,594.241 Q1290.8769,594.4598 1290.5269,594.8754 Q1290.1769,595.2801 1289.98,595.8926 Q1289.7941,596.5051 1289.7941,597.2707 Q1289.7941,598.2769 1290.1003,599.0098 Q1290.4175,599.7426 1291.0081,600.1254 Q1291.6097,600.5082 1292.5284,600.5082 Q1293.0753,600.5082 1293.5566,600.4207 Q1294.0488,600.3223 1294.7488,600.1035 L1294.7488,601.416 Q1294.1472,601.6457 1293.6113,601.7332 Q1293.0863,601.8207 1292.3753,601.8207 Q1291.03,601.8207 1290.1113,601.2629 Q1289.2034,600.6941 1288.7441,599.666 Q1288.2847,598.6269 1288.2847,597.2488 Q1288.2847,596.2535 1288.5581,595.4332 Q1288.8425,594.6019 1289.3894,593.9894 Q1289.9363,593.3769 1290.7347,593.0488 Q1291.5331,592.7098 1292.5613,592.7098 Q1293.2284,592.7098 1293.8519,592.8519 Q1294.4863,592.9832 1295.1425,593.3113 L1294.5628,594.5582 Q1294.0159,594.2957 1293.5566,594.1644 Q1293.0972,594.0223 1292.5394,594.0223 Z " fill="#000000"/><text fill="#000000" font-family="sans-serif" font-size="9.8" lengthAdjust="spacing" textLength="38.8961" x="1306.8128" y="600.9528">Addition</text><line style="stroke:#181818;stroke-width:0.3499999999999999;" x1="1183.805" x2="1445.9667" y1="608.3504" y2="608.3504"/><line style="stroke:#181818;stroke-width:0.3499999999999999;" x1="1183.805" x2="1445.9667" y1="613.9504" y2="613.9504"/><ellipse cx="1190.805" cy="624.4742" fill="#84BE84" rx="2.1" ry="2.1" style="stroke:#038048;stroke-width:0.6999999999999998;"/><text fill="#000000" font-family="sans-serif" font-size="9.8" lengthAdjust="spacing" textLength="245.3617" x="1197.105" y="627.2265">double compute(double operand1, double operand2)</text></g><!--class Subtraction--><g id="elem_Subtraction"><rect codeLine="65" fill="#F1F1F1" height="46.9475" id="Subtraction" rx="1.75" ry="1.75" style="stroke:#181818;stroke-width:0.3499999999999999;" width="263.5617" x="1183.105" y="514.5504"/><ellipse cx="1285.2599" cy="525.7504" fill="#ADD1B2" rx="7.7" ry="7.7" style="stroke:#181818;stroke-width:0.6999999999999998;"/><path d="M1285.3364,522.6223 Q1284.6911,522.6223 1284.177,522.841 Q1283.6739,523.0598 1283.3239,523.4754 Q1282.9739,523.8801 1282.777,524.4926 Q1282.5911,525.1051 1282.5911,525.8707 Q1282.5911,526.8769 1282.8974,527.6098 Q1283.2145,528.3426 1283.8052,528.7254 Q1284.4067,529.1082 1285.3255,529.1082 Q1285.8724,529.1082 1286.3536,529.0207 Q1286.8458,528.9223 1287.5458,528.7035 L1287.5458,530.016 Q1286.9442,530.2457 1286.4083,530.3332 Q1285.8833,530.4207 1285.1724,530.4207 Q1283.827,530.4207 1282.9083,529.8629 Q1282.0005,529.2941 1281.5411,528.266 Q1281.0817,527.2269 1281.0817,525.8488 Q1281.0817,524.8535 1281.3552,524.0332 Q1281.6395,523.2019 1282.1864,522.5894 Q1282.7333,521.9769 1283.5317,521.6488 Q1284.3302,521.3098 1285.3583,521.3098 Q1286.0255,521.3098 1286.6489,521.4519 Q1287.2833,521.5832 1287.9395,521.9113 L1287.3599,523.1582 Q1286.813,522.8957 1286.3536,522.7644 Q1285.8942,522.6223 1285.3364,522.6223 Z " fill="#000000"/><text fill="#000000" font-family="sans-serif" font-size="9.8" lengthAdjust="spacing" textLength="53.302" x="1299.6099" y="529.5528">Subtraction</text><line style="stroke:#181818;stroke-width:0.3499999999999999;" x1="1183.805" x2="1445.9667" y1="536.9504" y2="536.9504"/><line style="stroke:#181818;stroke-width:0.3499999999999999;" x1="1183.805" x2="1445.9667" y1="542.5504" y2="542.5504"/><ellipse cx="1190.805" cy="553.0742" fill="#84BE84" rx="2.1" ry="2.1" style="stroke:#038048;stroke-width:0.6999999999999998;"/><text fill="#000000" font-family="sans-serif" font-size="9.8" lengthAdjust="spacing" textLength="245.3617" x="1197.105" y="555.8265">double compute(double operand1, double operand2)</text></g><!--class Multiplication--><g id="elem_Multiplication"><rect codeLine="69" fill="#F1F1F1" height="46.9475" id="Multiplication" rx="1.75" ry="1.75" style="stroke:#181818;stroke-width:0.3499999999999999;" width="263.5617" x="1183.105" y="443.1504"/><ellipse cx="1280.4726" cy="454.3504" fill="#ADD1B2" rx="7.7" ry="7.7" style="stroke:#181818;stroke-width:0.6999999999999998;"/><path d="M1280.5491,451.2223 Q1279.9038,451.2223 1279.3898,451.441 Q1278.8866,451.6598 1278.5366,452.0754 Q1278.1866,452.4801 1277.9898,453.0926 Q1277.8038,453.7051 1277.8038,454.4707 Q1277.8038,455.4769 1278.1101,456.2098 Q1278.4273,456.9426 1279.0179,457.3254 Q1279.6194,457.7082 1280.5382,457.7082 Q1281.0851,457.7082 1281.5663,457.6207 Q1282.0585,457.5223 1282.7585,457.3035 L1282.7585,458.616 Q1282.1569,458.8457 1281.621,458.9332 Q1281.096,459.0207 1280.3851,459.0207 Q1279.0398,459.0207 1278.121,458.4629 Q1277.2132,457.8941 1276.7538,456.866 Q1276.2944,455.8269 1276.2944,454.4488 Q1276.2944,453.4535 1276.5679,452.6332 Q1276.8523,451.8019 1277.3991,451.1894 Q1277.946,450.5769 1278.7444,450.2488 Q1279.5429,449.9098 1280.571,449.9098 Q1281.2382,449.9098 1281.8616,450.0519 Q1282.496,450.1832 1283.1523,450.5113 L1282.5726,451.7582 Q1282.0257,451.4957 1281.5663,451.3644 Q1281.1069,451.2223 1280.5491,451.2223 Z " fill="#000000"/><text fill="#000000" font-family="sans-serif" font-size="9.8" lengthAdjust="spacing" textLength="62.8766" x="1294.8226" y="458.1528">Multiplication</text><line style="stroke:#181818;stroke-width:0.3499999999999999;" x1="1183.805" x2="1445.9667" y1="465.5504" y2="465.5504"/><line style="stroke:#181818;stroke-width:0.3499999999999999;" x1="1183.805" x2="1445.9667" y1="471.1504" y2="471.1504"/><ellipse cx="1190.805" cy="481.6742" fill="#84BE84" rx="2.1" ry="2.1" style="stroke:#038048;stroke-width:0.6999999999999998;"/><text fill="#000000" font-family="sans-serif" font-size="9.8" lengthAdjust="spacing" textLength="245.3617" x="1197.105" y="484.4265">double compute(double operand1, double operand2)</text></g><!--class Division--><g id="elem_Division"><rect codeLine="73" fill="#F1F1F1" height="46.9475" id="Division" rx="1.75" ry="1.75" style="stroke:#181818;stroke-width:0.3499999999999999;" width="263.5617" x="1183.105" y="371.7504"/><ellipse cx="1293.7123" cy="382.9504" fill="#ADD1B2" rx="7.7" ry="7.7" style="stroke:#181818;stroke-width:0.6999999999999998;"/><path d="M1293.7889,379.8223 Q1293.1436,379.8223 1292.6295,380.041 Q1292.1264,380.2598 1291.7764,380.6754 Q1291.4264,381.0801 1291.2295,381.6926 Q1291.0436,382.3051 1291.0436,383.0707 Q1291.0436,384.0769 1291.3498,384.8098 Q1291.667,385.5426 1292.2576,385.9254 Q1292.8592,386.3082 1293.778,386.3082 Q1294.3248,386.3082 1294.8061,386.2207 Q1295.2983,386.1223 1295.9983,385.9035 L1295.9983,387.216 Q1295.3967,387.4457 1294.8608,387.5332 Q1294.3358,387.6207 1293.6248,387.6207 Q1292.2795,387.6207 1291.3608,387.0629 Q1290.453,386.4941 1289.9936,385.466 Q1289.5342,384.4269 1289.5342,383.0488 Q1289.5342,382.0535 1289.8076,381.2332 Q1290.092,380.4019 1290.6389,379.7894 Q1291.1858,379.1769 1291.9842,378.8488 Q1292.7826,378.5098 1293.8108,378.5098 Q1294.478,378.5098 1295.1014,378.6519 Q1295.7358,378.7832 1296.392,379.1113 L1295.8123,380.3582 Q1295.2655,380.0957 1294.8061,379.9644 Q1294.3467,379.8223 1293.7889,379.8223 Z " fill="#000000"/><text fill="#000000" font-family="sans-serif" font-size="9.8" lengthAdjust="spacing" textLength="36.3971" x="1308.0623" y="386.7528">Division</text><line style="stroke:#181818;stroke-width:0.3499999999999999;" x1="1183.805" x2="1445.9667" y1="394.1504" y2="394.1504"/><line style="stroke:#181818;stroke-width:0.3499999999999999;" x1="1183.805" x2="1445.9667" y1="399.7504" y2="399.7504"/><ellipse cx="1190.805" cy="410.2742" fill="#84BE84" rx="2.1" ry="2.1" style="stroke:#038048;stroke-width:0.6999999999999998;"/><text fill="#000000" font-family="sans-serif" font-size="9.8" lengthAdjust="spacing" textLength="245.3617" x="1197.105" y="413.0265">double compute(double operand1, double operand2)</text></g><!--class Enter--><g id="elem_Enter"><rect codeLine="77" fill="#F1F1F1" height="46.9475" id="Enter" rx="1.75" ry="1.75" style="stroke:#181818;stroke-width:0.3499999999999999;" width="82.1545" x="954.373" y="37.1504"/><ellipse cx="980.6847" cy="48.3504" fill="#ADD1B2" rx="7.7" ry="7.7" style="stroke:#181818;stroke-width:0.6999999999999998;"/><path d="M980.7612,45.2223 Q980.1159,45.2223 979.6019,45.441 Q979.0987,45.6598 978.7487,46.0754 Q978.3987,46.4801 978.2019,47.0926 Q978.0159,47.7051 978.0159,48.4707 Q978.0159,49.4769 978.3222,50.2098 Q978.6394,50.9426 979.23,51.3254 Q979.8315,51.7082 980.7503,51.7082 Q981.2972,51.7082 981.7784,51.6207 Q982.2706,51.5223 982.9706,51.3035 L982.9706,52.616 Q982.369,52.8457 981.8331,52.9332 Q981.3081,53.0207 980.5972,53.0207 Q979.2519,53.0207 978.3331,52.4629 Q977.4253,51.8941 976.9659,50.866 Q976.5065,49.8269 976.5065,48.4488 Q976.5065,47.4535 976.78,46.6332 Q977.0644,45.8019 977.6112,45.1894 Q978.1581,44.5769 978.9565,44.2488 Q979.755,43.9098 980.7831,43.9098 Q981.4503,43.9098 982.0737,44.0519 Q982.7081,44.1832 983.3644,44.5113 L982.7847,45.7582 Q982.2378,45.4957 981.7784,45.3644 Q981.319,45.2223 980.7612,45.2223 Z " fill="#000000"/><text fill="#000000" font-family="sans-serif" font-size="9.8" lengthAdjust="spacing" textLength="24.6175" x="993.9984" y="52.1528">Enter</text><line style="stroke:#181818;stroke-width:0.3499999999999999;" x1="955.073" x2="1035.8275" y1="59.5504" y2="59.5504"/><line style="stroke:#181818;stroke-width:0.3499999999999999;" x1="955.073" x2="1035.8275" y1="65.1504" y2="65.1504"/><ellipse cx="962.073" cy="75.6742" fill="#84BE84" rx="2.1" ry="2.1" style="stroke:#038048;stroke-width:0.6999999999999998;"/><text fill="#000000" font-family="sans-serif" font-size="9.8" lengthAdjust="spacing" textLength="63.9545" x="968.373" y="78.4265">void execute()</text></g><!--class State--><g id="elem_State"><rect codeLine="1" fill="#F1F1F1" height="500.764" id="State" rx="1.75" ry="1.75" style="stroke:#181818;stroke-width:0.3499999999999999;" width="289.9138" x="850.493" y="1257.8384"/><ellipse cx="980.7345" cy="1269.0384" fill="#ADD1B2" rx="7.7" ry="7.7" style="stroke:#181818;stroke-width:0.6999999999999998;"/><path d="M980.8111,1265.9103 Q980.1658,1265.9103 979.6517,1266.129 Q979.1486,1266.3478 978.7986,1266.7634 Q978.4486,1267.1681 978.2517,1267.7806 Q978.0658,1268.3931 978.0658,1269.1587 Q978.0658,1270.1649 978.372,1270.8978 Q978.6892,1271.6306 979.2799,1272.0134 Q979.8814,1272.3962 980.8002,1272.3962 Q981.347,1272.3962 981.8283,1272.3087 Q982.3205,1272.2103 983.0205,1271.9915 L983.0205,1273.304 Q982.4189,1273.5337 981.883,1273.6212 Q981.358,1273.7087 980.647,1273.7087 Q979.3017,1273.7087 978.383,1273.1509 Q977.4752,1272.5821 977.0158,1271.554 Q976.5564,1270.5149 976.5564,1269.1368 Q976.5564,1268.1415 976.8299,1267.3212 Q977.1142,1266.4899 977.6611,1265.8774 Q978.208,1265.2649 979.0064,1264.9368 Q979.8049,1264.5978 980.833,1264.5978 Q981.5002,1264.5978 982.1236,1264.7399 Q982.758,1264.8712 983.4142,1265.1993 L982.8345,1266.4462 Q982.2877,1266.1837 981.8283,1266.0524 Q981.3689,1265.9103 980.8111,1265.9103 Z " fill="#000000"/><text fill="#000000" font-family="sans-serif" font-size="9.8" lengthAdjust="spacing" textLength="23.4807" x="995.0845" y="1272.8408">State</text><line style="stroke:#181818;stroke-width:0.3499999999999999;" x1="851.193" x2="1139.7068" y1="1280.2384" y2="1280.2384"/><rect fill="none" height="4.2" style="stroke:#C82930;stroke-width:0.6999999999999998;" width="4.2" x="856.093" y="1288.6622"/><text fill="#000000" font-family="sans-serif" font-size="9.8" lengthAdjust="spacing" textLength="73.4115" x="864.493" y="1293.5145">String value = ""</text><rect fill="none" height="4.2" style="stroke:#C82930;stroke-width:0.6999999999999998;" width="4.2" x="856.093" y="1302.0097"/><text fill="#000000" font-family="sans-serif" font-size="9.8" lengthAdjust="spacing" textLength="93.2564" x="864.493" y="1306.8621">String memory = "0"</text><rect fill="none" height="4.2" style="stroke:#C82930;stroke-width:0.6999999999999998;" width="4.2" x="856.093" y="1315.3572"/><text fill="#000000" font-family="sans-serif" font-size="9.8" lengthAdjust="spacing" textLength="72.4217" x="864.493" y="1320.2096">String error = ""</text><rect fill="none" height="4.2" style="stroke:#C82930;stroke-width:0.6999999999999998;" width="4.2" x="856.093" y="1328.7048"/><text fill="#000000" font-family="sans-serif" font-size="9.8" lengthAdjust="spacing" textLength="112.1312" x="864.493" y="1333.5572">boolean hasError = false</text><rect fill="none" height="4.2" style="stroke:#C82930;stroke-width:0.6999999999999998;" width="4.2" x="856.093" y="1342.0523"/><text fill="#000000" font-family="sans-serif" font-size="9.8" lengthAdjust="spacing" textLength="115.1986" x="864.493" y="1346.9047">boolean isMutable = true</text><rect fill="none" height="4.2" style="stroke:#C82930;stroke-width:0.6999999999999998;" width="4.2" x="856.093" y="1355.3999"/><text fill="#000000" font-family="sans-serif" font-size="9.8" lengthAdjust="spacing" textLength="95.6672" x="864.493" y="1360.2523">double operand1 = 0</text><rect fill="none" height="4.2" style="stroke:#C82930;stroke-width:0.6999999999999998;" width="4.2" x="856.093" y="1368.7474"/><text fill="#000000" font-family="sans-serif" font-size="9.8" lengthAdjust="spacing" textLength="148.93" x="864.493" y="1373.5998">Operator currentOperator = null</text><rect fill="none" height="4.2" style="stroke:#C82930;stroke-width:0.6999999999999998;" width="4.2" x="856.093" y="1382.095"/><text fill="#000000" font-family="sans-serif" font-size="9.8" lengthAdjust="spacing" textLength="183.8375" x="864.493" y="1386.9473">boolean waitingForNextOperand = false</text><rect fill="none" height="4.2" style="stroke:#C82930;stroke-width:0.6999999999999998;" width="4.2" x="856.093" y="1395.4425"/><text fill="#000000" font-family="sans-serif" font-size="9.8" lengthAdjust="spacing" textLength="166.6288" x="864.493" y="1400.2949">boolean clearedOnNextInput = false</text><line style="stroke:#181818;stroke-width:0.3499999999999999;" x1="851.193" x2="1139.7068" y1="1405.9663" y2="1405.9663"/><ellipse cx="858.193" cy="1416.49" fill="#84BE84" rx="2.1" ry="2.1" style="stroke:#038048;stroke-width:0.6999999999999998;"/><text fill="#000000" font-family="sans-serif" font-size="9.8" lengthAdjust="spacing" textLength="29.3607" x="864.493" y="1419.2424">State()</text><ellipse cx="858.193" cy="1429.8376" fill="#84BE84" rx="2.1" ry="2.1" style="stroke:#038048;stroke-width:0.6999999999999998;"/><text fill="#000000" font-family="sans-serif" font-size="9.8" lengthAdjust="spacing" textLength="128.7323" x="864.493" y="1432.59">static State getState() : State</text><ellipse cx="858.193" cy="1443.1851" fill="#84BE84" rx="2.1" ry="2.1" style="stroke:#038048;stroke-width:0.6999999999999998;"/><text fill="#000000" font-family="sans-serif" font-size="9.8" lengthAdjust="spacing" textLength="73.7153" x="864.493" y="1445.9375">void clearError()</text><ellipse cx="858.193" cy="1456.5327" fill="#84BE84" rx="2.1" ry="2.1" style="stroke:#038048;stroke-width:0.6999999999999998;"/><text fill="#000000" font-family="sans-serif" font-size="9.8" lengthAdjust="spacing" textLength="108.3974" x="864.493" y="1459.285">void appendValue(int x)</text><ellipse cx="858.193" cy="1469.8802" fill="#84BE84" rx="2.1" ry="2.1" style="stroke:#038048;stroke-width:0.6999999999999998;"/><text fill="#000000" font-family="sans-serif" font-size="9.8" lengthAdjust="spacing" textLength="79.6737" x="864.493" y="1472.6326">void appendDot()</text><ellipse cx="858.193" cy="1483.2277" fill="#84BE84" rx="2.1" ry="2.1" style="stroke:#038048;stroke-width:0.6999999999999998;"/><text fill="#000000" font-family="sans-serif" font-size="9.8" lengthAdjust="spacing" textLength="142.1877" x="864.493" y="1485.9801">void prepareForNextOperand()</text><ellipse cx="858.193" cy="1496.5753" fill="#84BE84" rx="2.1" ry="2.1" style="stroke:#038048;stroke-width:0.6999999999999998;"/><text fill="#000000" font-family="sans-serif" font-size="9.8" lengthAdjust="spacing" textLength="81.7513" x="864.493" y="1499.3277">void changeSign()</text><ellipse cx="858.193" cy="1509.9228" fill="#84BE84" rx="2.1" ry="2.1" style="stroke:#038048;stroke-width:0.6999999999999998;"/><text fill="#000000" font-family="sans-serif" font-size="9.8" lengthAdjust="spacing" textLength="73.4311" x="864.493" y="1512.6752">void reciprocal()</text><ellipse cx="858.193" cy="1523.2704" fill="#84BE84" rx="2.1" ry="2.1" style="stroke:#038048;stroke-width:0.6999999999999998;"/><text fill="#000000" font-family="sans-serif" font-size="9.8" lengthAdjust="spacing" textLength="59.7406" x="864.493" y="1526.0228">void square()</text><ellipse cx="858.193" cy="1536.6179" fill="#84BE84" rx="2.1" ry="2.1" style="stroke:#038048;stroke-width:0.6999999999999998;"/><text fill="#000000" font-family="sans-serif" font-size="9.8" lengthAdjust="spacing" textLength="81.2319" x="864.493" y="1539.3703">void squareRoot()</text><ellipse cx="858.193" cy="1549.9655" fill="#84BE84" rx="2.1" ry="2.1" style="stroke:#038048;stroke-width:0.6999999999999998;"/><text fill="#000000" font-family="sans-serif" font-size="9.8" lengthAdjust="spacing" textLength="86.3279" x="864.493" y="1552.7178">void delLastValue()</text><ellipse cx="858.193" cy="1563.313" fill="#84BE84" rx="2.1" ry="2.1" style="stroke:#038048;stroke-width:0.6999999999999998;"/><text fill="#000000" font-family="sans-serif" font-size="9.8" lengthAdjust="spacing" textLength="77.1159" x="864.493" y="1566.0654">void storeValue()</text><ellipse cx="858.193" cy="1576.6605" fill="#84BE84" rx="2.1" ry="2.1" style="stroke:#038048;stroke-width:0.6999999999999998;"/><text fill="#000000" font-family="sans-serif" font-size="9.8" lengthAdjust="spacing" textLength="78.2135" x="864.493" y="1579.4129">void recallValue()</text><ellipse cx="858.193" cy="1590.0081" fill="#84BE84" rx="2.1" ry="2.1" style="stroke:#038048;stroke-width:0.6999999999999998;"/><text fill="#000000" font-family="sans-serif" font-size="9.8" lengthAdjust="spacing" textLength="139.4633" x="864.493" y="1592.7605">String getValueString() : String</text><ellipse cx="858.193" cy="1603.3556" fill="#84BE84" rx="2.1" ry="2.1" style="stroke:#038048;stroke-width:0.6999999999999998;"/><text fill="#000000" font-family="sans-serif" font-size="9.8" lengthAdjust="spacing" textLength="124.9495" x="864.493" y="1606.108">String getMemory() : String</text><ellipse cx="858.193" cy="1616.7032" fill="#84BE84" rx="2.1" ry="2.1" style="stroke:#038048;stroke-width:0.6999999999999998;"/><text fill="#000000" font-family="sans-serif" font-size="9.8" lengthAdjust="spacing" textLength="104.9282" x="864.493" y="1619.4555">double value() : double</text><ellipse cx="858.193" cy="1630.0507" fill="#84BE84" rx="2.1" ry="2.1" style="stroke:#038048;stroke-width:0.6999999999999998;"/><text fill="#000000" font-family="sans-serif" font-size="9.8" lengthAdjust="spacing" textLength="106.9666" x="864.493" y="1632.8031">void setValue(double x)</text><rect fill="#F24D5C" height="4.2" style="stroke:#C82930;stroke-width:0.6999999999999998;" width="4.2" x="856.093" y="1641.2982"/><text fill="#000000" font-family="sans-serif" font-size="9.8" lengthAdjust="spacing" textLength="168.1674" x="864.493" y="1646.1506">String formatValue(double x) : String</text><ellipse cx="858.193" cy="1656.7458" fill="#84BE84" rx="2.1" ry="2.1" style="stroke:#038048;stroke-width:0.6999999999999998;"/><text fill="#000000" font-family="sans-serif" font-size="9.8" lengthAdjust="spacing" textLength="159.7492" x="864.493" y="1659.4982">void setError(String errorMessage)</text><ellipse cx="858.193" cy="1670.0933" fill="#84BE84" rx="2.1" ry="2.1" style="stroke:#038048;stroke-width:0.6999999999999998;"/><text fill="#000000" font-family="sans-serif" font-size="9.8" lengthAdjust="spacing" textLength="167.452" x="864.493" y="1672.8457">void setOperand1(double operand1)</text><ellipse cx="858.193" cy="1683.4409" fill="#84BE84" rx="2.1" ry="2.1" style="stroke:#038048;stroke-width:0.6999999999999998;"/><text fill="#000000" font-family="sans-serif" font-size="9.8" lengthAdjust="spacing" textLength="141.8741" x="864.493" y="1686.1933">double getOperand1() : double</text><ellipse cx="858.193" cy="1696.7884" fill="#84BE84" rx="2.1" ry="2.1" style="stroke:#038048;stroke-width:0.6999999999999998;"/><text fill="#000000" font-family="sans-serif" font-size="9.8" lengthAdjust="spacing" textLength="204.7409" x="864.493" y="1699.5408">void setCurrentOperator(Operator operator)</text><ellipse cx="858.193" cy="1710.136" fill="#84BE84" rx="2.1" ry="2.1" style="stroke:#038048;stroke-width:0.6999999999999998;"/><text fill="#000000" font-family="sans-serif" font-size="9.8" lengthAdjust="spacing" textLength="193.5101" x="864.493" y="1712.8883">Operator getCurrentOperator() : Operator</text><ellipse cx="858.193" cy="1723.4835" fill="#84BE84" rx="2.1" ry="2.1" style="stroke:#038048;stroke-width:0.6999999999999998;"/><text fill="#000000" font-family="sans-serif" font-size="9.8" lengthAdjust="spacing" textLength="211.248" x="864.493" y="1726.2359">boolean isWaitingForNextOperand() : boolean</text><ellipse cx="858.193" cy="1736.831" fill="#84BE84" rx="2.1" ry="2.1" style="stroke:#038048;stroke-width:0.6999999999999998;"/><text fill="#000000" font-family="sans-serif" font-size="9.8" lengthAdjust="spacing" textLength="228.4567" x="864.493" y="1739.5834">void setWaitingForNextOperand(boolean waiting)</text><ellipse cx="858.193" cy="1750.1786" fill="#84BE84" rx="2.1" ry="2.1" style="stroke:#038048;stroke-width:0.6999999999999998;"/><text fill="#000000" font-family="sans-serif" font-size="9.8" lengthAdjust="spacing" textLength="271.7138" x="864.493" y="1752.931">void setClearedOnNextInput(boolean clearedOnNextInput)</text></g><!--class JCalculator--><g id="elem_JCalculator"><rect codeLine="2" fill="#F1F1F1" height="127.0328" id="JCalculator" rx="1.75" ry="1.75" style="stroke:#181818;stroke-width:0.3499999999999999;" width="405.4162" x="4.9" y="1194.1034"/><ellipse cx="180.0352" cy="1205.3034" fill="#ADD1B2" rx="7.7" ry="7.7" style="stroke:#181818;stroke-width:0.6999999999999998;"/><path d="M180.1117,1202.1753 Q179.4664,1202.1753 178.9524,1202.394 Q178.4492,1202.6128 178.0992,1203.0284 Q177.7492,1203.4331 177.5524,1204.0456 Q177.3664,1204.6581 177.3664,1205.4237 Q177.3664,1206.4299 177.6727,1207.1628 Q177.9899,1207.8956 178.5805,1208.2784 Q179.1821,1208.6612 180.1008,1208.6612 Q180.6477,1208.6612 181.1289,1208.5737 Q181.6211,1208.4753 182.3211,1208.2565 L182.3211,1209.569 Q181.7196,1209.7987 181.1836,1209.8862 Q180.6586,1209.9737 179.9477,1209.9737 Q178.6024,1209.9737 177.6836,1209.4159 Q176.7758,1208.8471 176.3164,1207.819 Q175.8571,1206.7799 175.8571,1205.4018 Q175.8571,1204.4065 176.1305,1203.5862 Q176.4149,1202.7549 176.9617,1202.1424 Q177.5086,1201.5299 178.3071,1201.2018 Q179.1055,1200.8628 180.1336,1200.8628 Q180.8008,1200.8628 181.4242,1201.0049 Q182.0586,1201.1362 182.7149,1201.4643 L182.1352,1202.7112 Q181.5883,1202.4487 181.1289,1202.3174 Q180.6696,1202.1753 180.1117,1202.1753 Z " fill="#000000"/><text fill="#000000" font-family="sans-serif" font-size="9.8" lengthAdjust="spacing" textLength="49.1958" x="194.3852" y="1209.1058">JCalculator</text><line style="stroke:#181818;stroke-width:0.3499999999999999;" x1="5.6" x2="409.6162" y1="1216.5034" y2="1216.5034"/><rect fill="none" height="4.2" style="stroke:#C82930;stroke-width:0.6999999999999998;" width="4.2" x="10.5" y="1224.9272"/><text fill="#000000" font-family="sans-serif" font-size="9.8" lengthAdjust="spacing" textLength="68.4527" x="18.9" y="1229.7795">empty: String[]</text><rect fill="none" height="4.2" style="stroke:#C82930;stroke-width:0.6999999999999998;" width="4.2" x="10.5" y="1238.2747"/><text fill="#000000" font-family="sans-serif" font-size="9.8" lengthAdjust="spacing" textLength="90.0421" x="18.9" y="1243.1271">jNumber: JTextField</text><rect fill="none" height="4.2" style="stroke:#C82930;stroke-width:0.6999999999999998;" width="4.2" x="10.5" y="1251.6222"/><text fill="#000000" font-family="sans-serif" font-size="9.8" lengthAdjust="spacing" textLength="50.6266" x="18.9" y="1256.4746">jStack: JList</text><rect fill="none" height="4.2" style="stroke:#C82930;stroke-width:0.6999999999999998;" width="4.2" x="10.5" y="1264.9698"/><text fill="#000000" font-family="sans-serif" font-size="9.8" lengthAdjust="spacing" textLength="146.8623" x="18.9" y="1269.8222">constraints: GridBagConstraints</text><line style="stroke:#181818;stroke-width:0.3499999999999999;" x1="5.6" x2="409.6162" y1="1275.4936" y2="1275.4936"/><ellipse cx="12.6" cy="1286.0173" fill="#84BE84" rx="2.1" ry="2.1" style="stroke:#038048;stroke-width:0.6999999999999998;"/><text fill="#000000" font-family="sans-serif" font-size="9.8" lengthAdjust="spacing" textLength="55.0758" x="18.9" y="1288.7697">JCalculator()</text><ellipse cx="12.6" cy="1299.3649" fill="#84BE84" rx="2.1" ry="2.1" style="stroke:#038048;stroke-width:0.6999999999999998;"/><text fill="#000000" font-family="sans-serif" font-size="9.8" lengthAdjust="spacing" textLength="63.1902" x="18.9" y="1302.1173">update(): void</text><ellipse cx="12.6" cy="1312.7124" fill="#84BE84" rx="2.1" ry="2.1" style="stroke:#038048;stroke-width:0.6999999999999998;"/><text fill="#000000" font-family="sans-serif" font-size="9.8" lengthAdjust="spacing" textLength="387.2162" x="18.9" y="1315.4648">addOperatorButton(name: String, x: int, y: int, color: Color, operator: Operator): void</text></g><!--class JButton--><g id="elem_JButton"><rect fill="#F1F1F1" height="33.6" id="JButton" rx="1.75" ry="1.75" style="stroke:#181818;stroke-width:0.3499999999999999;" width="56.5627" x="605.276" y="1051.1214"/><ellipse cx="615.776" cy="1062.3214" fill="#ADD1B2" rx="7.7" ry="7.7" style="stroke:#181818;stroke-width:0.6999999999999998;"/><path d="M615.8526,1059.1933 Q615.2072,1059.1933 614.6932,1059.412 Q614.1901,1059.6308 613.8401,1060.0464 Q613.4901,1060.4511 613.2932,1061.0636 Q613.1072,1061.6761 613.1072,1062.4417 Q613.1072,1063.4479 613.4135,1064.1808 Q613.7307,1064.9136 614.3213,1065.2964 Q614.9229,1065.6792 615.8416,1065.6792 Q616.3885,1065.6792 616.8697,1065.5917 Q617.3619,1065.4933 618.0619,1065.2745 L618.0619,1066.587 Q617.4604,1066.8167 616.9244,1066.9042 Q616.3994,1066.9917 615.6885,1066.9917 Q614.3432,1066.9917 613.4244,1066.4339 Q612.5166,1065.8651 612.0572,1064.837 Q611.5979,1063.7979 611.5979,1062.4198 Q611.5979,1061.4245 611.8713,1060.6042 Q612.1557,1059.7729 612.7026,1059.1604 Q613.2494,1058.5479 614.0479,1058.2198 Q614.8463,1057.8808 615.8744,1057.8808 Q616.5416,1057.8808 617.1651,1058.0229 Q617.7994,1058.1542 618.4557,1058.4823 L617.876,1059.7292 Q617.3291,1059.4667 616.8697,1059.3354 Q616.4104,1059.1933 615.8526,1059.1933 Z " fill="#000000"/><text fill="#000000" font-family="sans-serif" font-size="9.8" lengthAdjust="spacing" textLength="34.1627" x="625.576" y="1066.1238">JButton</text><line style="stroke:#181818;stroke-width:0.3499999999999999;" x1="605.976" x2="661.1387" y1="1073.5214" y2="1073.5214"/><line style="stroke:#181818;stroke-width:0.3499999999999999;" x1="605.976" x2="661.1387" y1="1079.1214" y2="1079.1214"/></g><!--class JTextField--><g id="elem_JTextField"><rect codeLine="19" fill="#F1F1F1" height="86.9902" id="JTextField" rx="1.75" ry="1.75" style="stroke:#181818;stroke-width:0.3499999999999999;" width="222.3038" x="522.403" y="1109.1304"/><ellipse cx="608.5447" cy="1120.3304" fill="#ADD1B2" rx="7.7" ry="7.7" style="stroke:#181818;stroke-width:0.6999999999999998;"/><path d="M608.6213,1117.2023 Q607.9759,1117.2023 607.4619,1117.421 Q606.9588,1117.6398 606.6088,1118.0554 Q606.2588,1118.4601 606.0619,1119.0726 Q605.8759,1119.6851 605.8759,1120.4507 Q605.8759,1121.4569 606.1822,1122.1898 Q606.4994,1122.9226 607.09,1123.3054 Q607.6916,1123.6882 608.6103,1123.6882 Q609.1572,1123.6882 609.6384,1123.6007 Q610.1306,1123.5023 610.8306,1123.2835 L610.8306,1124.596 Q610.2291,1124.8257 609.6931,1124.9132 Q609.1681,1125.0007 608.4572,1125.0007 Q607.1119,1125.0007 606.1931,1124.4429 Q605.2853,1123.8741 604.8259,1122.846 Q604.3666,1121.8069 604.3666,1120.4288 Q604.3666,1119.4335 604.64,1118.6132 Q604.9244,1117.7819 605.4713,1117.1694 Q606.0181,1116.5569 606.8166,1116.2288 Q607.615,1115.8898 608.6431,1115.8898 Q609.3103,1115.8898 609.9338,1116.0319 Q610.5681,1116.1632 611.2244,1116.4913 L610.6447,1117.7382 Q610.0978,1117.4757 609.6384,1117.3444 Q609.1791,1117.2023 608.6213,1117.2023 Z " fill="#000000"/><text fill="#000000" font-family="sans-serif" font-size="9.8" lengthAdjust="spacing" textLength="44.0704" x="622.8947" y="1124.1328">JTextField</text><line style="stroke:#181818;stroke-width:0.3499999999999999;" x1="523.103" x2="744.0068" y1="1131.5304" y2="1131.5304"/><line style="stroke:#181818;stroke-width:0.3499999999999999;" x1="523.103" x2="744.0068" y1="1137.1304" y2="1137.1304"/><ellipse cx="530.103" cy="1147.6542" fill="#84BE84" rx="2.1" ry="2.1" style="stroke:#038048;stroke-width:0.6999999999999998;"/><text fill="#000000" font-family="sans-serif" font-size="9.8" lengthAdjust="spacing" textLength="114.5126" x="536.403" y="1150.4065">setText(text: String): void</text><ellipse cx="530.103" cy="1161.0017" fill="#84BE84" rx="2.1" ry="2.1" style="stroke:#038048;stroke-width:0.6999999999999998;"/><text fill="#000000" font-family="sans-serif" font-size="9.8" lengthAdjust="spacing" textLength="161.2682" x="536.403" y="1163.7541">setEditable(editable: boolean): void</text><ellipse cx="530.103" cy="1174.3492" fill="#84BE84" rx="2.1" ry="2.1" style="stroke:#038048;stroke-width:0.6999999999999998;"/><text fill="#000000" font-family="sans-serif" font-size="9.8" lengthAdjust="spacing" textLength="153.1636" x="536.403" y="1177.1016">setBackground(color: Color): void</text><ellipse cx="530.103" cy="1187.6968" fill="#84BE84" rx="2.1" ry="2.1" style="stroke:#038048;stroke-width:0.6999999999999998;"/><text fill="#000000" font-family="sans-serif" font-size="9.8" lengthAdjust="spacing" textLength="204.1038" x="536.403" y="1190.4492">setHorizontalAlignment(alignment: int): void</text></g><!--class JList--><g id="elem_JList"><rect codeLine="26" fill="#F1F1F1" height="73.6426" id="JList" rx="1.75" ry="1.75" style="stroke:#181818;stroke-width:0.3499999999999999;" width="183.2705" x="541.919" y="1220.8014"/><ellipse cx="621.2938" cy="1232.0014" fill="#ADD1B2" rx="7.7" ry="7.7" style="stroke:#181818;stroke-width:0.6999999999999998;"/><path d="M621.3704,1228.8733 Q620.7251,1228.8733 620.211,1229.092 Q619.7079,1229.3108 619.3579,1229.7264 Q619.0079,1230.1311 618.811,1230.7436 Q618.6251,1231.3561 618.6251,1232.1217 Q618.6251,1233.1279 618.9313,1233.8608 Q619.2485,1234.5936 619.8391,1234.9764 Q620.4407,1235.3592 621.3594,1235.3592 Q621.9063,1235.3592 622.3876,1235.2717 Q622.8797,1235.1733 623.5797,1234.9545 L623.5797,1236.267 Q622.9782,1236.4967 622.4422,1236.5842 Q621.9172,1236.6717 621.2063,1236.6717 Q619.861,1236.6717 618.9422,1236.1139 Q618.0344,1235.5451 617.5751,1234.517 Q617.1157,1233.4779 617.1157,1232.0998 Q617.1157,1231.1045 617.3891,1230.2842 Q617.6735,1229.4529 618.2204,1228.8404 Q618.7672,1228.2279 619.5657,1227.8998 Q620.3641,1227.5608 621.3922,1227.5608 Q622.0594,1227.5608 622.6829,1227.7029 Q623.3172,1227.8342 623.9735,1228.1623 L623.3938,1229.4092 Q622.8469,1229.1467 622.3876,1229.0154 Q621.9282,1228.8733 621.3704,1228.8733 Z " fill="#000000"/><text fill="#000000" font-family="sans-serif" font-size="9.8" lengthAdjust="spacing" textLength="18.5709" x="635.6438" y="1235.8038">JList</text><line style="stroke:#181818;stroke-width:0.3499999999999999;" x1="542.619" x2="724.4895" y1="1243.2014" y2="1243.2014"/><line style="stroke:#181818;stroke-width:0.3499999999999999;" x1="542.619" x2="724.4895" y1="1248.8014" y2="1248.8014"/><ellipse cx="549.619" cy="1259.3252" fill="#84BE84" rx="2.1" ry="2.1" style="stroke:#038048;stroke-width:0.6999999999999998;"/><text fill="#000000" font-family="sans-serif" font-size="9.8" lengthAdjust="spacing" textLength="144.0203" x="555.919" y="1262.0775">setListData(data: Object[]): void</text><ellipse cx="549.619" cy="1272.6727" fill="#84BE84" rx="2.1" ry="2.1" style="stroke:#038048;stroke-width:0.6999999999999998;"/><text fill="#000000" font-family="sans-serif" font-size="9.8" lengthAdjust="spacing" textLength="109.5636" x="555.919" y="1275.4251">setFont(font: Font): void</text><ellipse cx="549.619" cy="1286.0202" fill="#84BE84" rx="2.1" ry="2.1" style="stroke:#038048;stroke-width:0.6999999999999998;"/><text fill="#000000" font-family="sans-serif" font-size="9.8" lengthAdjust="spacing" textLength="165.0705" x="555.919" y="1288.7726">setVisibleRowCount(count: int): void</text></g><!--class GridBagConstraints--><g id="elem_GridBagConstraints"><rect codeLine="32" fill="#F1F1F1" height="113.6853" id="GridBagConstraints" rx="1.75" ry="1.75" style="stroke:#181818;stroke-width:0.3499999999999999;" width="112.8047" x="577.15" y="1319.0814"/><ellipse cx="587.65" cy="1330.2814" fill="#ADD1B2" rx="7.7" ry="7.7" style="stroke:#181818;stroke-width:0.6999999999999998;"/><path d="M587.7266,1327.1533 Q587.0812,1327.1533 586.5672,1327.372 Q586.0641,1327.5908 585.7141,1328.0064 Q585.3641,1328.4111 585.1672,1329.0236 Q584.9812,1329.6361 584.9812,1330.4017 Q584.9812,1331.4079 585.2875,1332.1408 Q585.6047,1332.8736 586.1953,1333.2564 Q586.7969,1333.6392 587.7156,1333.6392 Q588.2625,1333.6392 588.7437,1333.5517 Q589.2359,1333.4533 589.9359,1333.2345 L589.9359,1334.547 Q589.3344,1334.7767 588.7984,1334.8642 Q588.2734,1334.9517 587.5625,1334.9517 Q586.2172,1334.9517 585.2984,1334.3939 Q584.3906,1333.8251 583.9312,1332.797 Q583.4719,1331.7579 583.4719,1330.3798 Q583.4719,1329.3845 583.7453,1328.5642 Q584.0297,1327.7329 584.5766,1327.1204 Q585.1234,1326.5079 585.9219,1326.1798 Q586.7203,1325.8408 587.7484,1325.8408 Q588.4156,1325.8408 589.0391,1325.9829 Q589.6734,1326.1142 590.3297,1326.4423 L589.75,1327.6892 Q589.2031,1327.4267 588.7437,1327.2954 Q588.2844,1327.1533 587.7266,1327.1533 Z " fill="#000000"/><text fill="#000000" font-family="sans-serif" font-size="9.8" lengthAdjust="spacing" textLength="90.4047" x="597.45" y="1334.0838">GridBagConstraints</text><line style="stroke:#181818;stroke-width:0.3499999999999999;" x1="577.85" x2="689.2547" y1="1341.4814" y2="1341.4814"/><ellipse cx="584.85" cy="1352.0052" fill="none" rx="2.1" ry="2.1" style="stroke:#038048;stroke-width:0.6999999999999998;"/><text fill="#000000" font-family="sans-serif" font-size="9.8" lengthAdjust="spacing" textLength="28.2533" x="591.15" y="1354.7575">fill: int</text><ellipse cx="584.85" cy="1365.3527" fill="none" rx="2.1" ry="2.1" style="stroke:#038048;stroke-width:0.6999999999999998;"/><text fill="#000000" font-family="sans-serif" font-size="9.8" lengthAdjust="spacing" textLength="41.1108" x="591.15" y="1368.1051">gridx: int</text><ellipse cx="584.85" cy="1378.7002" fill="none" rx="2.1" ry="2.1" style="stroke:#038048;stroke-width:0.6999999999999998;"/><text fill="#000000" font-family="sans-serif" font-size="9.8" lengthAdjust="spacing" textLength="40.9246" x="591.15" y="1381.4526">gridy: int</text><ellipse cx="584.85" cy="1392.0478" fill="none" rx="2.1" ry="2.1" style="stroke:#038048;stroke-width:0.6999999999999998;"/><text fill="#000000" font-family="sans-serif" font-size="9.8" lengthAdjust="spacing" textLength="61.779" x="591.15" y="1394.8002">gridwidth: int</text><ellipse cx="584.85" cy="1405.3953" fill="none" rx="2.1" ry="2.1" style="stroke:#038048;stroke-width:0.6999999999999998;"/><text fill="#000000" font-family="sans-serif" font-size="9.8" lengthAdjust="spacing" textLength="65.6597" x="591.15" y="1408.1477">gridheight: int</text><ellipse cx="584.85" cy="1418.7429" fill="none" rx="2.1" ry="2.1" style="stroke:#038048;stroke-width:0.6999999999999998;"/><text fill="#000000" font-family="sans-serif" font-size="9.8" lengthAdjust="spacing" textLength="60.0444" x="591.15" y="1421.4953">insets: Insets</text><line style="stroke:#181818;stroke-width:0.3499999999999999;" x1="577.85" x2="689.2547" y1="1427.1666" y2="1427.1666"/></g><!--class Operator--><g id="elem_Operator"><rect codeLine="41" fill="#F1F1F1" height="46.9475" id="Operator" rx="1.75" ry="1.75" style="stroke:#181818;stroke-width:0.3499999999999999;" width="84.7809" x="165.221" y="1122.8504"/><ellipse cx="185.8967" cy="1134.0504" fill="#A9DCDF" rx="7.7" ry="7.7" style="stroke:#181818;stroke-width:0.6999999999999998;"/><path d="M188.2373,1137.7254 L187.2092,1135.1004 L184.103,1135.1004 L183.0967,1137.7254 L181.6092,1137.7254 L185.0764,1128.8223 L186.3014,1128.8223 L189.7467,1137.7254 L188.2373,1137.7254 Z M185.8967,1131.4582 Q185.8639,1131.3488 185.7764,1131.0973 Q185.6889,1130.8457 185.6123,1130.5832 Q185.5358,1130.3098 185.678,1130.266 Q185.7873,1130.3973 185.7217,1130.6488 Q185.6561,1130.8894 185.5905,1131.0973 Q185.5248,1131.2941 185.4701,1131.4582 L184.6061,1133.7769 L186.7608,1133.7769 L185.8967,1131.4582 Z " fill="#000000"/><text fill="#000000" font-family="sans-serif" font-size="9.8" font-style="italic" lengthAdjust="spacing" textLength="39.7682" x="197.958" y="1137.8528">Operator</text><line style="stroke:#181818;stroke-width:0.3499999999999999;" x1="165.921" x2="249.3019" y1="1145.2504" y2="1145.2504"/><line style="stroke:#181818;stroke-width:0.3499999999999999;" x1="165.921" x2="249.3019" y1="1150.8504" y2="1150.8504"/><ellipse cx="172.921" cy="1161.3742" fill="#84BE84" rx="2.1" ry="2.1" style="stroke:#038048;stroke-width:0.6999999999999998;"/><text fill="#000000" font-family="sans-serif" font-size="9.8" lengthAdjust="spacing" textLength="66.5809" x="179.221" y="1164.1265">execute(): void</text></g><!--class JFrame--><g id="elem_JFrame"><rect fill="#F1F1F1" height="33.6" id="JFrame" rx="1.75" ry="1.75" style="stroke:#181818;stroke-width:0.3499999999999999;" width="54.3969" x="606.354" y="1457.1214"/><ellipse cx="616.854" cy="1468.3214" fill="#ADD1B2" rx="7.7" ry="7.7" style="stroke:#181818;stroke-width:0.6999999999999998;"/><path d="M616.9306,1465.1933 Q616.2852,1465.1933 615.7712,1465.412 Q615.2681,1465.6308 614.9181,1466.0464 Q614.5681,1466.4511 614.3712,1467.0636 Q614.1852,1467.6761 614.1852,1468.4417 Q614.1852,1469.4479 614.4915,1470.1808 Q614.8087,1470.9136 615.3993,1471.2964 Q616.0009,1471.6792 616.9196,1471.6792 Q617.4665,1471.6792 617.9477,1471.5917 Q618.4399,1471.4933 619.1399,1471.2745 L619.1399,1472.587 Q618.5384,1472.8167 618.0024,1472.9042 Q617.4774,1472.9917 616.7665,1472.9917 Q615.4212,1472.9917 614.5024,1472.4339 Q613.5946,1471.8651 613.1352,1470.837 Q612.6759,1469.7979 612.6759,1468.4198 Q612.6759,1467.4245 612.9493,1466.6042 Q613.2337,1465.7729 613.7806,1465.1604 Q614.3274,1464.5479 615.1259,1464.2198 Q615.9243,1463.8808 616.9524,1463.8808 Q617.6196,1463.8808 618.2431,1464.0229 Q618.8774,1464.1542 619.5337,1464.4823 L618.954,1465.7292 Q618.4071,1465.4667 617.9477,1465.3354 Q617.4884,1465.1933 616.9306,1465.1933 Z " fill="#000000"/><text fill="#000000" font-family="sans-serif" font-size="9.8" lengthAdjust="spacing" textLength="31.9969" x="626.654" y="1472.1238">JFrame</text><line style="stroke:#181818;stroke-width:0.3499999999999999;" x1="607.054" x2="660.0509" y1="1479.5214" y2="1479.5214"/><line style="stroke:#181818;stroke-width:0.3499999999999999;" x1="607.054" x2="660.0509" y1="1485.1214" y2="1485.1214"/></g><!--reverse link Operator to BackSpace--><g id="link_Operator_BackSpace"><path d="M767.956,551.3214 C767.956,551.3214 788.193,849.5214 788.193,849.5214 C788.193,849.5214 850.493,950.3214 850.493,950.3214 C850.493,950.3214 911.512,965.4204 954.184,975.9834 " fill="none" id="Operator-backto-BackSpace" style="stroke:#181818;stroke-width:0.6999999999999998;"/></g><!--reverse link Operator to ClearError--><g id="link_Operator_ClearError"><path d="M767.956,551.3214 C767.956,551.3214 788.193,778.8214 788.193,778.8214 C788.193,778.8214 850.493,878.9214 850.493,878.9214 C850.493,878.9214 911.512,894.0204 954.184,904.5834 " fill="none" id="Operator-backto-ClearError" style="stroke:#181818;stroke-width:0.6999999999999998;"/></g><!--reverse link Operator to Clear--><g id="link_Operator_Clear"><path d="M767.956,551.3214 C767.956,551.3214 788.193,708.1214 788.193,708.1214 C788.193,708.1214 850.493,807.5214 850.493,807.5214 C850.493,807.5214 911.512,822.6204 954.184,833.1834 " fill="none" id="Operator-backto-Clear" style="stroke:#181818;stroke-width:0.6999999999999998;"/></g><!--reverse link Operator to MemoryRecall--><g id="link_Operator_MemoryRecall"><path d="M767.956,551.3214 C767.956,551.3214 788.193,638.8214 788.193,638.8214 C788.193,638.8214 850.493,736.1214 850.493,736.1214 C850.493,736.1214 908.796,750.5484 951.272,761.0624 " fill="none" id="Operator-backto-MemoryRecall" style="stroke:#181818;stroke-width:0.6999999999999998;"/></g><!--reverse link Operator to MemoryStore--><g id="link_Operator_MemoryStore"><path d="M767.956,551.3214 C767.956,551.3214 850.493,664.7214 850.493,664.7214 C850.493,664.7214 909.874,679.4214 952.441,689.9494 " fill="none" id="Operator-backto-MemoryStore" style="stroke:#181818;stroke-width:0.6999999999999998;"/></g><!--reverse link Operator to Digit--><g id="link_Operator_Digit"><path d="M767.956,551.3214 C767.956,551.3214 888.972,585.6844 954.205,604.2064 " fill="none" id="Operator-backto-Digit" style="stroke:#181818;stroke-width:0.6999999999999998;"/></g><!--reverse link Operator to BinaryOperation--><g id="link_Operator_BinaryOperation"><path d="M767.956,551.3214 C767.956,551.3214 809.256,543.8034 856.611,535.1794 " fill="none" id="Operator-backto-BinaryOperation" style="stroke:#181818;stroke-width:0.6999999999999998;"/></g><!--reverse link Operator to ChangeSign--><g id="link_Operator_ChangeSign"><path d="M767.956,551.3214 C767.956,551.3214 850.493,453.3214 850.493,453.3214 C850.493,453.3214 911.512,438.2224 954.184,427.6594 " fill="none" id="Operator-backto-ChangeSign" style="stroke:#181818;stroke-width:0.6999999999999998;"/></g><!--reverse link Operator to AppendDot--><g id="link_Operator_AppendDot"><path d="M767.956,551.3214 C767.956,551.3214 788.193,498.1214 788.193,498.1214 C788.193,498.1214 850.493,381.9214 850.493,381.9214 C850.493,381.9214 911.512,366.8224 954.184,356.2594 " fill="none" id="Operator-backto-AppendDot" style="stroke:#181818;stroke-width:0.6999999999999998;"/></g><!--reverse link Operator to Reciprocal--><g id="link_Operator_Reciprocal"><path d="M767.956,551.3214 C767.956,551.3214 788.193,454.7214 788.193,454.7214 C788.193,454.7214 850.493,310.5214 850.493,310.5214 C850.493,310.5214 911.512,295.4224 954.184,284.8594 " fill="none" id="Operator-backto-Reciprocal" style="stroke:#181818;stroke-width:0.6999999999999998;"/></g><!--reverse link Operator to Square--><g id="link_Operator_Square"><path d="M767.956,551.3214 C767.956,551.3214 788.193,402.2214 788.193,402.2214 C788.193,402.2214 850.493,239.1214 850.493,239.1214 C850.493,239.1214 911.512,224.0224 954.184,213.4594 " fill="none" id="Operator-backto-Square" style="stroke:#181818;stroke-width:0.6999999999999998;"/></g><!--reverse link Operator to SquareRoot--><g id="link_Operator_SquareRoot"><path d="M767.956,551.3214 C767.956,551.3214 788.193,343.4214 788.193,343.4214 C788.193,343.4214 850.493,167.7214 850.493,167.7214 C850.493,167.7214 911.512,152.6224 954.184,142.0594 " fill="none" id="Operator-backto-SquareRoot" style="stroke:#181818;stroke-width:0.6999999999999998;"/></g><!--reverse link BinaryOperation to Addition--><g id="link_BinaryOperation_Addition"><path d="M1134.749,506.5214 C1134.749,506.5214 1183.105,573.7214 1183.105,573.7214 C1183.105,573.7214 1202.712,579.0624 1226.757,585.6074 " fill="none" id="BinaryOperation-backto-Addition" style="stroke:#181818;stroke-width:0.6999999999999998;"/></g><!--reverse link BinaryOperation to Subtraction--><g id="link_BinaryOperation_Subtraction"><path d="M1134.749,506.5214 C1134.749,506.5214 1155.476,510.1614 1182.839,514.9634 " fill="none" id="BinaryOperation-backto-Subtraction" style="stroke:#181818;stroke-width:0.6999999999999998;"/></g><!--reverse link BinaryOperation to Multiplication--><g id="link_BinaryOperation_Multiplication"><path d="M1134.749,506.5214 C1134.749,506.5214 1168.79,498.9544 1207.22,490.4074 " fill="none" id="BinaryOperation-backto-Multiplication" style="stroke:#181818;stroke-width:0.6999999999999998;"/></g><!--reverse link BinaryOperation to Division--><g id="link_BinaryOperation_Division"><path d="M1134.749,506.5214 C1134.749,506.5214 1183.105,430.9214 1183.105,430.9214 C1183.105,430.9214 1202.712,425.5804 1226.757,419.0354 " fill="none" id="BinaryOperation-backto-Division" style="stroke:#181818;stroke-width:0.6999999999999998;"/></g><!--reverse link Operator to Enter--><g id="link_Operator_Enter"><path d="M767.956,551.3214 C767.956,551.3214 788.193,280.4214 788.193,280.4214 C788.193,280.4214 850.493,96.3214 850.493,96.3214 C850.493,96.3214 911.512,81.2224 954.184,70.6594 " fill="none" id="Operator-backto-Enter" style="stroke:#181818;stroke-width:0.6999999999999998;"/></g><!--link Operators to State--><g id="link_Operators_State"><path codeLine="39" d="M696.9176,1032.2311 C697.1728,1032.254 697.4281,1032.2768 697.6835,1032.2997 C698.1941,1032.3454 698.7051,1032.3911 699.2161,1032.4369 C700.2382,1032.5284 701.2608,1032.6199 702.2829,1032.7114 C734.9895,1035.6391 767.193,1038.5214 767.193,1038.5214 C767.193,1038.5214 817.2527,1141.8557 871.4817,1253.7787 " fill="none" id="Operators-to-State" style="stroke:#181818;stroke-width:0.6999999999999998;"/><polygon fill="#181818" points="873.313,1257.5584,873.0858,1250.6679,871.7869,1254.4086,868.0462,1253.1097,873.313,1257.5584" style="stroke:#181818;stroke-width:0.6999999999999998;"/><text fill="#000000" font-family="sans-serif" font-size="9.1" lengthAdjust="spacing" textLength="40.2857" x="788.893" y="1083.9493">manipule</text></g><!--link JCalculator to Operator--><g id="link_JCalculator_Operator"><path codeLine="12" d="M378.749,1193.8374 C397.691,1186.7464 410.319,1182.0214 410.319,1182.0214 C410.319,1182.0214 471.919,609.4214 471.919,609.4214 C471.919,609.4214 479.0727,607.3345 495.5507,602.5325 " fill="none" id="JCalculator-to-Operator" style="stroke:#181818;stroke-width:0.6999999999999998;stroke-dasharray:7.0,7.0;"/><polygon fill="#181818" points="499.583,601.3574,492.7512,600.4318,496.2228,602.3366,494.318,605.8082,499.583,601.3574" style="stroke:#181818;stroke-width:0.6999999999999998;"/><text fill="#000000" font-family="sans-serif" font-size="9.1" lengthAdjust="spacing" textLength="19.474" x="439.369" y="666.7493">uses</text></g><!--link JCalculator to State--><g id="link_JCalculator_State"><path codeLine="13" d="M273.133,1321.3144 C351.183,1397.9994 471.919,1516.6214 471.919,1516.6214 C471.919,1516.6214 767.193,1516.6214 767.193,1516.6214 C767.193,1516.6214 801.0968,1515.3691 846.1138,1513.7101 " fill="none" id="JCalculator-to-State" style="stroke:#181818;stroke-width:0.6999999999999998;stroke-dasharray:7.0,7.0;"/><polygon fill="#181818" points="850.311,1513.5554,843.9122,1510.9893,846.8134,1513.6843,844.1184,1516.5855,850.311,1513.5554" style="stroke:#181818;stroke-width:0.6999999999999998;"/><text fill="#000000" font-family="sans-serif" font-size="9.1" lengthAdjust="spacing" textLength="19.474" x="624.106" y="1513.7493">uses</text></g><!--link JCalculator to JButton--><g id="link_JCalculator_JButton"><path codeLine="14" d="M378.749,1193.8374 C397.691,1186.7464 410.319,1182.0214 410.319,1182.0214 C410.319,1182.0214 471.919,1096.6214 471.919,1096.6214 C471.919,1096.6214 554.8082,1081.8395 600.8682,1073.6285 " fill="none" id="JCalculator-to-JButton" style="stroke:#181818;stroke-width:0.6999999999999998;stroke-dasharray:7.0,7.0;"/><polygon fill="#181818" points="605.003,1072.8914,598.3094,1071.2405,601.5573,1073.5056,599.2922,1076.7536,605.003,1072.8914" style="stroke:#181818;stroke-width:0.6999999999999998;"/><text fill="#000000" font-family="sans-serif" font-size="9.1" lengthAdjust="spacing" textLength="31.1402" x="433.419" y="1102.1493">creates</text></g><!--link JCalculator to JTextField--><g id="link_JCalculator_JTextField"><path codeLine="15" d="M410.634,1207.5854 C449.078,1198.0724 483.879,1189.4702 518.137,1180.9932 " fill="none" id="JCalculator-to-JTextField" style="stroke:#181818;stroke-width:0.6999999999999998;stroke-dasharray:7.0,7.0;"/><polygon fill="#181818" points="522.214,1179.9844,515.4259,1178.7796,518.8165,1180.8251,516.771,1184.2157,522.214,1179.9844" style="stroke:#181818;stroke-width:0.6999999999999998;"/><text fill="#000000" font-family="sans-serif" font-size="9.1" lengthAdjust="spacing" textLength="31.1402" x="433.419" y="1192.4493">creates</text></g><!--link JCalculator to JList--><g id="link_JCalculator_JList"><path codeLine="16" d="M410.634,1257.6214 C456.554,1257.6214 498.89,1257.6214 537.432,1257.6214 " fill="none" id="JCalculator-to-JList" style="stroke:#181818;stroke-width:0.6999999999999998;stroke-dasharray:7.0,7.0;"/><polygon fill="#181818" points="541.632,1257.6214,535.332,1254.8214,538.132,1257.6214,535.332,1260.4214,541.632,1257.6214" style="stroke:#181818;stroke-width:0.6999999999999998;"/><text fill="#000000" font-family="sans-serif" font-size="9.1" lengthAdjust="spacing" textLength="31.1402" x="433.419" y="1254.7493">creates</text></g><!--link JCalculator to GridBagConstraints--><g id="link_JCalculator_GridBagConstraints"><path codeLine="17" d="M410.634,1313.9994 C471.716,1331.0234 529.8511,1347.2213 572.8451,1359.1983 " fill="none" id="JCalculator-to-GridBagConstraints" style="stroke:#181818;stroke-width:0.6999999999999998;stroke-dasharray:7.0,7.0;"/><polygon fill="#181818" points="576.891,1360.3254,571.5735,1355.9375,573.5194,1359.3861,570.0707,1361.332,576.891,1360.3254" style="stroke:#181818;stroke-width:0.6999999999999998;"/><text fill="#000000" font-family="sans-serif" font-size="9.1" lengthAdjust="spacing" textLength="19.474" x="439.369" y="1317.0493">uses</text></g><!--link JCalculator to JFrame--><g id="link_JCalculator_JFrame"><path codeLine="45" d="M297.92,1321.3984 C374.339,1375.7814 471.919,1445.2214 471.919,1445.2214 C471.919,1445.2214 547.9318,1458.7799 593.6908,1466.9419 " fill="none" id="JCalculator-to-JFrame" style="stroke:#181818;stroke-width:0.6999999999999998;"/><polygon fill="none" points="606.095,1469.1544,594.4283,1462.8071,592.9533,1471.0766,606.095,1469.1544" style="stroke:#181818;stroke-width:0.6999999999999998;"/><text fill="#000000" font-family="sans-serif" font-size="9.1" lengthAdjust="spacing" textLength="33.943" x="432.019" y="1415.0493">extends</text></g><!--SRC=[KypCIyufJKbLy2z8BKeioI-ABytDqIi04boACAdWaiIIL2pYNiw9EScbEQYw0000]--></g></svg>