<svg xmlns="http://www.w3.org/2000/svg" xmlns:xlink="http://www.w3.org/1999/xlink" contentStyleType="text/css" height="1682.1px" preserveAspectRatio="none" style="width:1782px;height:1682px;background:#FFFFFF;" version="1.1" viewBox="0 0 1782 1682" width="1782.9px" zoomAndPan="magnify"><defs/><g><!--cluster Operators--><g id="cluster_Operators"><path d="M469.105,4.6214 L519.5227,4.6214 A2.625,2.625 0 0 1 521.2727,6.3714 L526.1727,22.1689 L1776.684,22.1689 A1.75,1.75 0 0 1 1778.434,23.9189 L1778.434,929.6714 A1.75,1.75 0 0 1 1776.684,931.4214 L469.105,931.4214 A1.75,1.75 0 0 1 467.355,929.6714 L467.355,6.3714 A1.75,1.75 0 0 1 469.105,4.6214 " fill="none" style="stroke:#000000;stroke-width:1.0499999999999998;"/><line style="stroke:#000000;stroke-width:1.0499999999999998;" x1="467.355" x2="526.1727" y1="22.1689" y2="22.1689"/><text fill="#000000" font-family="sans-serif" font-size="9.8" font-weight="bold" lengthAdjust="spacing" textLength="49.7177" x="470.155" y="16.4975">Operators</text></g><!--class Operator--><g id="elem_Operator"><rect codeLine="5" fill="#F1F1F1" height="73.6426" id="Operator" rx="1.75" ry="1.75" style="stroke:#181818;stroke-width:0.3499999999999999;" width="505.4543" x="498.155" y="520.8014"/><ellipse cx="728.023" cy="532.0014" fill="#A9DCDF" rx="7.7" ry="7.7" style="stroke:#181818;stroke-width:0.6999999999999998;"/><path d="M730.3637,535.6764 L729.3355,533.0514 L726.2293,533.0514 L725.223,535.6764 L723.7355,535.6764 L727.2027,526.7733 L728.4277,526.7733 L731.873,535.6764 L730.3637,535.6764 Z M728.023,529.4092 Q727.9902,529.2998 727.9027,529.0483 Q727.8152,528.7967 727.7387,528.5342 Q727.6621,528.2608 727.8043,528.217 Q727.9137,528.3483 727.848,528.5998 Q727.7824,528.8404 727.7168,529.0483 Q727.6512,529.2451 727.5965,529.4092 L726.7324,531.7279 L728.8871,531.7279 L728.023,529.4092 Z " fill="#000000"/><text fill="#000000" font-family="sans-serif" font-size="9.8" font-style="italic" lengthAdjust="spacing" textLength="39.7682" x="742.373" y="535.8038">Operator</text><line style="stroke:#181818;stroke-width:0.3499999999999999;" x1="498.855" x2="1002.9093" y1="543.2014" y2="543.2014"/><line style="stroke:#181818;stroke-width:0.3499999999999999;" x1="498.855" x2="1002.9093" y1="548.8014" y2="548.8014"/><text fill="#000000" font-family="sans-serif" font-size="9.8" font-style="italic" lengthAdjust="spacing" textLength="59.2996" x="512.155" y="562.0775">void execute()</text><ellipse cx="505.855" cy="572.6727" fill="#84BE84" rx="2.1" ry="2.1" style="stroke:#038048;stroke-width:0.6999999999999998;"/><text fill="#000000" font-family="sans-serif" font-size="9.8" lengthAdjust="spacing" textLength="487.2543" x="512.155" y="575.4251">void executeBinaryOperation(double operand1, double operand2, State state, BinaryOperation operation)</text><ellipse cx="505.855" cy="586.0202" fill="#84BE84" rx="2.1" ry="2.1" style="stroke:#038048;stroke-width:0.6999999999999998;"/><text fill="#000000" font-family="sans-serif" font-size="9.8" lengthAdjust="spacing" textLength="285.179" x="512.155" y="588.7726">double compute(double operand1, double operand2) : double</text></g><polygon fill="none" points="1003.6093,531.7545,1017.0376,525.4545,1018.0355,535.2035" style="stroke:#181818;stroke-width:0.6999999999999998;"/><line style="stroke:#181818;stroke-width:0.6999999999999998;" x1="1017.5366" x2="1017.611" y1="530.329" y2="530.3214"/><line style="stroke:#181818;stroke-width:0.6999999999999998;" x1="549.508" x2="479.6878" y1="594.444" y2="607.2107"/><!--class BackSpace--><g id="elem_BackSpace"><rect codeLine="11" fill="#F1F1F1" height="46.9475" id="BackSpace" rx="1.75" ry="1.75" style="stroke:#181818;stroke-width:0.3499999999999999;" width="82.1545" x="1217.153" y="861.7504"/><ellipse cx="1232.5191" cy="872.9504" fill="#ADD1B2" rx="7.7" ry="7.7" style="stroke:#181818;stroke-width:0.6999999999999998;"/><path d="M1232.5957,869.8223 Q1231.9503,869.8223 1231.4363,870.041 Q1230.9332,870.2598 1230.5832,870.6754 Q1230.2332,871.0801 1230.0363,871.6926 Q1229.8503,872.3051 1229.8503,873.0707 Q1229.8503,874.0769 1230.1566,874.8098 Q1230.4738,875.5426 1231.0644,875.9254 Q1231.666,876.3082 1232.5847,876.3082 Q1233.1316,876.3082 1233.6128,876.2207 Q1234.105,876.1223 1234.805,875.9035 L1234.805,877.216 Q1234.2035,877.4457 1233.6675,877.5332 Q1233.1425,877.6207 1232.4316,877.6207 Q1231.0863,877.6207 1230.1675,877.0629 Q1229.2597,876.4941 1228.8003,875.466 Q1228.341,874.4269 1228.341,873.0488 Q1228.341,872.0535 1228.6144,871.2332 Q1228.8988,870.4019 1229.4457,869.7894 Q1229.9925,869.1769 1230.791,868.8488 Q1231.5894,868.5098 1232.6175,868.5098 Q1233.2847,868.5098 1233.9082,868.6519 Q1234.5425,868.7832 1235.1988,869.1113 L1234.6191,870.3582 Q1234.0722,870.0957 1233.6128,869.9644 Q1233.1535,869.8223 1232.5957,869.8223 Z " fill="#000000"/><text fill="#000000" font-family="sans-serif" font-size="9.8" lengthAdjust="spacing" textLength="48.941" x="1243.4004" y="876.7528">BackSpace</text><line style="stroke:#181818;stroke-width:0.3499999999999999;" x1="1217.853" x2="1298.6075" y1="884.1504" y2="884.1504"/><line style="stroke:#181818;stroke-width:0.3499999999999999;" x1="1217.853" x2="1298.6075" y1="889.7504" y2="889.7504"/><ellipse cx="1224.853" cy="900.2742" fill="#84BE84" rx="2.1" ry="2.1" style="stroke:#038048;stroke-width:0.6999999999999998;"/><text fill="#000000" font-family="sans-serif" font-size="9.8" lengthAdjust="spacing" textLength="63.9545" x="1231.153" y="903.0265">void execute()</text></g><!--class ClearError--><g id="elem_ClearError"><rect codeLine="15" fill="#F1F1F1" height="46.9475" id="ClearError" rx="1.75" ry="1.75" style="stroke:#181818;stroke-width:0.3499999999999999;" width="82.1545" x="1217.153" y="790.3504"/><ellipse cx="1233.2511" cy="801.5504" fill="#ADD1B2" rx="7.7" ry="7.7" style="stroke:#181818;stroke-width:0.6999999999999998;"/><path d="M1233.3277,798.4223 Q1232.6824,798.4223 1232.1683,798.641 Q1231.6652,798.8598 1231.3152,799.2754 Q1230.9652,799.6801 1230.7683,800.2926 Q1230.5824,800.9051 1230.5824,801.6707 Q1230.5824,802.6769 1230.8886,803.4098 Q1231.2058,804.1426 1231.7965,804.5254 Q1232.398,804.9082 1233.3168,804.9082 Q1233.8636,804.9082 1234.3449,804.8207 Q1234.8371,804.7223 1235.5371,804.5035 L1235.5371,805.816 Q1234.9355,806.0457 1234.3996,806.1332 Q1233.8746,806.2207 1233.1636,806.2207 Q1231.8183,806.2207 1230.8996,805.6629 Q1229.9918,805.0941 1229.5324,804.066 Q1229.073,803.0269 1229.073,801.6488 Q1229.073,800.6535 1229.3465,799.8332 Q1229.6308,799.0019 1230.1777,798.3894 Q1230.7246,797.7769 1231.523,797.4488 Q1232.3215,797.1098 1233.3496,797.1098 Q1234.0168,797.1098 1234.6402,797.2519 Q1235.2746,797.3832 1235.9308,797.7113 L1235.3511,798.9582 Q1234.8043,798.6957 1234.3449,798.5644 Q1233.8855,798.4223 1233.3277,798.4223 Z " fill="#000000"/><text fill="#000000" font-family="sans-serif" font-size="9.8" lengthAdjust="spacing" textLength="47.3142" x="1244.2952" y="805.3528">ClearError</text><line style="stroke:#181818;stroke-width:0.3499999999999999;" x1="1217.853" x2="1298.6075" y1="812.7504" y2="812.7504"/><line style="stroke:#181818;stroke-width:0.3499999999999999;" x1="1217.853" x2="1298.6075" y1="818.3504" y2="818.3504"/><ellipse cx="1224.853" cy="828.8742" fill="#84BE84" rx="2.1" ry="2.1" style="stroke:#038048;stroke-width:0.6999999999999998;"/><text fill="#000000" font-family="sans-serif" font-size="9.8" lengthAdjust="spacing" textLength="63.9545" x="1231.153" y="831.6265">void execute()</text></g><!--class Clear--><g id="elem_Clear"><rect codeLine="19" fill="#F1F1F1" height="46.9475" id="Clear" rx="1.75" ry="1.75" style="stroke:#181818;stroke-width:0.3499999999999999;" width="82.1545" x="1217.153" y="718.9504"/><ellipse cx="1243.8351" cy="730.1504" fill="#ADD1B2" rx="7.7" ry="7.7" style="stroke:#181818;stroke-width:0.6999999999999998;"/><path d="M1243.9117,727.0223 Q1243.2664,727.0223 1242.7523,727.241 Q1242.2492,727.4598 1241.8992,727.8754 Q1241.5492,728.2801 1241.3523,728.8926 Q1241.1664,729.5051 1241.1664,730.2707 Q1241.1664,731.2769 1241.4726,732.0098 Q1241.7898,732.7426 1242.3804,733.1254 Q1242.982,733.5082 1243.9007,733.5082 Q1244.4476,733.5082 1244.9289,733.4207 Q1245.421,733.3223 1246.121,733.1035 L1246.121,734.416 Q1245.5195,734.6457 1244.9835,734.7332 Q1244.4585,734.8207 1243.7476,734.8207 Q1242.4023,734.8207 1241.4835,734.2629 Q1240.5757,733.6941 1240.1164,732.666 Q1239.657,731.6269 1239.657,730.2488 Q1239.657,729.2535 1239.9304,728.4332 Q1240.2148,727.6019 1240.7617,726.9894 Q1241.3085,726.3769 1242.107,726.0488 Q1242.9054,725.7098 1243.9335,725.7098 Q1244.6007,725.7098 1245.2242,725.8519 Q1245.8585,725.9832 1246.5148,726.3113 L1245.9351,727.5582 Q1245.3882,727.2957 1244.9289,727.1644 Q1244.4695,727.0223 1243.9117,727.0223 Z " fill="#000000"/><text fill="#000000" font-family="sans-serif" font-size="9.8" lengthAdjust="spacing" textLength="23.7943" x="1257.2311" y="733.9528">Clear</text><line style="stroke:#181818;stroke-width:0.3499999999999999;" x1="1217.853" x2="1298.6075" y1="741.3504" y2="741.3504"/><line style="stroke:#181818;stroke-width:0.3499999999999999;" x1="1217.853" x2="1298.6075" y1="746.9504" y2="746.9504"/><ellipse cx="1224.853" cy="757.4742" fill="#84BE84" rx="2.1" ry="2.1" style="stroke:#038048;stroke-width:0.6999999999999998;"/><text fill="#000000" font-family="sans-serif" font-size="9.8" lengthAdjust="spacing" textLength="63.9545" x="1231.153" y="760.2265">void execute()</text></g><!--class MemoryRecall--><g id="elem_MemoryRecall"><rect codeLine="23" fill="#F1F1F1" height="46.9475" id="MemoryRecall" rx="1.75" ry="1.75" style="stroke:#181818;stroke-width:0.3499999999999999;" width="87.8343" x="1214.318" y="647.5504"/><ellipse cx="1224.818" cy="658.7504" fill="#ADD1B2" rx="7.7" ry="7.7" style="stroke:#181818;stroke-width:0.6999999999999998;"/><path d="M1224.8946,655.6223 Q1224.2492,655.6223 1223.7352,655.841 Q1223.2321,656.0598 1222.8821,656.4754 Q1222.5321,656.8801 1222.3352,657.4926 Q1222.1492,658.1051 1222.1492,658.8707 Q1222.1492,659.8769 1222.4555,660.6098 Q1222.7727,661.3426 1223.3633,661.7254 Q1223.9649,662.1082 1224.8836,662.1082 Q1225.4305,662.1082 1225.9117,662.0207 Q1226.4039,661.9223 1227.1039,661.7035 L1227.1039,663.016 Q1226.5024,663.2457 1225.9664,663.3332 Q1225.4414,663.4207 1224.7305,663.4207 Q1223.3852,663.4207 1222.4664,662.8629 Q1221.5586,662.2941 1221.0992,661.266 Q1220.6399,660.2269 1220.6399,658.8488 Q1220.6399,657.8535 1220.9133,657.0332 Q1221.1977,656.2019 1221.7446,655.5894 Q1222.2914,654.9769 1223.0899,654.6488 Q1223.8883,654.3098 1224.9164,654.3098 Q1225.5836,654.3098 1226.2071,654.4519 Q1226.8414,654.5832 1227.4977,654.9113 L1226.918,656.1582 Q1226.3711,655.8957 1225.9117,655.7644 Q1225.4524,655.6223 1224.8946,655.6223 Z " fill="#000000"/><text fill="#000000" font-family="sans-serif" font-size="9.8" lengthAdjust="spacing" textLength="65.4343" x="1234.618" y="662.5528">MemoryRecall</text><line style="stroke:#181818;stroke-width:0.3499999999999999;" x1="1215.018" x2="1301.4523" y1="669.9504" y2="669.9504"/><line style="stroke:#181818;stroke-width:0.3499999999999999;" x1="1215.018" x2="1301.4523" y1="675.5504" y2="675.5504"/><ellipse cx="1222.018" cy="686.0742" fill="#84BE84" rx="2.1" ry="2.1" style="stroke:#038048;stroke-width:0.6999999999999998;"/><text fill="#000000" font-family="sans-serif" font-size="9.8" lengthAdjust="spacing" textLength="63.9545" x="1228.318" y="688.8265">void execute()</text></g><!--class MemoryStore--><g id="elem_MemoryStore"><rect codeLine="27" fill="#F1F1F1" height="46.9475" id="MemoryStore" rx="1.75" ry="1.75" style="stroke:#181818;stroke-width:0.3499999999999999;" width="85.3746" x="1215.543" y="576.1504"/><ellipse cx="1226.043" cy="587.3504" fill="#ADD1B2" rx="7.7" ry="7.7" style="stroke:#181818;stroke-width:0.6999999999999998;"/><path d="M1226.1196,584.2223 Q1225.4742,584.2223 1224.9602,584.441 Q1224.4571,584.6598 1224.1071,585.0754 Q1223.7571,585.4801 1223.5602,586.0926 Q1223.3742,586.7051 1223.3742,587.4707 Q1223.3742,588.4769 1223.6805,589.2098 Q1223.9977,589.9426 1224.5883,590.3254 Q1225.1899,590.7082 1226.1086,590.7082 Q1226.6555,590.7082 1227.1367,590.6207 Q1227.6289,590.5223 1228.3289,590.3035 L1228.3289,591.616 Q1227.7274,591.8457 1227.1914,591.9332 Q1226.6664,592.0207 1225.9555,592.0207 Q1224.6102,592.0207 1223.6914,591.4629 Q1222.7836,590.8941 1222.3242,589.866 Q1221.8649,588.8269 1221.8649,587.4488 Q1221.8649,586.4535 1222.1383,585.6332 Q1222.4227,584.8019 1222.9696,584.1894 Q1223.5164,583.5769 1224.3149,583.2488 Q1225.1133,582.9098 1226.1414,582.9098 Q1226.8086,582.9098 1227.4321,583.0519 Q1228.0664,583.1832 1228.7227,583.5113 L1228.143,584.7582 Q1227.5961,584.4957 1227.1367,584.3644 Q1226.6774,584.2223 1226.1196,584.2223 Z " fill="#000000"/><text fill="#000000" font-family="sans-serif" font-size="9.8" lengthAdjust="spacing" textLength="62.9746" x="1235.843" y="591.1528">MemoryStore</text><line style="stroke:#181818;stroke-width:0.3499999999999999;" x1="1216.243" x2="1300.2176" y1="598.5504" y2="598.5504"/><line style="stroke:#181818;stroke-width:0.3499999999999999;" x1="1216.243" x2="1300.2176" y1="604.1504" y2="604.1504"/><ellipse cx="1223.243" cy="614.6742" fill="#84BE84" rx="2.1" ry="2.1" style="stroke:#038048;stroke-width:0.6999999999999998;"/><text fill="#000000" font-family="sans-serif" font-size="9.8" lengthAdjust="spacing" textLength="63.9545" x="1229.543" y="617.4265">void execute()</text></g><!--class Digit--><g id="elem_Digit"><rect codeLine="31" fill="#F1F1F1" height="73.6426" id="Digit" rx="1.75" ry="1.75" style="stroke:#181818;stroke-width:0.3499999999999999;" width="82.1545" x="1217.153" y="478.1014"/><ellipse cx="1244.7436" cy="489.3014" fill="#ADD1B2" rx="7.7" ry="7.7" style="stroke:#181818;stroke-width:0.6999999999999998;"/><path d="M1244.8201,486.1733 Q1244.1748,486.1733 1243.6607,486.392 Q1243.1576,486.6108 1242.8076,487.0264 Q1242.4576,487.4311 1242.2607,488.0436 Q1242.0748,488.6561 1242.0748,489.4217 Q1242.0748,490.4279 1242.3811,491.1608 Q1242.6982,491.8936 1243.2889,492.2764 Q1243.8904,492.6592 1244.8092,492.6592 Q1245.3561,492.6592 1245.8373,492.5717 Q1246.3295,492.4733 1247.0295,492.2545 L1247.0295,493.567 Q1246.4279,493.7967 1245.892,493.8842 Q1245.367,493.9717 1244.6561,493.9717 Q1243.3107,493.9717 1242.392,493.4139 Q1241.4842,492.8451 1241.0248,491.817 Q1240.5654,490.7779 1240.5654,489.3998 Q1240.5654,488.4045 1240.8389,487.5842 Q1241.1232,486.7529 1241.6701,486.1404 Q1242.217,485.5279 1243.0154,485.1998 Q1243.8139,484.8608 1244.842,484.8608 Q1245.5092,484.8608 1246.1326,485.0029 Q1246.767,485.1342 1247.4232,485.4623 L1246.8436,486.7092 Q1246.2967,486.4467 1245.8373,486.3154 Q1245.3779,486.1733 1244.8201,486.1733 Z " fill="#000000"/><text fill="#000000" font-family="sans-serif" font-size="9.8" lengthAdjust="spacing" textLength="21.7755" x="1258.3415" y="493.1038">Digit</text><line style="stroke:#181818;stroke-width:0.3499999999999999;" x1="1217.853" x2="1298.6075" y1="500.5014" y2="500.5014"/><rect fill="none" height="4.2" style="stroke:#C82930;stroke-width:0.6999999999999998;" width="4.2" x="1222.753" y="508.9252"/><text fill="#000000" font-family="sans-serif" font-size="9.8" lengthAdjust="spacing" textLength="35.3191" x="1231.153" y="513.7775">int digit</text><line style="stroke:#181818;stroke-width:0.3499999999999999;" x1="1217.853" x2="1298.6075" y1="519.4489" y2="519.4489"/><ellipse cx="1224.853" cy="529.9727" fill="#84BE84" rx="2.1" ry="2.1" style="stroke:#038048;stroke-width:0.6999999999999998;"/><text fill="#000000" font-family="sans-serif" font-size="9.8" lengthAdjust="spacing" textLength="62.9746" x="1231.153" y="532.7251">Digit(int digit)</text><ellipse cx="1224.853" cy="543.3202" fill="#84BE84" rx="2.1" ry="2.1" style="stroke:#038048;stroke-width:0.6999999999999998;"/><text fill="#000000" font-family="sans-serif" font-size="9.8" lengthAdjust="spacing" textLength="63.9545" x="1231.153" y="546.0726">void execute()</text></g><!--class UnaryOperation--><g id="elem_UnaryOperation"><rect codeLine="37" fill="#F1F1F1" height="60.2951" id="UnaryOperation" rx="1.75" ry="1.75" style="stroke:#181818;stroke-width:0.3499999999999999;" width="213.9934" x="1151.234" y="379.0724"/><ellipse cx="1220.0445" cy="390.2724" fill="#A9DCDF" rx="7.7" ry="7.7" style="stroke:#181818;stroke-width:0.6999999999999998;"/><path d="M1222.3851,393.9474 L1221.357,391.3224 L1218.2507,391.3224 L1217.2445,393.9474 L1215.757,393.9474 L1219.2241,385.0443 L1220.4491,385.0443 L1223.8945,393.9474 L1222.3851,393.9474 Z M1220.0445,387.6802 Q1220.0116,387.5708 1219.9241,387.3193 Q1219.8366,387.0677 1219.7601,386.8052 Q1219.6835,386.5318 1219.8257,386.488 Q1219.9351,386.6193 1219.8695,386.8708 Q1219.8038,387.1114 1219.7382,387.3193 Q1219.6726,387.5161 1219.6179,387.6802 L1218.7538,389.9989 L1220.9085,389.9989 L1220.0445,387.6802 Z " fill="#000000"/><text fill="#000000" font-family="sans-serif" font-size="9.8" font-style="italic" lengthAdjust="spacing" textLength="70.4225" x="1234.3945" y="394.0748">UnaryOperation</text><line style="stroke:#181818;stroke-width:0.3499999999999999;" x1="1151.934" x2="1364.5274" y1="401.4724" y2="401.4724"/><line style="stroke:#181818;stroke-width:0.3499999999999999;" x1="1151.934" x2="1364.5274" y1="407.0724" y2="407.0724"/><ellipse cx="1158.934" cy="417.5962" fill="#84BE84" rx="2.1" ry="2.1" style="stroke:#038048;stroke-width:0.6999999999999998;"/><text fill="#000000" font-family="sans-serif" font-size="9.8" lengthAdjust="spacing" textLength="195.7934" x="1165.234" y="420.3485">UnaryOperation(UnaryFunction operation)</text><ellipse cx="1158.934" cy="430.9437" fill="#84BE84" rx="2.1" ry="2.1" style="stroke:#038048;stroke-width:0.6999999999999998;"/><text fill="#000000" font-family="sans-serif" font-size="9.8" lengthAdjust="spacing" textLength="63.9545" x="1165.234" y="433.6961">void execute()</text></g><polygon fill="none" points="1365.2274,411.6809,1379.3364,407.1042,1379.1111,416.9016" style="stroke:#181818;stroke-width:0.6999999999999998;"/><line style="stroke:#181818;stroke-width:0.6999999999999998;" x1="1379.2237" x2="1380.029" y1="412.0029" y2="412.0214"/><line style="stroke:#181818;stroke-width:0.6999999999999998;" x1="1174.4666" x2="1137.038" y1="439.3675" y2="452.8384"/><!--class ChangeSign--><g id="elem_ChangeSign"><rect codeLine="42" fill="#F1F1F1" height="46.9475" id="ChangeSign" rx="1.75" ry="1.75" style="stroke:#181818;stroke-width:0.3499999999999999;" width="82.1545" x="1217.153" y="293.3504"/><ellipse cx="1229.635" cy="304.5504" fill="#ADD1B2" rx="7.7" ry="7.7" style="stroke:#181818;stroke-width:0.6999999999999998;"/><path d="M1229.7115,301.4223 Q1229.0662,301.4223 1228.5522,301.641 Q1228.049,301.8598 1227.699,302.2754 Q1227.349,302.6801 1227.1522,303.2926 Q1226.9662,303.9051 1226.9662,304.6707 Q1226.9662,305.6769 1227.2725,306.4098 Q1227.5897,307.1426 1228.1803,307.5254 Q1228.7818,307.9082 1229.7006,307.9082 Q1230.2475,307.9082 1230.7287,307.8207 Q1231.2209,307.7223 1231.9209,307.5035 L1231.9209,308.816 Q1231.3193,309.0457 1230.7834,309.1332 Q1230.2584,309.2207 1229.5475,309.2207 Q1228.2022,309.2207 1227.2834,308.6629 Q1226.3756,308.0941 1225.9162,307.066 Q1225.4568,306.0269 1225.4568,304.6488 Q1225.4568,303.6535 1225.7303,302.8332 Q1226.0147,302.0019 1226.5615,301.3894 Q1227.1084,300.7769 1227.9068,300.4488 Q1228.7053,300.1098 1229.7334,300.1098 Q1230.4006,300.1098 1231.024,300.2519 Q1231.6584,300.3832 1232.3147,300.7113 L1231.735,301.9582 Q1231.1881,301.6957 1230.7287,301.5644 Q1230.2693,301.4223 1229.7115,301.4223 Z " fill="#000000"/><text fill="#000000" font-family="sans-serif" font-size="9.8" lengthAdjust="spacing" textLength="55.3502" x="1239.8754" y="308.3528">ChangeSign</text><line style="stroke:#181818;stroke-width:0.3499999999999999;" x1="1217.853" x2="1298.6075" y1="315.7504" y2="315.7504"/><line style="stroke:#181818;stroke-width:0.3499999999999999;" x1="1217.853" x2="1298.6075" y1="321.3504" y2="321.3504"/><ellipse cx="1224.853" cy="331.8742" fill="#84BE84" rx="2.1" ry="2.1" style="stroke:#038048;stroke-width:0.6999999999999998;"/><text fill="#000000" font-family="sans-serif" font-size="9.8" lengthAdjust="spacing" textLength="63.9545" x="1231.153" y="334.6265">void execute()</text></g><!--class AppendDot--><g id="elem_AppendDot"><rect codeLine="46" fill="#F1F1F1" height="46.9475" id="AppendDot" rx="1.75" ry="1.75" style="stroke:#181818;stroke-width:0.3499999999999999;" width="82.1545" x="1217.153" y="221.9504"/><ellipse cx="1230.8962" cy="233.1504" fill="#ADD1B2" rx="7.7" ry="7.7" style="stroke:#181818;stroke-width:0.6999999999999998;"/><path d="M1230.9728,230.0223 Q1230.3275,230.0223 1229.8134,230.241 Q1229.3103,230.4598 1228.9603,230.8754 Q1228.6103,231.2801 1228.4134,231.8926 Q1228.2275,232.5051 1228.2275,233.2707 Q1228.2275,234.2769 1228.5337,235.0098 Q1228.8509,235.7426 1229.4415,236.1254 Q1230.0431,236.5082 1230.9618,236.5082 Q1231.5087,236.5082 1231.99,236.4207 Q1232.4822,236.3223 1233.1822,236.1035 L1233.1822,237.416 Q1232.5806,237.6457 1232.0447,237.7332 Q1231.5197,237.8207 1230.8087,237.8207 Q1229.4634,237.8207 1228.5447,237.2629 Q1227.6368,236.6941 1227.1775,235.666 Q1226.7181,234.6269 1226.7181,233.2488 Q1226.7181,232.2535 1226.9915,231.4332 Q1227.2759,230.6019 1227.8228,229.9894 Q1228.3697,229.3769 1229.1681,229.0488 Q1229.9665,228.7098 1230.9947,228.7098 Q1231.6618,228.7098 1232.2853,228.8519 Q1232.9197,228.9832 1233.5759,229.3113 L1232.9962,230.5582 Q1232.4493,230.2957 1231.99,230.1644 Q1231.5306,230.0223 1230.9728,230.0223 Z " fill="#000000"/><text fill="#000000" font-family="sans-serif" font-size="9.8" lengthAdjust="spacing" textLength="52.5474" x="1241.4169" y="236.9528">AppendDot</text><line style="stroke:#181818;stroke-width:0.3499999999999999;" x1="1217.853" x2="1298.6075" y1="244.3504" y2="244.3504"/><line style="stroke:#181818;stroke-width:0.3499999999999999;" x1="1217.853" x2="1298.6075" y1="249.9504" y2="249.9504"/><ellipse cx="1224.853" cy="260.4742" fill="#84BE84" rx="2.1" ry="2.1" style="stroke:#038048;stroke-width:0.6999999999999998;"/><text fill="#000000" font-family="sans-serif" font-size="9.8" lengthAdjust="spacing" textLength="63.9545" x="1231.153" y="263.2265">void execute()</text></g><!--class Reciprocal--><g id="elem_Reciprocal"><rect codeLine="50" fill="#F1F1F1" height="46.9475" id="Reciprocal" rx="1.75" ry="1.75" style="stroke:#181818;stroke-width:0.3499999999999999;" width="71.6686" x="1574.111" y="465.5504"/><ellipse cx="1585.367" cy="476.7504" fill="#ADD1B2" rx="7.7" ry="7.7" style="stroke:#181818;stroke-width:0.6999999999999998;"/><path d="M1585.4436,473.6223 Q1584.7982,473.6223 1584.2842,473.841 Q1583.7811,474.0598 1583.4311,474.4754 Q1583.0811,474.8801 1582.8842,475.4926 Q1582.6982,476.1051 1582.6982,476.8707 Q1582.6982,477.8769 1583.0045,478.6098 Q1583.3217,479.3426 1583.9123,479.7254 Q1584.5139,480.1082 1585.4326,480.1082 Q1585.9795,480.1082 1586.4607,480.0207 Q1586.9529,479.9223 1587.6529,479.7035 L1587.6529,481.016 Q1587.0514,481.2457 1586.5154,481.3332 Q1585.9904,481.4207 1585.2795,481.4207 Q1583.9342,481.4207 1583.0154,480.8629 Q1582.1076,480.2941 1581.6482,479.266 Q1581.1889,478.2269 1581.1889,476.8488 Q1581.1889,475.8535 1581.4623,475.0332 Q1581.7467,474.2019 1582.2936,473.5894 Q1582.8404,472.9769 1583.6389,472.6488 Q1584.4373,472.3098 1585.4654,472.3098 Q1586.1326,472.3098 1586.7561,472.4519 Q1587.3904,472.5832 1588.0467,472.9113 L1587.467,474.1582 Q1586.9201,473.8957 1586.4607,473.7644 Q1586.0014,473.6223 1585.4436,473.6223 Z " fill="#000000"/><text fill="#000000" font-family="sans-serif" font-size="9.8" lengthAdjust="spacing" textLength="47.5886" x="1595.335" y="480.5528">Reciprocal</text><line style="stroke:#181818;stroke-width:0.3499999999999999;" x1="1574.811" x2="1645.0796" y1="487.9504" y2="487.9504"/><line style="stroke:#181818;stroke-width:0.3499999999999999;" x1="1574.811" x2="1645.0796" y1="493.5504" y2="493.5504"/><ellipse cx="1581.811" cy="504.0742" fill="#84BE84" rx="2.1" ry="2.1" style="stroke:#038048;stroke-width:0.6999999999999998;"/><text fill="#000000" font-family="sans-serif" font-size="9.8" lengthAdjust="spacing" textLength="53.4686" x="1588.111" y="506.8265">Reciprocal()</text></g><!--class Square--><g id="elem_Square"><rect codeLine="54" fill="#F1F1F1" height="46.9475" id="Square" rx="1.75" ry="1.75" style="stroke:#181818;stroke-width:0.3499999999999999;" width="56.6159" x="1581.636" y="394.1504"/><ellipse cx="1592.892" cy="405.3504" fill="#ADD1B2" rx="7.7" ry="7.7" style="stroke:#181818;stroke-width:0.6999999999999998;"/><path d="M1592.9686,402.2223 Q1592.3232,402.2223 1591.8092,402.441 Q1591.3061,402.6598 1590.9561,403.0754 Q1590.6061,403.4801 1590.4092,404.0926 Q1590.2232,404.7051 1590.2232,405.4707 Q1590.2232,406.4769 1590.5295,407.2098 Q1590.8467,407.9426 1591.4373,408.3254 Q1592.0389,408.7082 1592.9576,408.7082 Q1593.5045,408.7082 1593.9857,408.6207 Q1594.4779,408.5223 1595.1779,408.3035 L1595.1779,409.616 Q1594.5764,409.8457 1594.0404,409.9332 Q1593.5154,410.0207 1592.8045,410.0207 Q1591.4592,410.0207 1590.5404,409.4629 Q1589.6326,408.8941 1589.1732,407.866 Q1588.7139,406.8269 1588.7139,405.4488 Q1588.7139,404.4535 1588.9873,403.6332 Q1589.2717,402.8019 1589.8186,402.1894 Q1590.3654,401.5769 1591.1639,401.2488 Q1591.9623,400.9098 1592.9904,400.9098 Q1593.6576,400.9098 1594.2811,401.0519 Q1594.9154,401.1832 1595.5717,401.5113 L1594.992,402.7582 Q1594.4451,402.4957 1593.9857,402.3644 Q1593.5264,402.2223 1592.9686,402.2223 Z " fill="#000000"/><text fill="#000000" font-family="sans-serif" font-size="9.8" lengthAdjust="spacing" textLength="32.5359" x="1602.86" y="409.1528">Square</text><line style="stroke:#181818;stroke-width:0.3499999999999999;" x1="1582.336" x2="1637.5519" y1="416.5504" y2="416.5504"/><line style="stroke:#181818;stroke-width:0.3499999999999999;" x1="1582.336" x2="1637.5519" y1="422.1504" y2="422.1504"/><ellipse cx="1589.336" cy="432.6742" fill="#84BE84" rx="2.1" ry="2.1" style="stroke:#038048;stroke-width:0.6999999999999998;"/><text fill="#000000" font-family="sans-serif" font-size="9.8" lengthAdjust="spacing" textLength="38.4159" x="1595.636" y="435.4265">Square()</text></g><!--class SquareRoot--><g id="elem_SquareRoot"><rect codeLine="58" fill="#F1F1F1" height="46.9475" id="SquareRoot" rx="1.75" ry="1.75" style="stroke:#181818;stroke-width:0.3499999999999999;" width="78.1072" x="1570.891" y="322.7504"/><ellipse cx="1582.147" cy="333.9504" fill="#ADD1B2" rx="7.7" ry="7.7" style="stroke:#181818;stroke-width:0.6999999999999998;"/><path d="M1582.2236,330.8223 Q1581.5782,330.8223 1581.0642,331.041 Q1580.5611,331.2598 1580.2111,331.6754 Q1579.8611,332.0801 1579.6642,332.6926 Q1579.4782,333.3051 1579.4782,334.0707 Q1579.4782,335.0769 1579.7845,335.8098 Q1580.1017,336.5426 1580.6923,336.9254 Q1581.2939,337.3082 1582.2126,337.3082 Q1582.7595,337.3082 1583.2407,337.2207 Q1583.7329,337.1223 1584.4329,336.9035 L1584.4329,338.216 Q1583.8314,338.4457 1583.2954,338.5332 Q1582.7704,338.6207 1582.0595,338.6207 Q1580.7142,338.6207 1579.7954,338.0629 Q1578.8876,337.4941 1578.4282,336.466 Q1577.9689,335.4269 1577.9689,334.0488 Q1577.9689,333.0535 1578.2423,332.2332 Q1578.5267,331.4019 1579.0736,330.7894 Q1579.6204,330.1769 1580.4189,329.8488 Q1581.2173,329.5098 1582.2454,329.5098 Q1582.9126,329.5098 1583.5361,329.6519 Q1584.1704,329.7832 1584.8267,330.1113 L1584.247,331.3582 Q1583.7001,331.0957 1583.2407,330.9644 Q1582.7814,330.8223 1582.2236,330.8223 Z " fill="#000000"/><text fill="#000000" font-family="sans-serif" font-size="9.8" lengthAdjust="spacing" textLength="54.0272" x="1592.115" y="337.7528">SquareRoot</text><line style="stroke:#181818;stroke-width:0.3499999999999999;" x1="1571.591" x2="1648.2982" y1="345.1504" y2="345.1504"/><line style="stroke:#181818;stroke-width:0.3499999999999999;" x1="1571.591" x2="1648.2982" y1="350.7504" y2="350.7504"/><ellipse cx="1578.591" cy="361.2742" fill="#84BE84" rx="2.1" ry="2.1" style="stroke:#038048;stroke-width:0.6999999999999998;"/><text fill="#000000" font-family="sans-serif" font-size="9.8" lengthAdjust="spacing" textLength="59.9072" x="1584.891" y="364.0265">SquareRoot()</text></g><!--class BinaryOperation--><g id="elem_BinaryOperation"><rect codeLine="62" fill="#F1F1F1" height="60.2951" id="BinaryOperation" rx="1.75" ry="1.75" style="stroke:#181818;stroke-width:0.3499999999999999;" width="286.6406" x="1114.911" y="122.8724"/><ellipse cx="1219.1581" cy="134.0724" fill="#A9DCDF" rx="7.7" ry="7.7" style="stroke:#181818;stroke-width:0.6999999999999998;"/><path d="M1221.4987,137.7474 L1220.4706,135.1224 L1217.3644,135.1224 L1216.3581,137.7474 L1214.8706,137.7474 L1218.3378,128.8443 L1219.5628,128.8443 L1223.0081,137.7474 L1221.4987,137.7474 Z M1219.1581,131.4802 Q1219.1253,131.3708 1219.0378,131.1193 Q1218.9503,130.8677 1218.8737,130.6052 Q1218.7972,130.3318 1218.9394,130.288 Q1219.0487,130.4193 1218.9831,130.6708 Q1218.9175,130.9114 1218.8519,131.1193 Q1218.7862,131.3161 1218.7316,131.4802 L1217.8675,133.7989 L1220.0222,133.7989 L1219.1581,131.4802 Z " fill="#000000"/><text fill="#000000" font-family="sans-serif" font-size="9.8" font-style="italic" lengthAdjust="spacing" textLength="72.1963" x="1233.5081" y="137.8748">BinaryOperation</text><line style="stroke:#181818;stroke-width:0.3499999999999999;" x1="1115.611" x2="1400.8516" y1="145.2724" y2="145.2724"/><line style="stroke:#181818;stroke-width:0.3499999999999999;" x1="1115.611" x2="1400.8516" y1="150.8724" y2="150.8724"/><ellipse cx="1122.611" cy="161.3962" fill="#84BE84" rx="2.1" ry="2.1" style="stroke:#038048;stroke-width:0.6999999999999998;"/><text fill="#000000" font-family="sans-serif" font-size="9.8" lengthAdjust="spacing" textLength="63.9545" x="1128.911" y="164.1485">void execute()</text><text fill="#000000" font-family="sans-serif" font-size="9.8" font-style="italic" lengthAdjust="spacing" textLength="268.4406" x="1128.911" y="177.4961">double compute(double operand1, double operand2) : double</text></g><polygon fill="none" points="1401.5516,158.7288,1415.7355,154.3899,1415.3454,164.1821" style="stroke:#181818;stroke-width:0.6999999999999998;"/><line style="stroke:#181818;stroke-width:0.6999999999999998;" x1="1415.5405" x2="1416.429" y1="159.286" y2="159.3214"/><line style="stroke:#181818;stroke-width:0.6999999999999998;" x1="1174.4819" x2="1134.707" y1="183.1675" y2="197.4854"/><!--class Addition--><g id="elem_Addition"><rect codeLine="67" fill="#F1F1F1" height="46.9475" id="Addition" rx="1.75" ry="1.75" style="stroke:#181818;stroke-width:0.3499999999999999;" width="303.379" x="1458.254" y="251.3504"/><ellipse cx="1587.5205" cy="262.5504" fill="#ADD1B2" rx="7.7" ry="7.7" style="stroke:#181818;stroke-width:0.6999999999999998;"/><path d="M1587.597,259.4223 Q1586.9517,259.4223 1586.4376,259.641 Q1585.9345,259.8598 1585.5845,260.2754 Q1585.2345,260.6801 1585.0376,261.2926 Q1584.8517,261.9051 1584.8517,262.6707 Q1584.8517,263.6769 1585.158,264.4098 Q1585.4751,265.1426 1586.0658,265.5254 Q1586.6673,265.9082 1587.5861,265.9082 Q1588.133,265.9082 1588.6142,265.8207 Q1589.1064,265.7223 1589.8064,265.5035 L1589.8064,266.816 Q1589.2048,267.0457 1588.6689,267.1332 Q1588.1439,267.2207 1587.433,267.2207 Q1586.0876,267.2207 1585.1689,266.6629 Q1584.2611,266.0941 1583.8017,265.066 Q1583.3423,264.0269 1583.3423,262.6488 Q1583.3423,261.6535 1583.6158,260.8332 Q1583.9001,260.0019 1584.447,259.3894 Q1584.9939,258.7769 1585.7923,258.4488 Q1586.5908,258.1098 1587.6189,258.1098 Q1588.2861,258.1098 1588.9095,258.2519 Q1589.5439,258.3832 1590.2001,258.7113 L1589.6205,259.9582 Q1589.0736,259.6957 1588.6142,259.5644 Q1588.1548,259.4223 1587.597,259.4223 Z " fill="#000000"/><text fill="#000000" font-family="sans-serif" font-size="9.8" lengthAdjust="spacing" textLength="38.8961" x="1601.8705" y="266.3528">Addition</text><line style="stroke:#181818;stroke-width:0.3499999999999999;" x1="1458.954" x2="1760.933" y1="273.7504" y2="273.7504"/><line style="stroke:#181818;stroke-width:0.3499999999999999;" x1="1458.954" x2="1760.933" y1="279.3504" y2="279.3504"/><ellipse cx="1465.954" cy="289.8742" fill="#84BE84" rx="2.1" ry="2.1" style="stroke:#038048;stroke-width:0.6999999999999998;"/><text fill="#000000" font-family="sans-serif" font-size="9.8" lengthAdjust="spacing" textLength="285.179" x="1472.254" y="292.6265">double compute(double operand1, double operand2) : double</text></g><!--class Subtraction--><g id="elem_Subtraction"><rect codeLine="71" fill="#F1F1F1" height="46.9475" id="Subtraction" rx="1.75" ry="1.75" style="stroke:#181818;stroke-width:0.3499999999999999;" width="303.379" x="1458.254" y="179.9504"/><ellipse cx="1580.3175" cy="191.1504" fill="#ADD1B2" rx="7.7" ry="7.7" style="stroke:#181818;stroke-width:0.6999999999999998;"/><path d="M1580.394,188.0223 Q1579.7487,188.0223 1579.2347,188.241 Q1578.7315,188.4598 1578.3815,188.8754 Q1578.0315,189.2801 1577.8347,189.8926 Q1577.6487,190.5051 1577.6487,191.2707 Q1577.6487,192.2769 1577.955,193.0098 Q1578.2722,193.7426 1578.8628,194.1254 Q1579.4644,194.5082 1580.3831,194.5082 Q1580.93,194.5082 1581.4112,194.4207 Q1581.9034,194.3223 1582.6034,194.1035 L1582.6034,195.416 Q1582.0019,195.6457 1581.4659,195.7332 Q1580.9409,195.8207 1580.23,195.8207 Q1578.8847,195.8207 1577.9659,195.2629 Q1577.0581,194.6941 1576.5987,193.666 Q1576.1394,192.6269 1576.1394,191.2488 Q1576.1394,190.2535 1576.4128,189.4332 Q1576.6972,188.6019 1577.244,187.9894 Q1577.7909,187.3769 1578.5894,187.0488 Q1579.3878,186.7098 1580.4159,186.7098 Q1581.0831,186.7098 1581.7065,186.8519 Q1582.3409,186.9832 1582.9972,187.3113 L1582.4175,188.5582 Q1581.8706,188.2957 1581.4112,188.1644 Q1580.9519,188.0223 1580.394,188.0223 Z " fill="#000000"/><text fill="#000000" font-family="sans-serif" font-size="9.8" lengthAdjust="spacing" textLength="53.302" x="1594.6675" y="194.9528">Subtraction</text><line style="stroke:#181818;stroke-width:0.3499999999999999;" x1="1458.954" x2="1760.933" y1="202.3504" y2="202.3504"/><line style="stroke:#181818;stroke-width:0.3499999999999999;" x1="1458.954" x2="1760.933" y1="207.9504" y2="207.9504"/><ellipse cx="1465.954" cy="218.4742" fill="#84BE84" rx="2.1" ry="2.1" style="stroke:#038048;stroke-width:0.6999999999999998;"/><text fill="#000000" font-family="sans-serif" font-size="9.8" lengthAdjust="spacing" textLength="285.179" x="1472.254" y="221.2265">double compute(double operand1, double operand2) : double</text></g><!--class Multiplication--><g id="elem_Multiplication"><rect codeLine="75" fill="#F1F1F1" height="46.9475" id="Multiplication" rx="1.75" ry="1.75" style="stroke:#181818;stroke-width:0.3499999999999999;" width="303.379" x="1458.254" y="108.5504"/><ellipse cx="1575.5302" cy="119.7504" fill="#ADD1B2" rx="7.7" ry="7.7" style="stroke:#181818;stroke-width:0.6999999999999998;"/><path d="M1575.6068,116.6223 Q1574.9615,116.6223 1574.4474,116.841 Q1573.9443,117.0598 1573.5943,117.4754 Q1573.2443,117.8801 1573.0474,118.4926 Q1572.8615,119.1051 1572.8615,119.8707 Q1572.8615,120.8769 1573.1677,121.6098 Q1573.4849,122.3426 1574.0755,122.7254 Q1574.6771,123.1082 1575.5958,123.1082 Q1576.1427,123.1082 1576.624,123.0207 Q1577.1161,122.9223 1577.8161,122.7035 L1577.8161,124.016 Q1577.2146,124.2457 1576.6786,124.3332 Q1576.1536,124.4207 1575.4427,124.4207 Q1574.0974,124.4207 1573.1786,123.8629 Q1572.2708,123.2941 1571.8115,122.266 Q1571.3521,121.2269 1571.3521,119.8488 Q1571.3521,118.8535 1571.6255,118.0332 Q1571.9099,117.2019 1572.4568,116.5894 Q1573.0036,115.9769 1573.8021,115.6488 Q1574.6005,115.3098 1575.6286,115.3098 Q1576.2958,115.3098 1576.9193,115.4519 Q1577.5536,115.5832 1578.2099,115.9113 L1577.6302,117.1582 Q1577.0833,116.8957 1576.624,116.7644 Q1576.1646,116.6223 1575.6068,116.6223 Z " fill="#000000"/><text fill="#000000" font-family="sans-serif" font-size="9.8" lengthAdjust="spacing" textLength="62.8766" x="1589.8802" y="123.5528">Multiplication</text><line style="stroke:#181818;stroke-width:0.3499999999999999;" x1="1458.954" x2="1760.933" y1="130.9504" y2="130.9504"/><line style="stroke:#181818;stroke-width:0.3499999999999999;" x1="1458.954" x2="1760.933" y1="136.5504" y2="136.5504"/><ellipse cx="1465.954" cy="147.0742" fill="#84BE84" rx="2.1" ry="2.1" style="stroke:#038048;stroke-width:0.6999999999999998;"/><text fill="#000000" font-family="sans-serif" font-size="9.8" lengthAdjust="spacing" textLength="285.179" x="1472.254" y="149.8265">double compute(double operand1, double operand2) : double</text></g><!--class Division--><g id="elem_Division"><rect codeLine="79" fill="#F1F1F1" height="46.9475" id="Division" rx="1.75" ry="1.75" style="stroke:#181818;stroke-width:0.3499999999999999;" width="303.379" x="1458.254" y="37.1504"/><ellipse cx="1588.77" cy="48.3504" fill="#ADD1B2" rx="7.7" ry="7.7" style="stroke:#181818;stroke-width:0.6999999999999998;"/><path d="M1588.8465,45.2223 Q1588.2012,45.2223 1587.6871,45.441 Q1587.184,45.6598 1586.834,46.0754 Q1586.484,46.4801 1586.2871,47.0926 Q1586.1012,47.7051 1586.1012,48.4707 Q1586.1012,49.4769 1586.4075,50.2098 Q1586.7246,50.9426 1587.3153,51.3254 Q1587.9168,51.7082 1588.8356,51.7082 Q1589.3825,51.7082 1589.8637,51.6207 Q1590.3559,51.5223 1591.0559,51.3035 L1591.0559,52.616 Q1590.4543,52.8457 1589.9184,52.9332 Q1589.3934,53.0207 1588.6825,53.0207 Q1587.3371,53.0207 1586.4184,52.4629 Q1585.5106,51.8941 1585.0512,50.866 Q1584.5918,49.8269 1584.5918,48.4488 Q1584.5918,47.4535 1584.8653,46.6332 Q1585.1496,45.8019 1585.6965,45.1894 Q1586.2434,44.5769 1587.0418,44.2488 Q1587.8403,43.9098 1588.8684,43.9098 Q1589.5356,43.9098 1590.159,44.0519 Q1590.7934,44.1832 1591.4496,44.5113 L1590.87,45.7582 Q1590.3231,45.4957 1589.8637,45.3644 Q1589.4043,45.2223 1588.8465,45.2223 Z " fill="#000000"/><text fill="#000000" font-family="sans-serif" font-size="9.8" lengthAdjust="spacing" textLength="36.3971" x="1603.12" y="52.1528">Division</text><line style="stroke:#181818;stroke-width:0.3499999999999999;" x1="1458.954" x2="1760.933" y1="59.5504" y2="59.5504"/><line style="stroke:#181818;stroke-width:0.3499999999999999;" x1="1458.954" x2="1760.933" y1="65.1504" y2="65.1504"/><ellipse cx="1465.954" cy="75.6742" fill="#84BE84" rx="2.1" ry="2.1" style="stroke:#038048;stroke-width:0.6999999999999998;"/><text fill="#000000" font-family="sans-serif" font-size="9.8" lengthAdjust="spacing" textLength="285.179" x="1472.254" y="78.4265">double compute(double operand1, double operand2) : double</text></g><!--class Enter--><g id="elem_Enter"><rect codeLine="83" fill="#F1F1F1" height="46.9475" id="Enter" rx="1.75" ry="1.75" style="stroke:#181818;stroke-width:0.3499999999999999;" width="82.1545" x="1217.153" y="37.1504"/><ellipse cx="1243.4647" cy="48.3504" fill="#ADD1B2" rx="7.7" ry="7.7" style="stroke:#181818;stroke-width:0.6999999999999998;"/><path d="M1243.5412,45.2223 Q1242.8959,45.2223 1242.3819,45.441 Q1241.8787,45.6598 1241.5287,46.0754 Q1241.1787,46.4801 1240.9819,47.0926 Q1240.7959,47.7051 1240.7959,48.4707 Q1240.7959,49.4769 1241.1022,50.2098 Q1241.4194,50.9426 1242.01,51.3254 Q1242.6115,51.7082 1243.5303,51.7082 Q1244.0772,51.7082 1244.5584,51.6207 Q1245.0506,51.5223 1245.7506,51.3035 L1245.7506,52.616 Q1245.149,52.8457 1244.6131,52.9332 Q1244.0881,53.0207 1243.3772,53.0207 Q1242.0319,53.0207 1241.1131,52.4629 Q1240.2053,51.8941 1239.7459,50.866 Q1239.2865,49.8269 1239.2865,48.4488 Q1239.2865,47.4535 1239.56,46.6332 Q1239.8444,45.8019 1240.3912,45.1894 Q1240.9381,44.5769 1241.7365,44.2488 Q1242.535,43.9098 1243.5631,43.9098 Q1244.2303,43.9098 1244.8537,44.0519 Q1245.4881,44.1832 1246.1444,44.5113 L1245.5647,45.7582 Q1245.0178,45.4957 1244.5584,45.3644 Q1244.099,45.2223 1243.5412,45.2223 Z " fill="#000000"/><text fill="#000000" font-family="sans-serif" font-size="9.8" lengthAdjust="spacing" textLength="24.6175" x="1256.7784" y="52.1528">Enter</text><line style="stroke:#181818;stroke-width:0.3499999999999999;" x1="1217.853" x2="1298.6075" y1="59.5504" y2="59.5504"/><line style="stroke:#181818;stroke-width:0.3499999999999999;" x1="1217.853" x2="1298.6075" y1="65.1504" y2="65.1504"/><ellipse cx="1224.853" cy="75.6742" fill="#84BE84" rx="2.1" ry="2.1" style="stroke:#038048;stroke-width:0.6999999999999998;"/><text fill="#000000" font-family="sans-serif" font-size="9.8" lengthAdjust="spacing" textLength="63.9545" x="1231.153" y="78.4265">void execute()</text></g><!--class State--><g id="elem_State"><rect codeLine="1" fill="#F1F1F1" height="540.8066" id="State" rx="1.75" ry="1.75" style="stroke:#181818;stroke-width:0.3499999999999999;" width="246.6567" x="1134.903" y="1137.0184"/><ellipse cx="1243.516" cy="1148.2184" fill="#ADD1B2" rx="7.7" ry="7.7" style="stroke:#181818;stroke-width:0.6999999999999998;"/><path d="M1243.5926,1145.0903 Q1242.9472,1145.0903 1242.4332,1145.309 Q1241.9301,1145.5278 1241.5801,1145.9434 Q1241.2301,1146.3481 1241.0332,1146.9606 Q1240.8472,1147.5731 1240.8472,1148.3387 Q1240.8472,1149.3449 1241.1535,1150.0778 Q1241.4707,1150.8106 1242.0613,1151.1934 Q1242.6629,1151.5762 1243.5816,1151.5762 Q1244.1285,1151.5762 1244.6097,1151.4887 Q1245.1019,1151.3903 1245.8019,1151.1715 L1245.8019,1152.484 Q1245.2004,1152.7137 1244.6644,1152.8012 Q1244.1394,1152.8887 1243.4285,1152.8887 Q1242.0832,1152.8887 1241.1644,1152.3309 Q1240.2566,1151.7621 1239.7972,1150.734 Q1239.3379,1149.6949 1239.3379,1148.3168 Q1239.3379,1147.3215 1239.6113,1146.5012 Q1239.8957,1145.6699 1240.4426,1145.0574 Q1240.9894,1144.4449 1241.7879,1144.1168 Q1242.5863,1143.7778 1243.6144,1143.7778 Q1244.2816,1143.7778 1244.9051,1143.9199 Q1245.5394,1144.0512 1246.1957,1144.3793 L1245.616,1145.6262 Q1245.0691,1145.3637 1244.6097,1145.2324 Q1244.1504,1145.0903 1243.5926,1145.0903 Z " fill="#000000"/><text fill="#000000" font-family="sans-serif" font-size="9.8" lengthAdjust="spacing" textLength="23.4807" x="1257.866" y="1152.0208">State</text><line style="stroke:#181818;stroke-width:0.3499999999999999;" x1="1135.603" x2="1380.8597" y1="1159.4184" y2="1159.4184"/><rect fill="none" height="4.2" style="stroke:#C82930;stroke-width:0.6999999999999998;" width="4.2" x="1140.503" y="1167.8422"/><text fill="#000000" font-family="sans-serif" font-size="9.8" lengthAdjust="spacing" textLength="91.6787" x="1148.903" y="1172.6945">static State instance</text><rect fill="none" height="4.2" style="stroke:#C82930;stroke-width:0.6999999999999998;" width="4.2" x="1140.503" y="1181.1897"/><text fill="#000000" font-family="sans-serif" font-size="9.8" lengthAdjust="spacing" textLength="73.4115" x="1148.903" y="1186.0421">String value = ""</text><rect fill="none" height="4.2" style="stroke:#C82930;stroke-width:0.6999999999999998;" width="4.2" x="1140.503" y="1194.5372"/><text fill="#000000" font-family="sans-serif" font-size="9.8" lengthAdjust="spacing" textLength="93.2564" x="1148.903" y="1199.3896">String memory = "0"</text><rect fill="none" height="4.2" style="stroke:#C82930;stroke-width:0.6999999999999998;" width="4.2" x="1140.503" y="1207.8848"/><text fill="#000000" font-family="sans-serif" font-size="9.8" lengthAdjust="spacing" textLength="72.4217" x="1148.903" y="1212.7372">String error = ""</text><rect fill="none" height="4.2" style="stroke:#C82930;stroke-width:0.6999999999999998;" width="4.2" x="1140.503" y="1221.2323"/><text fill="#000000" font-family="sans-serif" font-size="9.8" lengthAdjust="spacing" textLength="112.1312" x="1148.903" y="1226.0847">boolean hasError = false</text><rect fill="none" height="4.2" style="stroke:#C82930;stroke-width:0.6999999999999998;" width="4.2" x="1140.503" y="1234.5799"/><text fill="#000000" font-family="sans-serif" font-size="9.8" lengthAdjust="spacing" textLength="115.1986" x="1148.903" y="1239.4323">boolean isMutable = true</text><rect fill="none" height="4.2" style="stroke:#C82930;stroke-width:0.6999999999999998;" width="4.2" x="1140.503" y="1247.9274"/><text fill="#000000" font-family="sans-serif" font-size="9.8" lengthAdjust="spacing" textLength="148.93" x="1148.903" y="1252.7798">Operator currentOperator = null</text><rect fill="none" height="4.2" style="stroke:#C82930;stroke-width:0.6999999999999998;" width="4.2" x="1140.503" y="1261.275"/><text fill="#000000" font-family="sans-serif" font-size="9.8" lengthAdjust="spacing" textLength="183.8375" x="1148.903" y="1266.1273">boolean waitingForNextOperand = false</text><rect fill="none" height="4.2" style="stroke:#C82930;stroke-width:0.6999999999999998;" width="4.2" x="1140.503" y="1274.6225"/><text fill="#000000" font-family="sans-serif" font-size="9.8" lengthAdjust="spacing" textLength="166.6288" x="1148.903" y="1279.4749">boolean clearedOnNextInput = false</text><line style="stroke:#181818;stroke-width:0.3499999999999999;" x1="1135.603" x2="1380.8597" y1="1285.1463" y2="1285.1463"/><rect fill="#F24D5C" height="4.2" style="stroke:#C82930;stroke-width:0.6999999999999998;" width="4.2" x="1140.503" y="1293.57"/><text fill="#000000" font-family="sans-serif" font-size="9.8" lengthAdjust="spacing" textLength="168.9807" x="1148.903" y="1298.4224">Stack&lt;Double&gt; stack = new Stack&lt;&gt;()</text><rect fill="#F24D5C" height="4.2" style="stroke:#C82930;stroke-width:0.6999999999999998;" width="4.2" x="1140.503" y="1306.9176"/><text fill="#000000" font-family="sans-serif" font-size="9.8" lengthAdjust="spacing" textLength="168.1674" x="1148.903" y="1311.77">String formatValue(double x) : String</text><rect fill="#F24D5C" height="4.2" style="stroke:#C82930;stroke-width:0.6999999999999998;" width="4.2" x="1140.503" y="1320.2651"/><text fill="#000000" font-family="sans-serif" font-size="9.8" lengthAdjust="spacing" textLength="74.5483" x="1148.903" y="1325.1175">void clearStack()</text><text fill="#000000" font-family="sans-serif" font-size="9.8" lengthAdjust="spacing" textLength="2.548" x="1148.903" y="1338.465">&#160;</text><ellipse cx="1142.603" cy="1349.0602" fill="#84BE84" rx="2.1" ry="2.1" style="stroke:#038048;stroke-width:0.6999999999999998;"/><text fill="#000000" font-family="sans-serif" font-size="9.8" lengthAdjust="spacing" textLength="29.3607" x="1148.903" y="1351.8126">State()</text><ellipse cx="1142.603" cy="1362.4077" fill="#84BE84" rx="2.1" ry="2.1" style="stroke:#038048;stroke-width:0.6999999999999998;"/><text fill="#000000" font-family="sans-serif" font-size="9.8" lengthAdjust="spacing" textLength="128.7323" x="1148.903" y="1365.1601">static State getState() : State</text><ellipse cx="1142.603" cy="1375.7553" fill="#84BE84" rx="2.1" ry="2.1" style="stroke:#038048;stroke-width:0.6999999999999998;"/><text fill="#000000" font-family="sans-serif" font-size="9.8" lengthAdjust="spacing" textLength="73.7153" x="1148.903" y="1378.5077">void clearError()</text><ellipse cx="1142.603" cy="1389.1028" fill="#84BE84" rx="2.1" ry="2.1" style="stroke:#038048;stroke-width:0.6999999999999998;"/><text fill="#000000" font-family="sans-serif" font-size="9.8" lengthAdjust="spacing" textLength="108.3974" x="1148.903" y="1391.8552">void appendValue(int x)</text><ellipse cx="1142.603" cy="1402.4504" fill="#84BE84" rx="2.1" ry="2.1" style="stroke:#038048;stroke-width:0.6999999999999998;"/><text fill="#000000" font-family="sans-serif" font-size="9.8" lengthAdjust="spacing" textLength="79.6737" x="1148.903" y="1405.2028">void appendDot()</text><ellipse cx="1142.603" cy="1415.7979" fill="#84BE84" rx="2.1" ry="2.1" style="stroke:#038048;stroke-width:0.6999999999999998;"/><text fill="#000000" font-family="sans-serif" font-size="9.8" lengthAdjust="spacing" textLength="142.1877" x="1148.903" y="1418.5503">void prepareForNextOperand()</text><ellipse cx="1142.603" cy="1429.1455" fill="#84BE84" rx="2.1" ry="2.1" style="stroke:#038048;stroke-width:0.6999999999999998;"/><text fill="#000000" font-family="sans-serif" font-size="9.8" lengthAdjust="spacing" textLength="81.7513" x="1148.903" y="1431.8978">void changeSign()</text><ellipse cx="1142.603" cy="1442.493" fill="#84BE84" rx="2.1" ry="2.1" style="stroke:#038048;stroke-width:0.6999999999999998;"/><text fill="#000000" font-family="sans-serif" font-size="9.8" lengthAdjust="spacing" textLength="86.3279" x="1148.903" y="1445.2454">void delLastValue()</text><ellipse cx="1142.603" cy="1455.8405" fill="#84BE84" rx="2.1" ry="2.1" style="stroke:#038048;stroke-width:0.6999999999999998;"/><text fill="#000000" font-family="sans-serif" font-size="9.8" lengthAdjust="spacing" textLength="77.1159" x="1148.903" y="1458.5929">void storeValue()</text><ellipse cx="1142.603" cy="1469.1881" fill="#84BE84" rx="2.1" ry="2.1" style="stroke:#038048;stroke-width:0.6999999999999998;"/><text fill="#000000" font-family="sans-serif" font-size="9.8" lengthAdjust="spacing" textLength="78.2135" x="1148.903" y="1471.9405">void recallValue()</text><ellipse cx="1142.603" cy="1482.5356" fill="#84BE84" rx="2.1" ry="2.1" style="stroke:#038048;stroke-width:0.6999999999999998;"/><text fill="#000000" font-family="sans-serif" font-size="9.8" lengthAdjust="spacing" textLength="139.4633" x="1148.903" y="1485.288">String getValueString() : String</text><ellipse cx="1142.603" cy="1495.8832" fill="#84BE84" rx="2.1" ry="2.1" style="stroke:#038048;stroke-width:0.6999999999999998;"/><text fill="#000000" font-family="sans-serif" font-size="9.8" lengthAdjust="spacing" textLength="104.9282" x="1148.903" y="1498.6355">double value() : double</text><ellipse cx="1142.603" cy="1509.2307" fill="#84BE84" rx="2.1" ry="2.1" style="stroke:#038048;stroke-width:0.6999999999999998;"/><text fill="#000000" font-family="sans-serif" font-size="9.8" lengthAdjust="spacing" textLength="106.9666" x="1148.903" y="1511.9831">void setValue(double x)</text><ellipse cx="1142.603" cy="1522.5782" fill="#84BE84" rx="2.1" ry="2.1" style="stroke:#038048;stroke-width:0.6999999999999998;"/><text fill="#000000" font-family="sans-serif" font-size="9.8" lengthAdjust="spacing" textLength="159.7492" x="1148.903" y="1525.3306">void setError(String errorMessage)</text><ellipse cx="1142.603" cy="1535.9258" fill="#84BE84" rx="2.1" ry="2.1" style="stroke:#038048;stroke-width:0.6999999999999998;"/><text fill="#000000" font-family="sans-serif" font-size="9.8" lengthAdjust="spacing" textLength="204.7409" x="1148.903" y="1538.6782">void setCurrentOperator(Operator operator)</text><ellipse cx="1142.603" cy="1549.2733" fill="#84BE84" rx="2.1" ry="2.1" style="stroke:#038048;stroke-width:0.6999999999999998;"/><text fill="#000000" font-family="sans-serif" font-size="9.8" lengthAdjust="spacing" textLength="193.5101" x="1148.903" y="1552.0257">Operator getCurrentOperator() : Operator</text><ellipse cx="1142.603" cy="1562.6209" fill="#84BE84" rx="2.1" ry="2.1" style="stroke:#038048;stroke-width:0.6999999999999998;"/><text fill="#000000" font-family="sans-serif" font-size="9.8" lengthAdjust="spacing" textLength="211.248" x="1148.903" y="1565.3733">boolean isWaitingForNextOperand() : boolean</text><ellipse cx="1142.603" cy="1575.9684" fill="#84BE84" rx="2.1" ry="2.1" style="stroke:#038048;stroke-width:0.6999999999999998;"/><text fill="#000000" font-family="sans-serif" font-size="9.8" lengthAdjust="spacing" textLength="228.4567" x="1148.903" y="1578.7208">void setWaitingForNextOperand(boolean waiting)</text><ellipse cx="1142.603" cy="1589.316" fill="#84BE84" rx="2.1" ry="2.1" style="stroke:#038048;stroke-width:0.6999999999999998;"/><text fill="#000000" font-family="sans-serif" font-size="9.8" lengthAdjust="spacing" textLength="151.8896" x="1148.903" y="1592.0683">boolean isStackEmpty() : boolean</text><ellipse cx="1142.603" cy="1602.6635" fill="#84BE84" rx="2.1" ry="2.1" style="stroke:#038048;stroke-width:0.6999999999999998;"/><text fill="#000000" font-family="sans-serif" font-size="9.8" lengthAdjust="spacing" textLength="145.6862" x="1148.903" y="1605.4159">void pushToStack(double value)</text><ellipse cx="1142.603" cy="1616.011" fill="#84BE84" rx="2.1" ry="2.1" style="stroke:#038048;stroke-width:0.6999999999999998;"/><text fill="#000000" font-family="sans-serif" font-size="9.8" lengthAdjust="spacing" textLength="146.9014" x="1148.903" y="1618.7634">double popFromStack() : double</text><ellipse cx="1142.603" cy="1629.3586" fill="#84BE84" rx="2.1" ry="2.1" style="stroke:#038048;stroke-width:0.6999999999999998;"/><text fill="#000000" font-family="sans-serif" font-size="9.8" lengthAdjust="spacing" textLength="133.9263" x="1148.903" y="1632.111">String stackToString() : String</text><ellipse cx="1142.603" cy="1642.7061" fill="#84BE84" rx="2.1" ry="2.1" style="stroke:#038048;stroke-width:0.6999999999999998;"/><text fill="#000000" font-family="sans-serif" font-size="9.8" lengthAdjust="spacing" textLength="148.9006" x="1148.903" y="1645.4585">Object[] stackToArray() : Object[]</text><ellipse cx="1142.603" cy="1656.0537" fill="#84BE84" rx="2.1" ry="2.1" style="stroke:#038048;stroke-width:0.6999999999999998;"/><text fill="#000000" font-family="sans-serif" font-size="9.8" lengthAdjust="spacing" textLength="50.1954" x="1148.903" y="1658.806">void clear()</text><ellipse cx="1142.603" cy="1669.4012" fill="#84BE84" rx="2.1" ry="2.1" style="stroke:#038048;stroke-width:0.6999999999999998;"/><text fill="#000000" font-family="sans-serif" font-size="9.8" lengthAdjust="spacing" textLength="82.1041" x="1148.903" y="1672.1536">int stackSize() : int</text></g><!--class JCalculator--><g id="elem_JCalculator"><rect codeLine="2" fill="#F1F1F1" height="140.3803" id="JCalculator" rx="1.75" ry="1.75" style="stroke:#181818;stroke-width:0.3499999999999999;" width="389.6578" x="4.9" y="1086.6324"/><ellipse cx="172.156" cy="1097.8324" fill="#ADD1B2" rx="7.7" ry="7.7" style="stroke:#181818;stroke-width:0.6999999999999998;"/><path d="M172.2326,1094.7043 Q171.5873,1094.7043 171.0732,1094.923 Q170.5701,1095.1418 170.2201,1095.5574 Q169.8701,1095.9621 169.6732,1096.5746 Q169.4873,1097.1871 169.4873,1097.9527 Q169.4873,1098.9589 169.7935,1099.6918 Q170.1107,1100.4246 170.7013,1100.8074 Q171.3029,1101.1902 172.2216,1101.1902 Q172.7685,1101.1902 173.2498,1101.1027 Q173.7419,1101.0043 174.4419,1100.7855 L174.4419,1102.098 Q173.8404,1102.3277 173.3044,1102.4152 Q172.7794,1102.5027 172.0685,1102.5027 Q170.7232,1102.5027 169.8044,1101.9449 Q168.8966,1101.3761 168.4373,1100.348 Q167.9779,1099.3089 167.9779,1097.9308 Q167.9779,1096.9355 168.2513,1096.1152 Q168.5357,1095.2839 169.0826,1094.6714 Q169.6294,1094.0589 170.4279,1093.7308 Q171.2263,1093.3918 172.2544,1093.3918 Q172.9216,1093.3918 173.5451,1093.5339 Q174.1794,1093.6652 174.8357,1093.9933 L174.256,1095.2402 Q173.7091,1094.9777 173.2498,1094.8464 Q172.7904,1094.7043 172.2326,1094.7043 Z " fill="#000000"/><text fill="#000000" font-family="sans-serif" font-size="9.8" lengthAdjust="spacing" textLength="49.1958" x="186.506" y="1101.6348">JCalculator</text><line style="stroke:#181818;stroke-width:0.3499999999999999;" x1="5.6" x2="393.8578" y1="1109.0324" y2="1109.0324"/><rect fill="none" height="4.2" style="stroke:#C82930;stroke-width:0.6999999999999998;" width="4.2" x="10.5" y="1117.4562"/><text fill="#000000" font-family="sans-serif" font-size="9.8" lengthAdjust="spacing" textLength="218.4215" x="18.9" y="1122.3085">static final String[] empty = { "&lt; empty stack &gt;" }</text><line style="stroke:#181818;stroke-width:0.3499999999999999;" x1="5.6" x2="393.8578" y1="1127.9799" y2="1127.9799"/><rect fill="#F24D5C" height="4.2" style="stroke:#C82930;stroke-width:0.6999999999999998;" width="4.2" x="10.5" y="1136.4037"/><text fill="#000000" font-family="sans-serif" font-size="9.8" lengthAdjust="spacing" textLength="183.5043" x="18.9" y="1141.2561">JTextField jNumber = new JTextField("0")</text><rect fill="#F24D5C" height="4.2" style="stroke:#C82930;stroke-width:0.6999999999999998;" width="4.2" x="10.5" y="1149.7512"/><text fill="#000000" font-family="sans-serif" font-size="9.8" lengthAdjust="spacing" textLength="134.2399" x="18.9" y="1154.6036">JList jStack = new JList(empty)</text><rect fill="#F24D5C" height="4.2" style="stroke:#C82930;stroke-width:0.6999999999999998;" width="4.2" x="10.5" y="1163.0988"/><text fill="#000000" font-family="sans-serif" font-size="9.8" lengthAdjust="spacing" textLength="273.0564" x="18.9" y="1167.9512">GridBagConstraints constraints = new GridBagConstraints()</text><text fill="#000000" font-family="sans-serif" font-size="9.8" lengthAdjust="spacing" textLength="2.548" x="18.9" y="1181.2987">&#160;</text><ellipse cx="12.6" cy="1191.8939" fill="#84BE84" rx="2.1" ry="2.1" style="stroke:#038048;stroke-width:0.6999999999999998;"/><text fill="#000000" font-family="sans-serif" font-size="9.8" lengthAdjust="spacing" textLength="55.0758" x="18.9" y="1194.6463">JCalculator()</text><ellipse cx="12.6" cy="1205.2414" fill="#84BE84" rx="2.1" ry="2.1" style="stroke:#038048;stroke-width:0.6999999999999998;"/><text fill="#000000" font-family="sans-serif" font-size="9.8" lengthAdjust="spacing" textLength="60.5638" x="18.9" y="1207.9938">void update()</text><ellipse cx="12.6" cy="1218.589" fill="#84BE84" rx="2.1" ry="2.1" style="stroke:#038048;stroke-width:0.6999999999999998;"/><text fill="#000000" font-family="sans-serif" font-size="9.8" lengthAdjust="spacing" textLength="371.4578" x="18.9" y="1221.3413">void addOperatorButton(String name, int x, int y, Color color, Operator operator)</text></g><!--class JButton--><g id="elem_JButton"><rect fill="#F1F1F1" height="33.6" id="JButton" rx="1.75" ry="1.75" style="stroke:#181818;stroke-width:0.3499999999999999;" width="56.5627" x="722.603" y="950.3214"/><ellipse cx="733.103" cy="961.5214" fill="#ADD1B2" rx="7.7" ry="7.7" style="stroke:#181818;stroke-width:0.6999999999999998;"/><path d="M733.1796,958.3933 Q732.5342,958.3933 732.0202,958.612 Q731.5171,958.8308 731.1671,959.2464 Q730.8171,959.6511 730.6202,960.2636 Q730.4342,960.8761 730.4342,961.6417 Q730.4342,962.6479 730.7405,963.3808 Q731.0577,964.1136 731.6483,964.4964 Q732.2499,964.8792 733.1686,964.8792 Q733.7155,964.8792 734.1967,964.7917 Q734.6889,964.6933 735.3889,964.4745 L735.3889,965.787 Q734.7874,966.0167 734.2514,966.1042 Q733.7264,966.1917 733.0155,966.1917 Q731.6702,966.1917 730.7514,965.6339 Q729.8436,965.0651 729.3842,964.037 Q728.9249,962.9979 728.9249,961.6198 Q728.9249,960.6245 729.1983,959.8042 Q729.4827,958.9729 730.0296,958.3604 Q730.5764,957.7479 731.3749,957.4198 Q732.1733,957.0808 733.2014,957.0808 Q733.8686,957.0808 734.4921,957.2229 Q735.1264,957.3542 735.7827,957.6823 L735.203,958.9292 Q734.6561,958.6667 734.1967,958.5354 Q733.7374,958.3933 733.1796,958.3933 Z " fill="#000000"/><text fill="#000000" font-family="sans-serif" font-size="9.8" lengthAdjust="spacing" textLength="34.1627" x="742.903" y="965.3238">JButton</text><line style="stroke:#181818;stroke-width:0.3499999999999999;" x1="723.303" x2="778.4657" y1="972.7214" y2="972.7214"/><line style="stroke:#181818;stroke-width:0.3499999999999999;" x1="723.303" x2="778.4657" y1="978.3214" y2="978.3214"/></g><!--class JTextField--><g id="elem_JTextField"><rect codeLine="21" fill="#F1F1F1" height="86.9902" id="JTextField" rx="1.75" ry="1.75" style="stroke:#181818;stroke-width:0.3499999999999999;" width="217.051" x="642.362" y="1008.3234"/><ellipse cx="725.8773" cy="1019.5234" fill="#ADD1B2" rx="7.7" ry="7.7" style="stroke:#181818;stroke-width:0.6999999999999998;"/><path d="M725.9539,1016.3953 Q725.3085,1016.3953 724.7945,1016.614 Q724.2914,1016.8328 723.9414,1017.2484 Q723.5914,1017.6531 723.3945,1018.2656 Q723.2085,1018.8781 723.2085,1019.6437 Q723.2085,1020.6499 723.5148,1021.3828 Q723.832,1022.1156 724.4226,1022.4984 Q725.0242,1022.8812 725.9429,1022.8812 Q726.4898,1022.8812 726.971,1022.7937 Q727.4632,1022.6953 728.1632,1022.4765 L728.1632,1023.789 Q727.5617,1024.0187 727.0257,1024.1062 Q726.5007,1024.1937 725.7898,1024.1937 Q724.4445,1024.1937 723.5257,1023.6359 Q722.6179,1023.0671 722.1585,1022.039 Q721.6992,1020.9999 721.6992,1019.6218 Q721.6992,1018.6265 721.9726,1017.8062 Q722.257,1016.9749 722.8039,1016.3624 Q723.3507,1015.7499 724.1492,1015.4218 Q724.9476,1015.0828 725.9757,1015.0828 Q726.6429,1015.0828 727.2664,1015.2249 Q727.9007,1015.3562 728.557,1015.6843 L727.9773,1016.9312 Q727.4304,1016.6687 726.971,1016.5374 Q726.5117,1016.3953 725.9539,1016.3953 Z " fill="#000000"/><text fill="#000000" font-family="sans-serif" font-size="9.8" lengthAdjust="spacing" textLength="44.0704" x="740.2273" y="1023.3258">JTextField</text><line style="stroke:#181818;stroke-width:0.3499999999999999;" x1="643.062" x2="858.713" y1="1030.7234" y2="1030.7234"/><line style="stroke:#181818;stroke-width:0.3499999999999999;" x1="643.062" x2="858.713" y1="1036.3234" y2="1036.3234"/><ellipse cx="650.062" cy="1046.8472" fill="#84BE84" rx="2.1" ry="2.1" style="stroke:#038048;stroke-width:0.6999999999999998;"/><text fill="#000000" font-family="sans-serif" font-size="9.8" lengthAdjust="spacing" textLength="109.2598" x="656.362" y="1049.5995">void setText(String text)</text><ellipse cx="650.062" cy="1060.1947" fill="#84BE84" rx="2.1" ry="2.1" style="stroke:#038048;stroke-width:0.6999999999999998;"/><text fill="#000000" font-family="sans-serif" font-size="9.8" lengthAdjust="spacing" textLength="156.0154" x="656.362" y="1062.9471">void setEditable(boolean editable)</text><ellipse cx="650.062" cy="1073.5422" fill="#84BE84" rx="2.1" ry="2.1" style="stroke:#038048;stroke-width:0.6999999999999998;"/><text fill="#000000" font-family="sans-serif" font-size="9.8" lengthAdjust="spacing" textLength="147.9108" x="656.362" y="1076.2946">void setBackground(Color color)</text><ellipse cx="650.062" cy="1086.8898" fill="#84BE84" rx="2.1" ry="2.1" style="stroke:#038048;stroke-width:0.6999999999999998;"/><text fill="#000000" font-family="sans-serif" font-size="9.8" lengthAdjust="spacing" textLength="198.851" x="656.362" y="1089.6422">void setHorizontalAlignment(int alignment)</text></g><!--class JList--><g id="elem_JList"><rect codeLine="28" fill="#F1F1F1" height="73.6426" id="JList" rx="1.75" ry="1.75" style="stroke:#181818;stroke-width:0.3499999999999999;" width="178.0178" x="661.878" y="1120.0014"/><ellipse cx="738.6264" cy="1131.2014" fill="#ADD1B2" rx="7.7" ry="7.7" style="stroke:#181818;stroke-width:0.6999999999999998;"/><path d="M738.703,1128.0733 Q738.0577,1128.0733 737.5436,1128.292 Q737.0405,1128.5108 736.6905,1128.9264 Q736.3405,1129.3311 736.1436,1129.9436 Q735.9577,1130.5561 735.9577,1131.3217 Q735.9577,1132.3279 736.2639,1133.0608 Q736.5811,1133.7936 737.1717,1134.1764 Q737.7733,1134.5592 738.692,1134.5592 Q739.2389,1134.5592 739.7202,1134.4717 Q740.2124,1134.3733 740.9124,1134.1545 L740.9124,1135.467 Q740.3108,1135.6967 739.7749,1135.7842 Q739.2499,1135.8717 738.5389,1135.8717 Q737.1936,1135.8717 736.2749,1135.3139 Q735.367,1134.7451 734.9077,1133.717 Q734.4483,1132.6779 734.4483,1131.2998 Q734.4483,1130.3045 734.7217,1129.4842 Q735.0061,1128.6529 735.553,1128.0404 Q736.0999,1127.4279 736.8983,1127.0998 Q737.6967,1126.7608 738.7249,1126.7608 Q739.392,1126.7608 740.0155,1126.9029 Q740.6499,1127.0342 741.3061,1127.3623 L740.7264,1128.6092 Q740.1795,1128.3467 739.7202,1128.2154 Q739.2608,1128.0733 738.703,1128.0733 Z " fill="#000000"/><text fill="#000000" font-family="sans-serif" font-size="9.8" lengthAdjust="spacing" textLength="18.5709" x="752.9764" y="1135.0038">JList</text><line style="stroke:#181818;stroke-width:0.3499999999999999;" x1="662.578" x2="839.1958" y1="1142.4014" y2="1142.4014"/><line style="stroke:#181818;stroke-width:0.3499999999999999;" x1="662.578" x2="839.1958" y1="1148.0014" y2="1148.0014"/><ellipse cx="669.578" cy="1158.5252" fill="#84BE84" rx="2.1" ry="2.1" style="stroke:#038048;stroke-width:0.6999999999999998;"/><text fill="#000000" font-family="sans-serif" font-size="9.8" lengthAdjust="spacing" textLength="138.7675" x="675.878" y="1161.2775">void setListData(Object[] data)</text><ellipse cx="669.578" cy="1171.8727" fill="#84BE84" rx="2.1" ry="2.1" style="stroke:#038048;stroke-width:0.6999999999999998;"/><text fill="#000000" font-family="sans-serif" font-size="9.8" lengthAdjust="spacing" textLength="104.3108" x="675.878" y="1174.6251">void setFont(Font font)</text><ellipse cx="669.578" cy="1185.2202" fill="#84BE84" rx="2.1" ry="2.1" style="stroke:#038048;stroke-width:0.6999999999999998;"/><text fill="#000000" font-family="sans-serif" font-size="9.8" lengthAdjust="spacing" textLength="159.8178" x="675.878" y="1187.9726">void setVisibleRowCount(int count)</text></g><!--class GridBagConstraints--><g id="elem_GridBagConstraints"><rect codeLine="34" fill="#F1F1F1" height="113.6853" id="GridBagConstraints" rx="1.75" ry="1.75" style="stroke:#181818;stroke-width:0.3499999999999999;" width="112.8047" x="694.484" y="1218.2814"/><ellipse cx="704.984" cy="1229.4814" fill="#ADD1B2" rx="7.7" ry="7.7" style="stroke:#181818;stroke-width:0.6999999999999998;"/><path d="M705.0606,1226.3533 Q704.4152,1226.3533 703.9012,1226.572 Q703.3981,1226.7908 703.0481,1227.2064 Q702.6981,1227.6111 702.5012,1228.2236 Q702.3152,1228.8361 702.3152,1229.6017 Q702.3152,1230.6079 702.6215,1231.3408 Q702.9387,1232.0736 703.5293,1232.4564 Q704.1309,1232.8392 705.0496,1232.8392 Q705.5965,1232.8392 706.0777,1232.7517 Q706.5699,1232.6533 707.2699,1232.4345 L707.2699,1233.747 Q706.6684,1233.9767 706.1324,1234.0642 Q705.6074,1234.1517 704.8965,1234.1517 Q703.5512,1234.1517 702.6324,1233.5939 Q701.7246,1233.0251 701.2652,1231.997 Q700.8059,1230.9579 700.8059,1229.5798 Q700.8059,1228.5845 701.0793,1227.7642 Q701.3637,1226.9329 701.9106,1226.3204 Q702.4574,1225.7079 703.2559,1225.3798 Q704.0543,1225.0408 705.0824,1225.0408 Q705.7496,1225.0408 706.3731,1225.1829 Q707.0074,1225.3142 707.6637,1225.6423 L707.084,1226.8892 Q706.5371,1226.6267 706.0777,1226.4954 Q705.6184,1226.3533 705.0606,1226.3533 Z " fill="#000000"/><text fill="#000000" font-family="sans-serif" font-size="9.8" lengthAdjust="spacing" textLength="90.4047" x="714.784" y="1233.2838">GridBagConstraints</text><line style="stroke:#181818;stroke-width:0.3499999999999999;" x1="695.184" x2="806.5887" y1="1240.6814" y2="1240.6814"/><ellipse cx="702.184" cy="1251.2052" fill="none" rx="2.1" ry="2.1" style="stroke:#038048;stroke-width:0.6999999999999998;"/><text fill="#000000" font-family="sans-serif" font-size="9.8" lengthAdjust="spacing" textLength="25.6269" x="708.484" y="1253.9575">int fill</text><ellipse cx="702.184" cy="1264.5527" fill="none" rx="2.1" ry="2.1" style="stroke:#038048;stroke-width:0.6999999999999998;"/><text fill="#000000" font-family="sans-serif" font-size="9.8" lengthAdjust="spacing" textLength="38.4845" x="708.484" y="1267.3051">int gridx</text><ellipse cx="702.184" cy="1277.9002" fill="none" rx="2.1" ry="2.1" style="stroke:#038048;stroke-width:0.6999999999999998;"/><text fill="#000000" font-family="sans-serif" font-size="9.8" lengthAdjust="spacing" textLength="38.2983" x="708.484" y="1280.6526">int gridy</text><ellipse cx="702.184" cy="1291.2478" fill="none" rx="2.1" ry="2.1" style="stroke:#038048;stroke-width:0.6999999999999998;"/><text fill="#000000" font-family="sans-serif" font-size="9.8" lengthAdjust="spacing" textLength="59.1526" x="708.484" y="1294.0002">int gridwidth</text><ellipse cx="702.184" cy="1304.5953" fill="none" rx="2.1" ry="2.1" style="stroke:#038048;stroke-width:0.6999999999999998;"/><text fill="#000000" font-family="sans-serif" font-size="9.8" lengthAdjust="spacing" textLength="63.0334" x="708.484" y="1307.3477">int gridheight</text><ellipse cx="702.184" cy="1317.9429" fill="none" rx="2.1" ry="2.1" style="stroke:#038048;stroke-width:0.6999999999999998;"/><text fill="#000000" font-family="sans-serif" font-size="9.8" lengthAdjust="spacing" textLength="57.418" x="708.484" y="1320.6953">Insets insets</text><line style="stroke:#181818;stroke-width:0.3499999999999999;" x1="695.184" x2="806.5887" y1="1326.3666" y2="1326.3666"/></g><!--class Operator--><g id="elem_Operator"><rect codeLine="43" fill="#F1F1F1" height="46.9475" id="Operator" rx="1.75" ry="1.75" style="stroke:#181818;stroke-width:0.3499999999999999;" width="82.1545" x="158.655" y="1015.0504"/><ellipse cx="178.1488" cy="1026.2504" fill="#A9DCDF" rx="7.7" ry="7.7" style="stroke:#181818;stroke-width:0.6999999999999998;"/><path d="M180.4895,1029.9254 L179.4613,1027.3004 L176.3551,1027.3004 L175.3488,1029.9254 L173.8613,1029.9254 L177.3285,1021.0223 L178.5535,1021.0223 L181.9988,1029.9254 L180.4895,1029.9254 Z M178.1488,1023.6582 Q178.116,1023.5488 178.0285,1023.2973 Q177.941,1023.0457 177.8645,1022.7832 Q177.7879,1022.5098 177.9301,1022.466 Q178.0395,1022.5973 177.9738,1022.8488 Q177.9082,1023.0894 177.8426,1023.2973 Q177.777,1023.4941 177.7223,1023.6582 L176.8582,1025.9769 L179.0129,1025.9769 L178.1488,1023.6582 Z " fill="#000000"/><text fill="#000000" font-family="sans-serif" font-size="9.8" font-style="italic" lengthAdjust="spacing" textLength="39.7682" x="189.9475" y="1030.0528">Operator</text><line style="stroke:#181818;stroke-width:0.3499999999999999;" x1="159.355" x2="240.1095" y1="1037.4504" y2="1037.4504"/><line style="stroke:#181818;stroke-width:0.3499999999999999;" x1="159.355" x2="240.1095" y1="1043.0504" y2="1043.0504"/><ellipse cx="166.355" cy="1053.5742" fill="#84BE84" rx="2.1" ry="2.1" style="stroke:#038048;stroke-width:0.6999999999999998;"/><text fill="#000000" font-family="sans-serif" font-size="9.8" lengthAdjust="spacing" textLength="63.9545" x="172.655" y="1056.3265">void execute()</text></g><!--class JFrame--><g id="elem_JFrame"><rect fill="#F1F1F1" height="33.6" id="JFrame" rx="1.75" ry="1.75" style="stroke:#181818;stroke-width:0.3499999999999999;" width="54.3969" x="723.688" y="1356.3214"/><ellipse cx="734.188" cy="1367.5214" fill="#ADD1B2" rx="7.7" ry="7.7" style="stroke:#181818;stroke-width:0.6999999999999998;"/><path d="M734.2646,1364.3933 Q733.6192,1364.3933 733.1052,1364.612 Q732.6021,1364.8308 732.2521,1365.2464 Q731.9021,1365.6511 731.7052,1366.2636 Q731.5192,1366.8761 731.5192,1367.6417 Q731.5192,1368.6479 731.8255,1369.3808 Q732.1427,1370.1136 732.7333,1370.4964 Q733.3349,1370.8792 734.2536,1370.8792 Q734.8005,1370.8792 735.2817,1370.7917 Q735.7739,1370.6933 736.4739,1370.4745 L736.4739,1371.787 Q735.8724,1372.0167 735.3364,1372.1042 Q734.8114,1372.1917 734.1005,1372.1917 Q732.7552,1372.1917 731.8364,1371.6339 Q730.9286,1371.0651 730.4692,1370.037 Q730.0099,1368.9979 730.0099,1367.6198 Q730.0099,1366.6245 730.2833,1365.8042 Q730.5677,1364.9729 731.1146,1364.3604 Q731.6614,1363.7479 732.4599,1363.4198 Q733.2583,1363.0808 734.2864,1363.0808 Q734.9536,1363.0808 735.5771,1363.2229 Q736.2114,1363.3542 736.8677,1363.6823 L736.288,1364.9292 Q735.7411,1364.6667 735.2817,1364.5354 Q734.8224,1364.3933 734.2646,1364.3933 Z " fill="#000000"/><text fill="#000000" font-family="sans-serif" font-size="9.8" lengthAdjust="spacing" textLength="31.9969" x="743.988" y="1371.3238">JFrame</text><line style="stroke:#181818;stroke-width:0.3499999999999999;" x1="724.388" x2="777.3849" y1="1378.7214" y2="1378.7214"/><line style="stroke:#181818;stroke-width:0.3499999999999999;" x1="724.388" x2="777.3849" y1="1384.3214" y2="1384.3214"/></g><!--reverse link Operator to BackSpace--><g id="link_Operator_BackSpace"><path d="M1017.611,530.3214 C1017.611,530.3214 1038.611,750.1214 1038.611,750.1214 C1038.611,750.1214 1100.911,849.5214 1100.911,849.5214 C1100.911,849.5214 1170.589,865.4044 1216.992,875.9814 " fill="none" id="Operator-backto-BackSpace" style="stroke:#181818;stroke-width:0.6999999999999998;"/></g><!--reverse link Operator to ClearError--><g id="link_Operator_ClearError"><path d="M1017.611,530.3214 C1017.611,530.3214 1038.611,680.8214 1038.611,680.8214 C1038.611,680.8214 1100.911,778.1214 1100.911,778.1214 C1100.911,778.1214 1170.589,794.0044 1216.992,804.5814 " fill="none" id="Operator-backto-ClearError" style="stroke:#181818;stroke-width:0.6999999999999998;"/></g><!--reverse link Operator to Clear--><g id="link_Operator_Clear"><path d="M1017.611,530.3214 C1017.611,530.3214 1038.611,615.7214 1038.611,615.7214 C1038.611,615.7214 1100.911,706.7214 1100.911,706.7214 C1100.911,706.7214 1170.589,722.6044 1216.992,733.1814 " fill="none" id="Operator-backto-Clear" style="stroke:#181818;stroke-width:0.6999999999999998;"/></g><!--reverse link Operator to MemoryRecall--><g id="link_Operator_MemoryRecall"><path d="M1017.611,530.3214 C1017.611,530.3214 1038.611,561.8214 1038.611,561.8214 C1038.611,561.8214 1100.911,635.3214 1100.911,635.3214 C1100.911,635.3214 1167.761,650.5604 1214.115,661.1234 " fill="none" id="Operator-backto-MemoryRecall" style="stroke:#181818;stroke-width:0.6999999999999998;"/></g><!--reverse link Operator to MemoryStore--><g id="link_Operator_MemoryStore"><path d="M1017.611,530.3214 C1017.611,530.3214 1038.611,541.5214 1038.611,541.5214 C1038.611,541.5214 1100.911,563.9214 1100.911,563.9214 C1100.911,563.9214 1168.965,579.4334 1215.354,590.0104 " fill="none" id="Operator-backto-MemoryStore" style="stroke:#181818;stroke-width:0.6999999999999998;"/></g><!--reverse link Operator to Digit--><g id="link_Operator_Digit"><path d="M1017.611,530.3214 C1017.611,530.3214 1148.385,521.9284 1216.831,517.5324 " fill="none" id="Operator-backto-Digit" style="stroke:#181818;stroke-width:0.6999999999999998;"/></g><!--reverse link Operator to UnaryOperation--><g id="link_Operator_UnaryOperation"><path d="M1017.611,530.3214 C1017.611,530.3214 1100.911,465.9214 1100.911,465.9214 C1100.911,465.9214 1116.115,460.4194 1137.038,452.8384 " fill="none" id="Operator-backto-UnaryOperation" style="stroke:#181818;stroke-width:0.6999999999999998;"/></g><!--reverse link Operator to ChangeSign--><g id="link_Operator_ChangeSign"><path d="M1017.611,530.3214 C1017.611,530.3214 1100.911,352.5214 1100.911,352.5214 C1100.911,352.5214 1170.589,336.6384 1216.992,326.0614 " fill="none" id="Operator-backto-ChangeSign" style="stroke:#181818;stroke-width:0.6999999999999998;"/></g><!--reverse link Operator to AppendDot--><g id="link_Operator_AppendDot"><path d="M1017.611,530.3214 C1017.611,530.3214 1038.611,435.1214 1038.611,435.1214 C1038.611,435.1214 1100.911,281.1214 1100.911,281.1214 C1100.911,281.1214 1170.589,265.2384 1216.992,254.6614 " fill="none" id="Operator-backto-AppendDot" style="stroke:#181818;stroke-width:0.6999999999999998;"/></g><!--reverse link UnaryOperation to Reciprocal--><g id="link_UnaryOperation_Reciprocal"><path d="M1380.029,412.0214 C1380.029,412.0214 1458.254,453.3214 1458.254,453.3214 C1458.254,453.3214 1529.213,470.1004 1573.845,480.6494 " fill="none" id="UnaryOperation-backto-Reciprocal" style="stroke:#181818;stroke-width:0.6999999999999998;"/></g><!--reverse link UnaryOperation to Square--><g id="link_UnaryOperation_Square"><path d="M1380.029,412.0214 C1380.029,412.0214 1520.281,415.4444 1581.363,416.9424 " fill="none" id="UnaryOperation-backto-Square" style="stroke:#181818;stroke-width:0.6999999999999998;"/></g><!--reverse link UnaryOperation to SquareRoot--><g id="link_UnaryOperation_SquareRoot"><path d="M1380.029,412.0214 C1380.029,412.0214 1458.254,381.9214 1458.254,381.9214 C1458.254,381.9214 1525.818,365.9474 1570.555,355.3704 " fill="none" id="UnaryOperation-backto-SquareRoot" style="stroke:#181818;stroke-width:0.6999999999999998;"/></g><!--reverse link Operator to BinaryOperation--><g id="link_Operator_BinaryOperation"><path d="M1017.611,530.3214 C1017.611,530.3214 1038.611,379.1214 1038.611,379.1214 C1038.611,379.1214 1100.911,209.7214 1100.911,209.7214 C1100.911,209.7214 1114.988,204.6254 1134.707,197.4854 " fill="none" id="Operator-backto-BinaryOperation" style="stroke:#181818;stroke-width:0.6999999999999998;"/></g><!--reverse link BinaryOperation to Addition--><g id="link_BinaryOperation_Addition"><path d="M1416.429,159.3214 C1416.429,159.3214 1458.254,239.1214 1458.254,239.1214 C1458.254,239.1214 1480.836,244.4624 1508.528,251.0074 " fill="none" id="BinaryOperation-backto-Addition" style="stroke:#181818;stroke-width:0.6999999999999998;"/></g><!--reverse link BinaryOperation to Subtraction--><g id="link_BinaryOperation_Subtraction"><path d="M1416.429,159.3214 C1416.429,159.3214 1459.682,169.2124 1505.217,179.6284 " fill="none" id="BinaryOperation-backto-Subtraction" style="stroke:#181818;stroke-width:0.6999999999999998;"/></g><!--reverse link BinaryOperation to Multiplication--><g id="link_BinaryOperation_Multiplication"><path d="M1416.429,159.3214 C1416.429,159.3214 1433.761,156.8644 1458.03,153.4344 " fill="none" id="BinaryOperation-backto-Multiplication" style="stroke:#181818;stroke-width:0.6999999999999998;"/></g><!--reverse link BinaryOperation to Division--><g id="link_BinaryOperation_Division"><path d="M1416.429,159.3214 C1416.429,159.3214 1458.254,96.3214 1458.254,96.3214 C1458.254,96.3214 1480.836,90.9804 1508.528,84.4354 " fill="none" id="BinaryOperation-backto-Division" style="stroke:#181818;stroke-width:0.6999999999999998;"/></g><!--reverse link Operator to Enter--><g id="link_Operator_Enter"><path d="M1017.611,530.3214 C1017.611,530.3214 1038.611,318.2214 1038.611,318.2214 C1038.611,318.2214 1100.911,96.3214 1100.911,96.3214 C1100.911,96.3214 1170.589,80.4384 1216.992,69.8614 " fill="none" id="Operator-backto-Enter" style="stroke:#181818;stroke-width:0.6999999999999998;"/></g><!--link Operators to State--><g id="link_Operators_State"><path codeLine="42" d="M876.8816,931.4246 C877.9111,931.4707 878.9412,931.5168 879.9717,931.5629 C882.0327,931.6551 884.0952,931.7474 886.1571,931.8396 C952.14,934.7919 1017.611,937.7214 1017.611,937.7214 C1017.611,937.7214 1073.7095,1047.5421 1132.6775,1162.9861 " fill="none" id="Operators-to-State" style="stroke:#181818;stroke-width:0.6999999999999998;"/><polygon fill="#181818" points="1134.588,1166.7264,1134.2158,1159.8422,1132.9959,1163.6095,1129.2287,1162.3896,1134.588,1166.7264" style="stroke:#181818;stroke-width:0.6999999999999998;"/><text fill="#000000" font-family="sans-serif" font-size="9.1" lengthAdjust="spacing" textLength="40.2857" x="1039.311" y="983.1493">manipule</text></g><!--link JCalculator to Operator--><g id="link_JCalculator_Operator"><path codeLine="14" d="M366.121,1086.3174 C383.264,1079.0304 394.555,1074.2214 394.555,1074.2214 C394.555,1074.2214 456.155,611.5214 456.155,611.5214 C456.155,611.5214 462.5798,610.3467 479.6878,607.2107 " fill="none" id="JCalculator-to-Operator" style="stroke:#181818;stroke-width:0.6999999999999998;stroke-dasharray:7.0,7.0;"/><polygon fill="#181818" points="483.819,606.4534,477.1174,604.8352,480.3764,607.0844,478.1271,610.3434,483.819,606.4534" style="stroke:#181818;stroke-width:0.6999999999999998;"/><text fill="#000000" font-family="sans-serif" font-size="9.1" lengthAdjust="spacing" textLength="19.474" x="423.605" y="656.9493">uses</text></g><!--link JCalculator to State--><g id="link_JCalculator_State"><path codeLine="15" d="M269.969,1227.2484 C345.695,1303.9474 456.155,1415.8214 456.155,1415.8214 C456.155,1415.8214 1017.611,1415.8214 1017.611,1415.8214 C1017.611,1415.8214 1071.4226,1413.9384 1130.3906,1411.8734 " fill="none" id="JCalculator-to-State" style="stroke:#181818;stroke-width:0.6999999999999998;stroke-dasharray:7.0,7.0;"/><polygon fill="#181818" points="1134.588,1411.7264,1128.1939,1409.1486,1131.0901,1411.8489,1128.3899,1414.7452,1134.588,1411.7264" style="stroke:#181818;stroke-width:0.6999999999999998;"/><text fill="#000000" font-family="sans-serif" font-size="9.1" lengthAdjust="spacing" textLength="19.474" x="741.433" y="1412.9493">uses</text></g><!--link JCalculator to JButton--><g id="link_JCalculator_JButton"><path codeLine="16" d="M366.121,1086.3174 C383.264,1079.0304 394.555,1074.2214 394.555,1074.2214 C394.555,1074.2214 456.155,995.8214 456.155,995.8214 C456.155,995.8214 644.6849,977.4206 718.0799,970.2526 " fill="none" id="JCalculator-to-JButton" style="stroke:#181818;stroke-width:0.6999999999999998;stroke-dasharray:7.0,7.0;"/><polygon fill="#181818" points="722.26,969.8444,715.7177,967.67,718.7766,970.1846,716.262,973.2435,722.26,969.8444" style="stroke:#181818;stroke-width:0.6999999999999998;"/><text fill="#000000" font-family="sans-serif" font-size="9.1" lengthAdjust="spacing" textLength="31.1402" x="417.655" y="1000.6493">creates</text></g><!--link JCalculator to JTextField--><g id="link_JCalculator_JTextField"><path codeLine="17" d="M394.905,1119.5604 C430.241,1112.7844 456.155,1107.8214 456.155,1107.8214 C456.155,1107.8214 554.1592,1089.1542 638.0332,1073.1802 " fill="none" id="JCalculator-to-JTextField" style="stroke:#181818;stroke-width:0.6999999999999998;stroke-dasharray:7.0,7.0;"/><polygon fill="#181818" points="642.159,1072.3944,635.4464,1070.8225,638.7208,1073.0492,636.4941,1076.3236,642.159,1072.3944" style="stroke:#181818;stroke-width:0.6999999999999998;"/><text fill="#000000" font-family="sans-serif" font-size="9.1" lengthAdjust="spacing" textLength="31.1402" x="417.655" y="1105.6493">creates</text></g><!--link JCalculator to JList--><g id="link_JCalculator_JList"><path codeLine="18" d="M394.835,1156.8214 C485.814,1156.8214 585.501,1156.8214 657.342,1156.8214 " fill="none" id="JCalculator-to-JList" style="stroke:#181818;stroke-width:0.6999999999999998;stroke-dasharray:7.0,7.0;"/><polygon fill="#181818" points="661.542,1156.8214,655.242,1154.0214,658.042,1156.8214,655.242,1159.6214,661.542,1156.8214" style="stroke:#181818;stroke-width:0.6999999999999998;"/><text fill="#000000" font-family="sans-serif" font-size="9.1" lengthAdjust="spacing" textLength="31.1402" x="417.655" y="1153.9493">creates</text></g><!--link JCalculator to GridBagConstraints--><g id="link_JCalculator_GridBagConstraints"><path codeLine="19" d="M394.835,1198.6534 C500.801,1221.4594 620.161,1247.1407 690.126,1262.1977 " fill="none" id="JCalculator-to-GridBagConstraints" style="stroke:#181818;stroke-width:0.6999999999999998;stroke-dasharray:7.0,7.0;"/><polygon fill="#181818" points="694.232,1263.0814,688.6621,1259.0186,690.8103,1262.345,687.4839,1264.4933,694.232,1263.0814" style="stroke:#181818;stroke-width:0.6999999999999998;"/><text fill="#000000" font-family="sans-serif" font-size="9.1" lengthAdjust="spacing" textLength="19.474" x="423.605" y="1200.1493">uses</text></g><!--link JCalculator to JFrame--><g id="link_JCalculator_JFrame"><path codeLine="47" d="M296.562,1227.3464 C369.089,1280.5464 456.155,1344.4214 456.155,1344.4214 C456.155,1344.4214 638.6556,1362.2377 711.0356,1369.3007 " fill="none" id="JCalculator-to-JFrame" style="stroke:#181818;stroke-width:0.6999999999999998;"/><polygon fill="none" points="723.576,1370.5244,711.4435,1365.1205,710.6277,1373.4808,723.576,1370.5244" style="stroke:#181818;stroke-width:0.6999999999999998;"/><text fill="#000000" font-family="sans-serif" font-size="9.1" lengthAdjust="spacing" textLength="33.943" x="416.255" y="1314.2493">extends</text></g><!--SRC=[KypCIyufJKbLy2z8BKeioI-ABytDqIi04boACAdWaiIIL2pYNiw9EScbEQYw0000]--></g></svg>